<svg fill="#fff" height="79" viewBox="0 0 74 79" width="74" xmlns="http://www.w3.org/2000/svg"><path d="m73.7014 17.9592c-1.1398-8.33886-8.524-14.91044-17.2774-16.18384-1.4768-.21517-7.0723-.99826-20.0339-.99826h-.0968c-12.9652 0-15.7468.78309-17.2236.99826-8.5097 1.23812-16.28093 7.14302-18.166394 15.58064-.90688457 4.1553-1.003667 8.7621-.835194 12.9879.240163 6.0601.286762 12.1096.845948 18.1451.38658 4.009 1.06096 7.9861 2.01809 11.9015 1.79226 7.2312 9.04735 13.249 16.15545 15.704 7.6103 2.5603 15.7945 2.9854 23.6364 1.2276.8626-.1976 1.7158-.4268 2.5593-.6879 1.9034-.5961 4.1366-1.2628 5.7783-2.4339.0225-.0164.041-.0376.054-.0621.013-.0244.0203-.0514.0212-.079v-5.8484c-.0004-.0258-.0066-.0512-.0183-.0743-.0116-.0231-.0283-.0433-.049-.0592-.0206-.0159-.0446-.027-.0701-.0326-.0256-.0056-.0521-.0055-.0776.0003-5.0242 1.181-10.1727 1.773-15.3382 1.7637-8.8896 0-11.2805-4.1518-11.9652-5.8802-.5503-1.4938-.8998-3.0521-1.0395-4.6351-.0014-.0265.0036-.0531.0145-.0774.0109-.0244.0276-.0458.0485-.0627.021-.0168.0457-.0285.0721-.0342s.0538-.0052.08.0015c4.9405 1.173 10.005 1.765 15.0873 1.7637 1.2223 0 2.441 0 3.6634-.0317 5.1115-.1411 10.499-.3986 15.5281-1.3652.1255-.0246.2509-.0458.3585-.0776 7.9325-1.4991 15.4815-6.2047 16.2486-18.1203.0287-.4691.1004-4.9137.1004-5.4005.0036-1.6543.5413-11.7357-.0789-17.9298zm-12.2089 29.7326h-8.3411v-20.1063c0-4.2329-1.7923-6.3917-5.4378-6.3917-4.0075 0-6.0148 2.5538-6.0148 7.5981v11.0055h-8.291v-11.0055c0-5.0443-2.0109-7.5981-6.0184-7.5981-3.624 0-5.4342 2.1588-5.4378 6.3917v20.1063h-8.334v-20.7166c0-4.2329 1.0981-7.5957 3.2942-10.0884 2.2654-2.4868 5.237-3.7637 8.9255-3.7637 4.2691 0 7.4952 1.6155 9.6459 4.8431l2.0755 3.4287 2.079-3.4287c2.1507-3.2276 5.3768-4.8431 9.6388-4.8431 3.6849 0 6.6564 1.2769 8.929 3.7637 2.1962 2.4904 3.2942 5.8532 3.2942 10.0884z" fill="#fff"/></svg>