<svg xmlns="http://www.w3.org/2000/svg" viewBox="0 0 24 24" height="24" width="24"><g transform="matrix(1,0,0,1,0,0)"><defs><style>.a{fill:#ffdda1}.b{fill:none;stroke:#191919;stroke-linecap:round;stroke-linejoin:round}</style></defs><path class="a" d="M18 6.5H6a6 6 0 0 1 12 0z"></path><path class="a" d="M12 3.166A6 6 0 0 1 17.368 6.5H18a6 6 0 0 0-12 0h.632A6 6 0 0 1 12 3.166z"></path><path class="b" d="M18 6.5H6a6 6 0 0 1 12 0z"></path><path d="M17.5 10.89a5.995 5.995 0 0 1-11 0 1.959 1.959 0 0 0 1.72.12l3.41-1.36a.95.95 0 0 1 .74 0l3.41 1.36a1.959 1.959 0 0 0 1.72-.12z" style="stroke:#191919;stroke-linecap:round;stroke-linejoin:round;fill:#ffdda1"></path><path class="b" d="M11 12.5h2"></path><path d="M19 7.5v1.17a2.006 2.006 0 0 1-.59 1.42l-.48.48a1.661 1.661 0 0 1-.43.32 1.959 1.959 0 0 1-1.72.12l-3.41-1.36a.95.95 0 0 0-.74 0l-3.41 1.36a1.959 1.959 0 0 1-1.72-.12 1.661 1.661 0 0 1-.43-.32l-.48-.48A2.006 2.006 0 0 1 5 8.67V7.5a1 1 0 0 1 1-1h12a1 1 0 0 1 1 1z" style="fill:#66e1ff"></path><path d="M6 6.5a1 1 0 0 0-1 1v1.17a2.006 2.006 0 0 0 .59 1.42l.48.48a1.661 1.661 0 0 0 .43.32 1.959 1.959 0 0 0 1.72.12l3.41-1.36a.9.9 0 0 1 .27-.05L15 6.5z" style="fill:#c2f3ff"></path><path class="b" d="M19 7.5v1.17a2.006 2.006 0 0 1-.59 1.42l-.48.48a1.661 1.661 0 0 1-.43.32 1.959 1.959 0 0 1-1.72.12l-3.41-1.36a.95.95 0 0 0-.74 0l-3.41 1.36a1.959 1.959 0 0 1-1.72-.12 1.661 1.661 0 0 1-.43-.32l-.48-.48A2.006 2.006 0 0 1 5 8.67V7.5a1 1 0 0 1 1-1h12a1 1 0 0 1 1 1z"></path><path d="M19 17.12v6.63H5v-6.63a16.133 16.133 0 0 1 3.08-.8 4.006 4.006 0 0 0 7.84 0 16.133 16.133 0 0 1 3.08.8z" style="fill:#e3e3e3"></path><path class="a" d="M1.77 18.81A11.733 11.733 0 0 1 5 17.12v6.63H1v-3.36a1.99 1.99 0 0 1 .77-1.58zM23 20.39v3.36h-4v-6.63a11.733 11.733 0 0 1 3.23 1.69 1.99 1.99 0 0 1 .77 1.58z"></path><path d="M11.82 19.49H8.08a16.133 16.133 0 0 0-3.08.8v-3.17a16.133 16.133 0 0 1 3.08-.8 4.008 4.008 0 0 0 3.74 3.17zM19 17.12v3.17a16.133 16.133 0 0 0-3.08-.8h-3.74a4.008 4.008 0 0 0 3.74-3.17 16.133 16.133 0 0 1 3.08.8z" style="fill:#ffffff"></path><path class="a" d="M5 17.12v3.17a11.733 11.733 0 0 0-3.23 1.69 1.932 1.932 0 0 0-.47.52H1v-2.11a1.99 1.99 0 0 1 .77-1.58A11.733 11.733 0 0 1 5 17.12zm18 3.27v2.11h-.3a1.932 1.932 0 0 0-.47-.52A11.733 11.733 0 0 0 19 20.29v-3.17a11.733 11.733 0 0 1 3.23 1.69 1.99 1.99 0 0 1 .77 1.58zM12 16a22.845 22.845 0 0 1 3.92.32 4.006 4.006 0 0 1-7.84 0A22.845 22.845 0 0 1 12 16z"></path><path class="b" d="M23 23.5v-3.106a1.976 1.976 0 0 0-.77-1.579C20.9 17.8 17.73 16 12 16s-8.895 1.8-10.23 2.815A1.976 1.976 0 0 0 1 20.394V23.5"></path><path class="b" d="M8.083 16.312a4 4 0 0 0 7.834 0M19 23.5v-6.388M5 23.5v-6.388"></path></g></svg>