<svg xmlns="http://www.w3.org/2000/svg" viewBox="0 0 24 24" height="24" width="24"><path d="M18 6.5H6a6 6 0 0112 0z" fill="#D6D6D6"/><path d="M12 3.166A6 6 0 0117.368 6.5H18a6 6 0 00-12 0h.632A6 6 0 0112 3.166z" fill="#C0C0C0"/><path d="M18 6.5H6a6 6 0 0112 0z" fill="none" stroke="#191919" stroke-linecap="round" stroke-linejoin="round"/><path d="M17.5 10.89a5.995 5.995 0 01-11 0 1.959 1.959 0 001.72.12l3.41-1.36a.95.95 0 01.74 0l3.41 1.36a1.959 1.959 0 001.72-.12z" stroke="#191919" stroke-linecap="round" stroke-linejoin="round" fill="#C0C0C0"/><path d="M11 12.5h2" fill="none" stroke="#191919" stroke-linecap="round" stroke-linejoin="round"/><path d="M19 7.5v1.17a2.006 2.006 0 01-.59 1.42l-.48.48a1.661 1.661 0 01-.43.32 1.959 1.959 0 01-1.72.12l-3.41-1.36a.95.95 0 00-.74 0l-3.41 1.36a1.959 1.959 0 01-1.72-.12 1.661 1.661 0 01-.43-.32l-.48-.48A2.006 2.006 0 015 8.67V7.5a1 1 0 011-1h12a1 1 0 011 1z" fill="#66e1ff"/><path d="M6 6.5a1 1 0 00-1 1v1.17a2.006 2.006 0 00.59 1.42l.48.48a1.661 1.661 0 00.43.32 1.959 1.959 0 001.72.12l3.41-1.36a.9.9 0 01.27-.05L15 6.5z" fill="#c2f3ff"/><path d="M19 7.5v1.17a2.006 2.006 0 01-.59 1.42l-.48.48a1.661 1.661 0 01-.43.32 1.959 1.959 0 01-1.72.12l-3.41-1.36a.95.95 0 00-.74 0l-3.41 1.36a1.959 1.959 0 01-1.72-.12 1.661 1.661 0 01-.43-.32l-.48-.48A2.006 2.006 0 015 8.67V7.5a1 1 0 011-1h12a1 1 0 011 1z" fill="none" stroke="#191919" stroke-linecap="round" stroke-linejoin="round"/><path d="M19 17.12v6.63H5v-6.63a16.133 16.133 0 013.08-.8 4.006 4.006 0 007.84 0 16.133 16.133 0 013.08.8z" fill="#e3e3e3"/><path d="M1.77 18.81A11.733 11.733 0 015 17.12v6.63H1v-3.36a1.99 1.99 0 01.77-1.58zM23 20.39v3.36h-4v-6.63a11.733 11.733 0 013.23 1.69 1.99 1.99 0 01.77 1.58z" fill="#C0C0C0"/><path d="M11.82 19.49H8.08a16.133 16.133 0 00-3.08.8v-3.17a16.133 16.133 0 013.08-.8 4.008 4.008 0 003.74 3.17zM19 17.12v3.17a16.133 16.133 0 00-3.08-.8h-3.74a4.008 4.008 0 003.74-3.17 16.133 16.133 0 013.08.8z" fill="#fff"/><path d="M5 17.12v3.17a11.733 11.733 0 00-3.23 1.69 1.932 1.932 0 00-.47.52H1v-2.11a1.99 1.99 0 01.77-1.58A11.733 11.733 0 015 17.12zm18 3.27v2.11h-.3a1.932 1.932 0 00-.47-.52A11.733 11.733 0 0019 20.29v-3.17a11.733 11.733 0 013.23 1.69 1.99 1.99 0 01.77 1.58zM12 16a22.845 22.845 0 013.92.32 4.006 4.006 0 01-7.84 0A22.845 22.845 0 0112 16z" fill="#C0C0C0"/><path d="M23 23.5v-3.106a1.976 1.976 0 00-.77-1.579C20.9 17.8 17.73 16 12 16s-8.895 1.8-10.23 2.815A1.976 1.976 0 001 20.394V23.5" fill="none" stroke="#191919" stroke-linecap="round" stroke-linejoin="round"/><path d="M8.083 16.312a4 4 0 007.834 0M19 23.5v-6.388M5 23.5v-6.388" fill="none" stroke="#191919" stroke-linecap="round" stroke-linejoin="round"/></svg>
