<svg xmlns="http://www.w3.org/2000/svg" viewBox="0 0 24 24" height="24" width="24"><g><path d="M23 20.4v3.1H1v-3.1a1.947 1.947 0 01.77-1.58 12.009 12.009 0 013.26-1.72l2.7-.721.35-.06a4 4 0 007.83 0 14.139 14.139 0 016.32 2.5A1.975 1.975 0 0123 20.4z" fill="#66e1ff"/><path d="M15.91 16.32a4 4 0 01-7.83 0A22.845 22.845 0 0112 16a22.636 22.636 0 013.91.32z" fill="#B25C20"/><path d="M9.53 18.65c-.51.04-.99.11-1.45.19l-.35.06-2.7.72a12.034 12.034 0 00-3.26 1.72A1.947 1.947 0 001 22.92V20.4a1.947 1.947 0 01.77-1.58 12.034 12.034 0 013.26-1.72l2.7-.72.35-.06a3.961 3.961 0 001.45 2.33zM23 20.4v2.52a1.975 1.975 0 00-.77-1.58 14.128 14.128 0 00-6.32-2.5 14.8 14.8 0 00-1.44-.19 3.947 3.947 0 001.44-2.33 14.128 14.128 0 016.32 2.5A1.975 1.975 0 0123 20.4z" fill="#c2f3ff"/><path d="M15.91 16.32a3.947 3.947 0 01-1.44 2.33 21.194 21.194 0 00-2.47-.13 21.194 21.194 0 00-2.47.13 3.961 3.961 0 01-1.45-2.33A22.845 22.845 0 0112 16a22.636 22.636 0 013.91.32z" fill="#B25C20"/><path d="M7.41 11.51l-.91-.01c-.83 0-1.5-.89-1.5-2v-2a7 7 0 0114 0v2a3.494 3.494 0 01-3.42 3.5" fill="#281947"/><path d="M17 6.98V9.5a4.993 4.993 0 01-1.42 3.5h-.01A5 5 0 017 9.5V6.98a4.1 4.1 0 00.5.02A5.016 5.016 0 0012 4.19 5 5 0 0016.5 7a4.264 4.264 0 00.5-.02z" fill="#B25C20"/><path d="M8 21.005a4.677 4.677 0 01-1.112 2.036.5.5 0 01-.777 0A4.674 4.674 0 015 21.005a1.5 1.5 0 013 0z" fill="#281947"/><ellipse cx="6.496" cy="17.505" rx="1.5" ry="2" fill="#281947"/><ellipse cx="6.496" cy="13.505" rx="1.5" ry="2" fill="#281947"/><circle cx="14.746" cy="8.505" r="1.75" fill="#66e1ff"/><circle cx="9.246" cy="8.505" r="1.75" fill="#66e1ff"/><path d="M12 .5a7 7 0 00-7 7v2a2.662 2.662 0 00.037.433 7 7 0 0113.926 0A2.65 2.65 0 0019 9.5v-2a7.008 7.008 0 00-7-7z" fill="#4A2F82"/><path d="M16.5 7A5 5 0 0112 4.182 5 5 0 017.5 7a4.866 4.866 0 01-.5-.025V9.5a5 5 0 0010 0V6.975a4.866 4.866 0 01-.5.025zM8 21a4.67 4.67 0 01-1.112 2.037.5.5 0 01-.776 0A4.67 4.67 0 015 21a1.5 1.5 0 013 0z" fill="none" stroke="#191919" stroke-linecap="round" stroke-linejoin="round"/><ellipse cx="6.5" cy="17.5" rx="1.5" ry="2" fill="none" stroke="#191919" stroke-linecap="round" stroke-linejoin="round"/><ellipse cx="6.5" cy="13.5" rx="1.5" ry="2" fill="none" stroke="#191919" stroke-linecap="round" stroke-linejoin="round"/><path d="M5.03 17.1a12.13 12.13 0 00-3.26 1.717A1.976 1.976 0 001 20.394V23.5m22 0v-3.106a1.976 1.976 0 00-.77-1.579C20.9 17.8 17.73 16 12 16a23.184 23.184 0 00-4.261.373" fill="none" stroke="#191919" stroke-linecap="round" stroke-linejoin="round"/><path d="M8.083 16.312a4 4 0 007.834 0M13.5 12a2.5 2.5 0 01-3 0" fill="none" stroke="#191919" stroke-linecap="round" stroke-linejoin="round"/><circle cx="14.75" cy="8.5" r="1.75" fill="none" stroke="#191919" stroke-linecap="round" stroke-linejoin="round"/><circle cx="9.25" cy="8.5" r="1.75" fill="none" stroke="#191919" stroke-linecap="round" stroke-linejoin="round"/><path d="M11 8.5h2m2.571 4.5A3.5 3.5 0 0019 9.5v-2a7 7 0 00-14 0v2c0 1.1.672 2 1.5 2h.916" fill="none" stroke="#191919" stroke-linecap="round" stroke-linejoin="round"/></g></svg>
