<svg xmlns="http://www.w3.org/2000/svg" viewBox="0 0 24 24" height="24" width="24"><path d="M17.534 11.394a1.1 1.1 0 00-.59.83c-.49 2.59-3.57 4.28-4.95 4.28s-4.46-1.69-4.95-4.28a1.113 1.113 0 00-.58-.83c-1.09-.48-1.36-2.45-.49-2.89h.64a1 1 0 00.98-.8l.44-.83a1 1 0 011.28-.45 6.709 6.709 0 002.68.58 6.846 6.846 0 002.67-.57 1 1 0 011.29.46l.4.81a1.014 1.014 0 00.98.8h.68c.88.44.6 2.41-.48 2.89z" fill="#874C2C"/><path d="M18.864 2.414l-.85 6.09h-.68a1.014 1.014 0 01-.98-.8l-.4-.81a1 1 0 00-1.29-.46 6.846 6.846 0 01-2.67.57 6.709 6.709 0 01-2.68-.58 1 1 0 00-1.28.45l-.44.83a1 1 0 01-.98.8h-.64l-.85-6.09a1 1 0 01.77-1.12 32.562 32.562 0 016.1-.79 32.562 32.562 0 016.1.79.992.992 0 01.77 1.12z" fill="#111111"/><path d="M17.4 17.584v.01a5.949 5.949 0 01-10.82-.01l1.54-.509a.48.48 0 01.57.189 4 4 0 006.6 0 .48.48 0 01.57-.189c.354.119.914.309 1.54.509z" fill="#c2f3ff"/><path d="M23.494 22.5v1h-23v-1a4.014 4.014 0 012.6-3.75l3.49-1.17a5.949 5.949 0 0010.82.01c1.56.51 3.5 1.16 3.5 1.16a4 4 0 012.59 3.75z" fill="#66e1ff"/><path d="M18.094 1.294a32.562 32.562 0 00-6.1-.79h-.014V7h.014a6.846 6.846 0 002.67-.57 1 1 0 011.29.46l.4.81a1.014 1.014 0 00.98.8h.68l.85-6.09a.991.991 0 00-.77-1.116z" fill="#7d6850"/><path d="M6.584 17.584a6.122 6.122 0 001.31 1.84l-1.31.43-3.49 1.17A4 4 0 00.7 23.5H.494v-1a4.014 4.014 0 012.6-3.75zm16.91 4.916v1h-.21a3.98 3.98 0 00-2.38-2.48s-1.94-.65-3.5-1.159v-.011c-.51-.159-.97-.31-1.31-.43a5.934 5.934 0 001.31-1.83c1.56.51 3.5 1.16 3.5 1.16a4 4 0 012.59 3.75z" fill="#c2f3ff"/><path d="M10.5 13a1.967 1.967 0 001.358.5h.284A1.965 1.965 0 0013.5 13M11 9.5a1.089 1.089 0 00-1-.5 1.089 1.089 0 00-1 .5m6 0a1.089 1.089 0 00-1-.5 1.089 1.089 0 00-1 .5" fill="none" stroke="#191919" stroke-linecap="round" stroke-linejoin="round"/><path d="M12 .5a32.164 32.164 0 016.1.793 1 1 0 01.776 1.116L18.02 8.5c.875.438.6 2.407-.485 2.892a1.1 1.1 0 00-.582.824C16.46 14.814 13.377 16.5 12 16.5s-4.46-1.686-4.953-4.284a1.1 1.1 0 00-.582-.824c-1.087-.485-1.36-2.454-.485-2.892l-.853-6.091A1 1 0 015.9 1.293 32.164 32.164 0 0112 .5z" fill="none" stroke="#191919" stroke-linecap="round" stroke-linejoin="round"/><path d="M18.022 8.5h-.68a1 1 0 01-.981-.8l-.406-.8a1 1 0 00-1.286-.466A6.851 6.851 0 0112 7a6.873 6.873 0 01-2.684-.576 1 1 0 00-1.279.447L7.6 7.7a1 1 0 01-.981.8h-.68M12 .5V4M8.063.881L8.5 3.5M15.937.881L15.5 3.5m8 20v-1a4 4 0 00-2.6-3.745l-5.03-1.689a.5.5 0 00-.572.192 4 4 0 01-6.6 0 .5.5 0 00-.572-.191L3.1 18.755A4 4 0 00.5 22.5v1M17.409 17.582a5.945 5.945 0 01-10.818 0" fill="none" stroke="#191919" stroke-linecap="round" stroke-linejoin="round"/></svg>
