<svg xmlns="http://www.w3.org/2000/svg" viewBox="0 0 24 24" height="24" width="24"><path d="M15.77 15.65a.506.506 0 01-.78-.42v-.04c-.2-7.04-3.04-7.951-4.9-9.83A5.485 5.485 0 018.5 1.21 7.759 7.759 0 0112.01.5h.01c10.73 0 7.5 12.7 3.75 15.15z" fill="#c77f67"/><path d="M10.09 5.36A6.027 6.027 0 015.9 7.489c-.21-2.219.07-5 2.6-6.279a5.485 5.485 0 001.59 4.15z" fill="#c77f67"/><path d="M14.99 15.19a5.479 5.479 0 01-2.97 1.31c-1.39 0-4.49-1.721-4.93-4.36a1.022 1.022 0 00-.57-.75c-1.08-.49-1.35-2.45-.48-2.89-.05-.32-.1-.66-.14-1.011a6.027 6.027 0 004.19-2.129c1.86 1.879 4.7 2.79 4.9 9.83z" fill="#F9AD73"/><path d="M19.24 8.7c-.43-3.01-2.44-5.53-7.22-5.53h-.01a8.272 8.272 0 00-3.06.51 6.9 6.9 0 01-.45-2.47A7.759 7.759 0 0112.01.5h.01c6.15 0 7.71 4.17 7.22 8.2z" fill="#e3bfb3"/><path d="M8.95 3.68a4.684 4.684 0 00-.45.2 4.738 4.738 0 00-2.53 3.6.17.17 0 01-.07.01c-.21-2.22.07-5 2.6-6.28a6.9 6.9 0 00.45 2.47z" fill="#e3bfb3"/><path d="M23.5 22.5v1H.5v-1a3.977 3.977 0 012.6-3.74l4.4-1.48v3.03a.5.5 0 00.66.47L12 19.5l3.84 1.28a.5.5 0 00.66-.47v-3.03l4.4 1.48a3.977 3.977 0 012.6 3.74z" fill="#66e1ff"/><path d="M12 19.5l-3.84 1.28a.5.5 0 01-.66-.47v-3.03l.94-.32zm4.5-2.22v3.03a.5.5 0 01-.66.47L12 19.5l3.56-2.54z" fill="#fff"/><path d="M3.1 18.759l4.4-1.479v2.2l-4.4 1.489A3.939 3.939 0 00.69 23.5H.5v-1a3.977 3.977 0 012.6-3.741zM23.5 22.5v1h-.19a3.939 3.939 0 00-2.41-2.53l-4.4-1.49v-2.2l4.4 1.479a3.977 3.977 0 012.6 3.741z" fill="#c2f3ff"/><path d="M10.5 13a1.967 1.967 0 001.358.5h.284M11 9a1.089 1.089 0 00-1-.5A1.089 1.089 0 009 9M12.02.5h-.012a7.709 7.709 0 00-3.508.712c.118 6.572 6.207 3.556 6.488 14.023a.5.5 0 00.781.414C19.517 13.2 22.746.5 12.02.5zM5.905 7.486a5.984 5.984 0 004.187-2.125" fill="none" stroke="#191919" stroke-linecap="round" stroke-linejoin="round"/><path d="M8.5 1.212C5.568 2.7 5.657 6.2 6.039 8.5c-.871.437-.6 2.4.478 2.889a1 1 0 01.572.746c.441 2.644 3.544 4.365 4.931 4.365a3.352 3.352 0 001.116-.241M23.5 23.5v-1a4 4 0 00-2.6-3.745l-5.344-1.795m-7.112 0L3.1 18.755A4 4 0 00.5 22.5v1" fill="none" stroke="#191919" stroke-linecap="round" stroke-linejoin="round"/><path d="M7.5 17.277v3.029a.5.5 0 00.658.475L12 19.5l-3.556-2.54m8.056.317v3.029a.5.5 0 01-.658.475L12 19.5l3.556-2.54M12 23.5v-4m5.5 4h2" fill="none" stroke="#191919" stroke-linecap="round" stroke-linejoin="round"/></svg>
