<svg xmlns="http://www.w3.org/2000/svg" viewBox="0 0 24 24" height="24" width="24"><g><path d="M8.5 15.982v.237a1 1 0 01-.71.957L3.1 18.752A4 4 0 00.5 22.5v1h23v-1a4 4 0 00-2.6-3.745l-4.69-1.579a1 1 0 01-.71-.957v-.237" fill="gray"/><path d="M17.5 10s-2 2-3 2-1.5-1-2.5-1-1.5 1-2.5 1-3-2-3-2C5.15 5.94 6.24 1.47 10.51.641 10.547 1.98 11.2 3.5 12 3.5s1.46-1.52 1.5-2.859c4.257.829 5.347 5.299 4 9.359z" fill="#ffdda1"/><path d="M13.5.641C13.457 1.98 12.8 3.5 12 3.5S10.55 1.98 10.51.641a8 8 0 012.99 0z" fill="#e3e3e3"/><path d="M20.9 18.752l-4.69-1.576a1 1 0 01-.71-.956v-.238h-7v.238a1 1 0 01-.71.956L3.1 18.752A4 4 0 00.5 22.5v1h.135A3.991 3.991 0 013.1 20.74l4.69-1.575h8.42l4.69 1.575a3.989 3.989 0 012.465 2.76h.135v-1a4 4 0 00-2.6-3.748z" fill="#b2b2b2"/><circle cx="9.25" cy="7.497" r="1.75" fill="#66e1ff"/><circle cx="14.75" cy="7.497" r="1.75" fill="#66e1ff"/><path d="M12 17c-6.5 0-5.5-7-5.5-7s2 2 3 2 1.5-1 2.5-1 1.5 1 2.5 1 3-2 3-2 1 7-5.5 7z" fill="#e3e3e3"/><path d="M23.5 23.5v-1a4 4 0 00-2.6-3.745l-4.69-1.576a1 1 0 01-.71-.957v-.237m-7 0v.237a1 1 0 01-.71.957L3.1 18.755A4 4 0 00.5 22.5v1m17-13.5C19 5.5 17.5.5 12 .5s-7 5-5.5 9.5m4 3.5a1.967 1.967 0 001.358.5h.284a1.965 1.965 0 001.358-.5" fill="none" stroke="#191919" stroke-linecap="round" stroke-linejoin="round"/><path d="M12 17c6.5 0 5.5-7 5.5-7s-2 2-3 2-1.5-1-2.5-1-1.5 1-2.5 1-3-2-3-2-1 7 5.5 7zM10.5.64c.043 1.348.7 2.86 1.5 2.86s1.455-1.512 1.5-2.86" fill="none" stroke="#191919" stroke-linecap="round" stroke-linejoin="round"/><circle cx="9.25" cy="7.5" r="1.75" fill="none" stroke="#191919" stroke-linecap="round" stroke-linejoin="round"/><circle cx="14.75" cy="7.5" r="1.75" fill="none" stroke="#191919" stroke-linecap="round" stroke-linejoin="round"/><path d="M11 7.5h2m3.5 0H19m-11.5 0H5" fill="none" stroke="#191919" stroke-linecap="round" stroke-linejoin="round"/></g></svg>