<svg xmlns="http://www.w3.org/2000/svg" viewBox="0 0 24 24" height="24" width="24"><path d="M17.39 18.58v.01a5.949 5.949 0 01-10.82-.01l1.54-.51a.48.48 0 01.57.19 4 4 0 006.6 0 .48.48 0 01.57-.19c.35.119.91.31 1.54.51z" fill="#ff808c"/><path d="M23.5 23.5H.5a4.014 4.014 0 012.6-3.75l3.49-1.17a5.949 5.949 0 0010.82.01c1.56.51 3.5 1.16 3.5 1.16a4 4 0 012.59 3.75z" fill="#e3e3e3"/><path d="M18 10.55c-.29 2.9-3.17 6.95-6.02 6.95-2.77 0-5.52-3.771-5.98-6.63v-.02a1.434 1.434 0 001.4-1.14L7.94 7c4 0 4-2 4-2h.08s0 2 4 2l.46 2.31A1.552 1.552 0 0018 10.55z" fill="#FCDCD2"/><path d="M19 7.5h-1v3.05a1.552 1.552 0 01-1.52-1.24L16.02 7c-4 0-4-2-4-2h-.08s0 2-4 2L7.4 9.71A1.434 1.434 0 016 10.85V7.5H5a7 7 0 0114 0z" fill="#c77f67"/><path d="M6 7.5v6H4.5a2.006 2.006 0 01-2-2v-2a2 2 0 012-2zm15.5 2v2a2 2 0 01-2 2H18v-6h1.5a1.993 1.993 0 012 2z" fill="gray"/><path d="M12 3.024A6.989 6.989 0 0118.524 7.5H19a7 7 0 00-14 0h.477A7 7 0 0112 3.024z" fill="#e3bfb3"/><path d="M23.5 23.5h-.81a3.947 3.947 0 00-1.78-1.35s-3.61-1.21-4.94-1.62a5.994 5.994 0 001.44-1.94c1.56.51 3.5 1.16 3.5 1.16a4 4 0 012.59 3.75zm-15.49-3L3.1 22.15a3.947 3.947 0 00-1.78 1.35H.5a4.014 4.014 0 012.6-3.75l3.49-1.17a5.755 5.755 0 001.42 1.92z" fill="#fff"/><path d="M16.361 8.7l-.34-1.7c-4 0-4-2-4-2h-.083s0 2-4 2L7.6 8.7m2.9 5.3a1.967 1.967 0 001.358.5h.284A1.965 1.965 0 0013.5 14M11 10a1.089 1.089 0 00-1-.5 1.089 1.089 0 00-1 .5m6 0a1.089 1.089 0 00-1-.5 1.089 1.089 0 00-1 .5m10.5 13.5a4 4 0 00-2.6-3.745l-5.03-1.689a.5.5 0 00-.572.192 4 4 0 01-6.6 0 .5.5 0 00-.571-.191L3.1 19.755A4 4 0 00.5 23.5" fill="none" stroke="#191919" stroke-linecap="round" stroke-linejoin="round"/><path d="M17.409 18.582a5.945 5.945 0 01-10.818 0M6 10.868c.456 2.86 3.211 6.632 5.98 6.632 2.85 0 5.724-4.053 6.02-6.945M5 7.5a7 7 0 0114 0m-13 6H4.5a2 2 0 01-2-2v-2a2 2 0 012-2H6zm12 0h1.5a2 2 0 002-2v-2a2 2 0 00-2-2H18z" fill="none" stroke="#191919" stroke-linecap="round" stroke-linejoin="round"/></svg>
