<svg xmlns="http://www.w3.org/2000/svg" viewBox="0 0 24 24" height="24" width="24"><path d="M5 18.857V23.5H1v-1.36a1.961 1.961 0 01.77-1.58A11.7 11.7 0 015 18.857z" fill="#ffdda1"/><path d="M19 18.857V23.5H5v-4.64a15.549 15.549 0 012.51-.69 4.505 4.505 0 008.97 0 15.685 15.685 0 012.52.687z" fill="gray"/><path d="M23 22.137V23.5h-4v-4.64a12.142 12.142 0 013.23 1.7 1.99 1.99 0 01.77 1.577zm-6.52-3.97a4.505 4.505 0 01-8.97 0 22.557 22.557 0 014.49-.42 22.377 22.377 0 014.48.42zM5 18.857v2.96A11.525 11.525 0 001.8 23.5H1v-1.36a1.962 1.962 0 01.77-1.58A11.7 11.7 0 015 18.857z" fill="#ffdda1"/><path d="M7.51 18.17a4.466 4.466 0 001.29 2.74c-.45.06-.88.14-1.29.22a15.549 15.549 0 00-2.51.69v-2.96a15.549 15.549 0 012.51-.69zm11.49.69v2.96a15.685 15.685 0 00-2.52-.69c-.4-.08-.83-.16-1.28-.22a4.455 4.455 0 001.28-2.74 15.685 15.685 0 012.52.69z" fill="#b2b2b2"/><path d="M23 22.14v1.36h-.8a11.961 11.961 0 00-3.2-1.68v-2.96a12.142 12.142 0 013.23 1.7 1.99 1.99 0 01.77 1.58zm-6.52-3.97a4.455 4.455 0 01-1.28 2.74 23.962 23.962 0 00-3.2-.2 23.962 23.962 0 00-3.2.2 4.466 4.466 0 01-1.29-2.74 22.557 22.557 0 014.49-.42 22.377 22.377 0 014.48.42zM18 8.5a5.986 5.986 0 01-2.6 4.94 3.363 3.363 0 00-3.4-1.93 3.363 3.363 0 00-3.4 1.93A5.986 5.986 0 016 8.5s1.5-1 6-1 6 1 6 1z" fill="#ffdda1"/><path d="M18 6.5v2s-1.5-1-6-1-6 1-6 1v-2a6 6 0 0112 0zM5.358 8c.576-.7-.668-2.48-2.5-2.57a.5.5 0 00-.51.62c.438 1.779 2.424 2.658 3 1.96z" fill="#ff808c"/><path d="M5.358 8.669c.576.7-.668 2.481-2.5 2.57a.5.5 0 01-.51-.619c.438-1.779 2.424-2.659 3-1.96z" fill="#ff808c"/><path d="M16.007 18.5a.507.507 0 01-.75.43c-2.54-1.539-.02-5.17-3.26-5.17s-.75 3.64-3.26 5.17A.5.5 0 018 18.49a12.292 12.292 0 01.6-5.05 3.363 3.363 0 013.4-1.93 3.363 3.363 0 013.4 1.93 12.406 12.406 0 01.607 5.06z" fill="#e3e3e3"/><path d="M12 .5a6 6 0 00-6 6v2s.032-.021.092-.053a5.994 5.994 0 0111.816 0c.06.032.092.053.092.053v-2a5.992 5.992 0 00-6-6z" fill="#ffbfc5"/><path d="M6 18.587a12.84 12.84 0 00-4.23 2.031A1.98 1.98 0 001 22.2v1.3m22 0v-1.3a1.98 1.98 0 00-.77-1.58 13.178 13.178 0 00-4.73-2.17m1.5.463V23.5M5 18.913V23.5m1-15s1.5-1 6-1 6 1 6 1" fill="none" stroke="#191919" stroke-linecap="round" stroke-linejoin="round"/><path d="M15.4 13.444A6 6 0 0018 8.5v-2a6 6 0 00-12 0v2a6 6 0 002.6 4.944M5.358 8c.575-.7-.668-2.48-2.5-2.57a.5.5 0 00-.51.619c.438 1.78 2.424 2.659 3 1.961z" fill="none" stroke="#191919" stroke-linecap="round" stroke-linejoin="round"/><path d="M5.358 8.672c.575.7-.668 2.481-2.5 2.57a.5.5 0 01-.51-.619c.438-1.78 2.424-2.659 3-1.96zM12 11.516c-4.1 0-4.039 3.8-4 6.98a.5.5 0 00.744.434c2.5-1.529.031-5.164 3.261-5.164s.717 3.631 3.262 5.166a.5.5 0 00.743-.434c.03-3.167.097-6.982-4.01-6.982zM9.2 21.3a4.423 4.423 0 005.6 0M11 9.5a1.089 1.089 0 00-1-.5 1.089 1.089 0 00-1 .5m6 0a1.089 1.089 0 00-1-.5 1.089 1.089 0 00-1 .5" fill="none" stroke="#191919" stroke-linecap="round" stroke-linejoin="round"/></svg>