<svg xmlns="http://www.w3.org/2000/svg" viewBox="0 0 24 24" height="24" width="24"><g transform="matrix(1,0,0,1,0,0)"><defs><style>.c{fill:#e3e3e3}.e{fill:#66e1ff}.f{fill:none;stroke:#191919;stroke-linecap:round;stroke-linejoin:round}</style></defs><path d="M8.5 15.982v.237a1 1 0 0 1-.71.957L3.1 18.752A4 4 0 0 0 .5 22.5v1h23v-1a4 4 0 0 0-2.6-3.745l-4.69-1.579a1 1 0 0 1-.71-.957v-.237" style="fill:gray"></path><path d="M17.5 10s-2 2-3 2-1.5-1-2.5-1-1.5 1-2.5 1-3-2-3-2C5.15 5.94 6.24 1.47 10.51.641 10.547 1.98 11.2 3.5 12 3.5s1.46-1.52 1.5-2.859c4.257.829 5.347 5.299 4 9.359z" style="fill:#ffdda1"></path><path class="c" d="M13.5.641C13.457 1.98 12.8 3.5 12 3.5S10.55 1.98 10.51.641a8 8 0 0 1 2.99 0z"></path><path d="m20.9 18.752-4.69-1.576a1 1 0 0 1-.71-.956v-.238h-7v.238a1 1 0 0 1-.71.956L3.1 18.752A4 4 0 0 0 .5 22.5v1h.135A3.991 3.991 0 0 1 3.1 20.74l4.69-1.575h8.42l4.69 1.575a3.989 3.989 0 0 1 2.465 2.76h.135v-1a4 4 0 0 0-2.6-3.748z" style="fill:#b2b2b2"></path><circle class="e" cx="9.25" cy="7.497" r="1.75"></circle><circle class="e" cx="14.75" cy="7.497" r="1.75"></circle><path class="c" d="M12 17c-6.5 0-5.5-7-5.5-7s2 2 3 2 1.5-1 2.5-1 1.5 1 2.5 1 3-2 3-2 1 7-5.5 7z"></path><path class="f" d="M23.5 23.5v-1a4 4 0 0 0-2.6-3.745l-4.69-1.576a1 1 0 0 1-.71-.957v-.237m-7 0v.237a1 1 0 0 1-.71.957L3.1 18.755A4 4 0 0 0 .5 22.5v1m17-13.5C19 5.5 17.5.5 12 .5s-7 5-5.5 9.5m4 3.5a1.967 1.967 0 0 0 1.358.5h.284a1.965 1.965 0 0 0 1.358-.5"></path><path class="f" d="M12 17c6.5 0 5.5-7 5.5-7s-2 2-3 2-1.5-1-2.5-1-1.5 1-2.5 1-3-2-3-2-1 7 5.5 7zM10.5.64c.043 1.348.7 2.86 1.5 2.86s1.455-1.512 1.5-2.86"></path><circle class="f" cx="9.25" cy="7.5" r="1.75"></circle><circle class="f" cx="14.75" cy="7.5" r="1.75"></circle><path class="f" d="M11 7.5h2m3.5 0H19m-11.5 0H5"></path></g></svg>