<svg xmlns="http://www.w3.org/2000/svg" viewBox="0 0 24 24" height="24" width="24"><g transform="matrix(1,0,0,1,0,0)"><defs><style>.a{fill:#ffdda1}.a,.b,.c{stroke:#191919;stroke-linecap:round;stroke-linejoin:round}.b{fill:none}.c{fill:gray}</style></defs><path class="a" d="M18 7.5v3a6 6 0 0 1-12 0v-3s1.5 1 6 1 6-1 6-1z"></path><path class="b" d="M13.5 13a2.5 2.5 0 0 1-3 0m3.5-2.75a.25.25 0 1 1-.25.25.25.25 0 0 1 .25-.25m-4 0a.25.25 0 1 1-.25.25.25.25 0 0 1 .25-.25"></path><path class="c" d="M18 4.14V7.5s-1.5 1-6 1-6-1-6-1V4.14l5.78 1.31a1.087 1.087 0 0 0 .44 0z"></path><path d="m21.93 3.24-3.93.9-5.78 1.31a1.087 1.087 0 0 1-.44 0L6 4.14l-3.93-.9a.245.245 0 0 1 0-.48L11.78.55a1.087 1.087 0 0 1 .44 0l9.71 2.21a.245.245 0 0 1 0 .48z" style="fill:#b2b2b2;stroke:#191919;stroke-linecap:round;stroke-linejoin:round"></path><path class="b" d="M2 3.216v5.282"></path><path class="c" d="M3 12.5a7.17 7.17 0 0 0-1-4 7.17 7.17 0 0 0-1 4z"></path><path d="M23 23.5v-1.106a1.976 1.976 0 0 0-.77-1.579C20.9 19.8 17.73 18 12 18s-8.895 1.8-10.23 2.815A1.976 1.976 0 0 0 1 22.394V23.5" style="fill:gray"></path><path d="M22.23 20.814C20.9 19.8 17.73 18 12 18s-8.895 1.8-10.23 2.814a1.98 1.98 0 0 0-.77 1.58V23.5h1.512C4.13 22.486 7.139 21.2 12 21.2s7.87 1.291 9.488 2.3H23v-1.106a1.98 1.98 0 0 0-.77-1.58z" style="fill:#b2b2b2"></path><path class="b" d="m17.17 18.569-4.825 4.6a.5.5 0 0 1-.69 0l-4.825-4.6"></path><path class="b" d="M23 23.5v-1.106a1.976 1.976 0 0 0-.77-1.579C20.9 19.8 17.73 18 12 18s-8.895 1.8-10.23 2.815A1.976 1.976 0 0 0 1 22.394V23.5"></path><path class="a" d="m17.17 18.57-4.82 4.6a.5.5 0 0 1-.7 0l-4.82-4.6A22.2 22.2 0 0 1 12 18a22.2 22.2 0 0 1 5.17.57z"></path></g></svg>