<svg xmlns="http://www.w3.org/2000/svg" viewBox="0 0 24 24" height="24" width="24"><g transform="matrix(1,0,0,1,0,0)"><defs><style>.a{fill:#ffdda1}.b{fill:#c2f3ff}.d,.i{fill:none}.i{stroke:#191919;stroke-linecap:round;stroke-linejoin:round}</style></defs><path class="a" d="m13.234 16.23 2.636.862s.92.3 1.54.51a5.949 5.949 0 0 1-10.82.01l4.115-1.391M4.5 18.313v5.21h-4v-1a3.978 3.978 0 0 1 2.6-3.741zm19 4.187v1h-4v-5.21c.8.27 1.4.47 1.4.47a3.977 3.977 0 0 1 2.6 3.74z"></path><path class="b" d="M19.5 18.29v5.21h-15v-5.21l2.09-.7a5.949 5.949 0 0 0 10.82-.01c.68.23 1.45.49 2.09.71z"></path><path d="M5.867 10a5.65 5.65 0 0 1-2.082 3.72.5.5 0 0 0-.048.838 4.43 4.43 0 0 0 2.913.931 7.82 7.82 0 0 0 5.358-2.5M18.184 10a5.65 5.65 0 0 0 2.082 3.72.5.5 0 0 1 .047.838 4.426 4.426 0 0 1-2.913.931 7.82 7.82 0 0 1-5.358-2.5" style="fill:#c77f67"></path><path class="a" d="M11.976 16.525c1.391 0 4.5-1.721 4.947-4.364a1 1 0 0 1 .574-.747c1.081-.49 1.352-2.452.479-2.889.5-2.985-.52-8-6-8s-6.5 5.015-6 8c-.873.437-.6 2.4.479 2.889a1 1 0 0 1 .574.747c.443 2.639 3.555 4.364 4.947 4.364z"></path><path class="d" d="M23.5 23.5v-1a4 4 0 0 0-2.6-3.745l-5.03-1.689a.5.5 0 0 0-.572.192 4 4 0 0 1-6.6 0 .5.5 0 0 0-.572-.191l-5.03 1.688A4 4 0 0 0 .5 22.5v1"></path><path class="d" d="M17.405 17.584a5.945 5.945 0 0 1-10.818 0"></path><path d="M18.07 6.5H5.89c.18-2.811 1.71-6 6.09-6s5.9 3.189 6.09 6z" style="fill:#ff808c"></path><path d="M11.98 3.581A5.51 5.51 0 0 1 17.237 6.5h.833c-.19-2.811-1.72-6-6.09-6s-5.91 3.189-6.09 6h.826a5.512 5.512 0 0 1 5.264-2.919z" style="fill:#ffbfc5"></path><path class="a" d="M17.41 17.59a6.079 6.079 0 0 1-1.3 1.82l-2.82-.95-2.56-.01-2.84.96a6.079 6.079 0 0 1-1.3-1.82l4.14-1.39a3.641 3.641 0 0 0 1.29.31 3.487 3.487 0 0 0 1.27-.3z"></path><path d="M6.59 17.59a6.079 6.079 0 0 0 1.3 1.82l-1.3.44-2.09.709V18.3zm12.91.71v2.259l-2.09-.709-1.3-.44a6.079 6.079 0 0 0 1.3-1.82z" style="fill:#ffffff"></path><path class="a" d="M4.5 18.3v2.259l-1.4.46A3.965 3.965 0 0 0 .71 23.51H.5v-1a3.979 3.979 0 0 1 2.6-3.741zm19 4.21v1h-.21a3.965 3.965 0 0 0-2.39-2.491l-1.4-.46V18.3l1.4.469a3.979 3.979 0 0 1 2.6 3.741z"></path><path d="M6.743 6.5a2.891 2.891 0 0 0 4.694 3.2A2.824 2.824 0 0 0 12 8.889 2.889 2.889 0 0 0 17.255 6.5z" style="fill:#66e1ff"></path><path class="b" d="M6.743 6.5a2.891 2.891 0 0 0 4.694 3.2A2.833 2.833 0 0 0 12 8.89a2.876 2.876 0 0 0 .206.363L14.954 6.5z"></path><path class="i" d="M13 13.836a3.125 3.125 0 0 1-2 0"></path><path class="i" d="M11.98 16.5c1.391 0 4.5-1.721 4.947-4.365a1 1 0 0 1 .574-.746c1.081-.49 1.352-2.452.479-2.889.5-2.986-.521-8-6-8s-6.5 5.014-6 8c-.874.437-.6 2.4.479 2.889a1 1 0 0 1 .574.746c.443 2.644 3.555 4.365 4.947 4.365zm11.52 7v-1a4 4 0 0 0-2.6-3.745l-5.4-1.815m-7 0-5.4 1.815A4 4 0 0 0 .5 22.5v1"></path><path class="i" d="M17.409 17.582a5.945 5.945 0 0 1-10.818 0M4.5 18.29v-.01m15 .01v-.01M6.744 6.5a2.891 2.891 0 0 0 4.693 3.205A2.842 2.842 0 0 0 12 8.889 2.889 2.889 0 0 0 17.256 6.5zM5.71 10.625a5.1 5.1 0 0 1-1.939 3.093.5.5 0 0 0-.041.831 4.427 4.427 0 0 0 2.915.932M18.3 10.516a5.192 5.192 0 0 0 1.969 3.2.5.5 0 0 1 .04.831 4.425 4.425 0 0 1-2.915.932M22 6.5h-4.999m-10.738-2H9m-4.5 19v-5.21m15 0v5.21"></path></g></svg>