<svg viewBox="0 0 20 20" height="20" width="20" xmlns="http://www.w3.org/2000/svg"><g transform="matrix(0.8333333333333334,0,0,0.8333333333333334,0,0)"><path d="M12 6.164L12 22.539" fill="none" stroke="#000000" stroke-linecap="round" stroke-linejoin="round"></path><path d="M9.5,8.164A23.408,23.408,0,0,0,3,6.924" fill="none" stroke="#000000" stroke-linecap="round" stroke-linejoin="round"></path><path d="M9.5,12.424A23.408,23.408,0,0,0,3,11.184" fill="none" stroke="#000000" stroke-linecap="round" stroke-linejoin="round"></path><path d="M9.5,16.664A23.408,23.408,0,0,0,3,15.424" fill="none" stroke="#000000" stroke-linecap="round" stroke-linejoin="round"></path><path d="M14.5,12.424a23.416,23.416,0,0,1,6.5-1.24" fill="none" stroke="#000000" stroke-linecap="round" stroke-linejoin="round"></path><path d="M14.5,16.664a23.416,23.416,0,0,1,6.5-1.24" fill="none" stroke="#000000" stroke-linecap="round" stroke-linejoin="round"></path><path d="M16,2.387a.5.5,0,0,1,.376-.485,23.243,23.243,0,0,1,3.065-.563.5.5,0,0,1,.558.5V9.164l-2-2-2,2Z" fill="none" stroke="#000000" stroke-linecap="round" stroke-linejoin="round"></path><path d="M20,2.8c.638-.06,1.3-.1,1.967-.123a1,1,0,0,1,1.032,1v14.5a1,1,0,0,1-.97,1C16.591,19.34,12,20.838,12,22.664c0-1.826-4.591-3.324-10.03-3.486a1,1,0,0,1-.97-1V3.68a1,1,0,0,1,1.032-1C7.443,2.851,12,4.345,12,6.164c0-.711.7-1.372,1.867-1.924" fill="none" stroke="#000000" stroke-linecap="round" stroke-linejoin="round"></path></g></svg>