<svg viewBox="0 0 20 20" height="20" width="20" xmlns="http://www.w3.org/2000/svg"><g transform="matrix(0.8333333333333334,0,0,0.8333333333333334,0,0)"><path d="M13.5 23.36L0.5 23.36" fill="none" stroke="#000000" stroke-linecap="round" stroke-linejoin="round"></path><path d="M8.5 23.36L5.5 23.36" fill="none" stroke="#000000" stroke-linecap="round" stroke-linejoin="round"></path><path d="M2.68,23.36v-5a1.277,1.277,0,0,1,.374-.832L5.5,15.36h3l2.315,2.159a1.32,1.32,0,0,1,.365.841v5" fill="none" stroke="#000000" stroke-linecap="round" stroke-linejoin="round"></path><path d="M8,5.36c.275,0,.724.022,1,.05L23.5,6.86v1a.5.5,0,0,1-.5.5H1a.5.5,0,0,1-.5-.5v-1L5.021,5.5A4.1,4.1,0,0,1,6,5.36Z" fill="none" stroke="#000000" stroke-linecap="round" stroke-linejoin="round"></path><path d="M.5,6.86,6.767,1.041a1.714,1.714,0,0,1,1.659-.3L23.5,6.86" fill="none" stroke="#000000" stroke-linecap="round" stroke-linejoin="round"></path><path d="M20.5,8.36v6.708a1,1,0,0,0,.6.917A1.5,1.5,0,1,1,19,17.36" fill="none" stroke="#000000" stroke-linecap="round" stroke-linejoin="round"></path><path d="M5.5 10.36L8.5 13.36" fill="none" stroke="#000000" stroke-linecap="round" stroke-linejoin="round"></path><path d="M8.5 18.36L5.5 21.36" fill="none" stroke="#000000" stroke-linecap="round" stroke-linejoin="round"></path><path d="M12.5 5.76L12.5 8.36" fill="none" stroke="#000000" stroke-linecap="round" stroke-linejoin="round"></path><path d="M7.5 0.682L7.5 5.36" fill="none" stroke="#000000" stroke-linecap="round" stroke-linejoin="round"></path><path d="M8.5 5.375L8.5 23.36" fill="none" stroke="#000000" stroke-linecap="round" stroke-linejoin="round"></path><path d="M5.5 23.36L5.5 5.403" fill="none" stroke="#000000" stroke-linecap="round" stroke-linejoin="round"></path></g></svg>