<svg xmlns="http://www.w3.org/2000/svg" viewBox="0 0 20 20" height="20" width="20"><g transform="matrix(0.8333333333333334,0,0,0.8333333333333334,0,0)"><defs><style>.a{fill:none;stroke:#000000;stroke-linecap:round;stroke-linejoin:round;}</style></defs><path class="a" d="M10.5,4.5a1,1,0,0,1-1-1v-2a1,1,0,0,0-1-1h-7a1,1,0,0,0-1,1v21a1,1,0,0,0,1,1h21a1,1,0,0,0,1-1V4.5Z"></path><path class="a" d="M16.5,1.5a1,1,0,0,0-1-1h-5a1,1,0,0,0-1,1"></path><path class="a" d="M23.5,4.5v-3a1,1,0,0,0-1-1h-5a1,1,0,0,0-1,1v3"></path><rect class="a" x="9" y="8.912" width="11.5" height="3.088"></rect><rect class="a" x="9" y="16.412" width="11.5" height="3.088"></rect><line class="a" x1="4.75" y1="8.5" x2="4.75" y2="12.5"></line><line class="a" x1="3.018" y1="9.5" x2="6.482" y2="11.5"></line><line class="a" x1="3.018" y1="11.5" x2="6.482" y2="9.5"></line><line class="a" x1="4.75" y1="16" x2="4.75" y2="20"></line><line class="a" x1="3.018" y1="17" x2="6.482" y2="19"></line><line class="a" x1="3.018" y1="19" x2="6.482" y2="17"></line></g></svg>