<svg viewBox="0 0 20 20" height="20" width="20" xmlns="http://www.w3.org/2000/svg"><g transform="matrix(0.8333333333333334,0,0,0.8333333333333334,0,0)"><path d="M23.5,22.5a1,1,0,0,1-1,1H1.5a1,1,0,0,1-1-1V1.5a1,1,0,0,1,1-1h21a1,1,0,0,1,1,1Z" fill="none" stroke="#000000" stroke-linecap="round" stroke-linejoin="round"></path><path d="M0.5 12.5L23.5 12.5" fill="none" stroke="#000000" stroke-linecap="round" stroke-linejoin="round"></path><path d="M7.5,23.5h-4V15a.5.5,0,0,1,.5-.5H7a.5.5,0,0,1,.5.5Z" fill="none" stroke="#000000" stroke-linecap="round" stroke-linejoin="round"></path><path d="M13.5 4.5H16.5V12.5H13.5z" fill="none" stroke="#000000" stroke-linecap="round" stroke-linejoin="round"></path><path d="M19.284,12.5,16.162,3.406a.5.5,0,0,1,.311-.635l1.892-.65A.5.5,0,0,1,19,2.432L22.456,12.5" fill="none" stroke="#000000" stroke-linecap="round" stroke-linejoin="round"></path><path d="M13.5,12.5h-4V4a.5.5,0,0,1,.5-.5h3a.5.5,0,0,1,.5.5Z" fill="none" stroke="#000000" stroke-linecap="round" stroke-linejoin="round"></path><path d="M11.5,23.5h-4V15a.5.5,0,0,1,.5-.5h3a.5.5,0,0,1,.5.5Z" fill="none" stroke="#000000" stroke-linecap="round" stroke-linejoin="round"></path><path d="M20.5,23.5h-3V15a.5.5,0,0,1,.5-.5h2a.5.5,0,0,1,.5.5Z" fill="none" stroke="#000000" stroke-linecap="round" stroke-linejoin="round"></path><path d="M17.5,23.5h-3V16a.5.5,0,0,1,.5-.5h2a.5.5,0,0,1,.5.5Z" fill="none" stroke="#000000" stroke-linecap="round" stroke-linejoin="round"></path><path d="M5.5 17.5L5.5 20.5" fill="none" stroke="#000000" stroke-linecap="round" stroke-linejoin="round"></path><path d="M9.5 17.5L9.5 20.5" fill="none" stroke="#000000" stroke-linecap="round" stroke-linejoin="round"></path></g></svg>