<svg xmlns="http://www.w3.org/2000/svg" viewBox="0 0 16 16"><g transform="matrix(0.6666666666666666,0,0,0.6666666666666666,0,0)"><defs><style>.a{fill:none;stroke:currentColor;stroke-linecap:round;stroke-linejoin:round;}</style></defs><title>rotate-vertical</title><polyline class="a" points="23.5 15.5 23.5 16.5 22.5 16.5"></polyline><polyline class="a" points="23.5 1.5 23.5 0.5 22.5 0.5"></polyline><line class="a" x1="23.5" y1="12.5" x2="23.5" y2="13.5"></line><line class="a" x1="23.5" y1="9.5" x2="23.5" y2="10.5"></line><line class="a" x1="23.5" y1="6.5" x2="23.5" y2="7.5"></line><line class="a" x1="23.5" y1="3.5" x2="23.5" y2="4.5"></line><polyline class="a" points="13.5 1.5 13.5 0.5 14.5 0.5"></polyline><line class="a" x1="13.5" y1="12.5" x2="13.5" y2="13.5"></line><line class="a" x1="13.5" y1="9.5" x2="13.5" y2="10.5"></line><line class="a" x1="13.5" y1="6.5" x2="13.5" y2="7.5"></line><line class="a" x1="13.5" y1="3.5" x2="13.5" y2="4.5"></line><line class="a" x1="16.5" y1="0.5" x2="17.5" y2="0.5"></line><line class="a" x1="19.5" y1="0.5" x2="20.5" y2="0.5"></line><line class="a" x1="16.5" y1="16.5" x2="17.5" y2="16.5"></line><line class="a" x1="19.5" y1="16.5" x2="20.5" y2="16.5"></line><rect class="a" x="0.5" y="13.5" width="16" height="10"></rect><path class="a" d="M11.5,3.5h-4a4,4,0,0,0-4,4v4"></path><polyline class="a" points="0.5 8.503 3.5 11.503 6.5 8.503"></polyline><polyline class="a" points="8.5 0.5 11.5 3.5 8.5 6.5"></polyline></g></svg>