<svg xmlns="http://www.w3.org/2000/svg" viewBox="0 0 20 20" height="20" width="20">
  
<g transform="matrix(0.8333333333333334,0,0,0.8333333333333334,0,0)"><g>
    <rect x="1.5" y="6.5" width="21" height="15" rx="2" style="fill: none;stroke: #000000;stroke-linecap: round;stroke-linejoin: round"></rect>
    <line x1="3.5" y1="21.5" x2="3.5" y2="23.5" style="fill: none;stroke: #000000;stroke-linecap: round;stroke-linejoin: round"></line>
    <line x1="20.5" y1="21.5" x2="20.5" y2="23.5" style="fill: none;stroke: #000000;stroke-linecap: round;stroke-linejoin: round"></line>
    <polyline points="6 0.5 12 6.5 18 0.5" style="fill: none;stroke: #000000;stroke-linecap: round;stroke-linejoin: round"></polyline>
    <rect x="4.5" y="8.5" width="15" height="11" rx="3" style="fill: none;stroke: #000000;stroke-linecap: round;stroke-linejoin: round"></rect>
    <path d="M15,14.67a.71.71,0,0,0,0-1.34L10,11.17a.36.36,0,0,0-.32,0,.38.38,0,0,0-.15.29v5a.38.38,0,0,0,.15.29.36.36,0,0,0,.32,0Z" style="fill: none;stroke: #000000;stroke-linecap: round;stroke-linejoin: round"></path>
  </g></g></svg>