<svg xmlns="http://www.w3.org/2000/svg" viewBox="0 0 20 20" height="20" width="20">
  
<g transform="matrix(0.8333333333333334,0,0,0.8333333333333334,0,0)"><g>
    <path d="M5.46,7.23,6.92,5.4A.94.94,0,0,1,8.43,6.51L7,8.73l-.5,4.75c1.52-1.73,5.77-1.73,6.75.31a4.69,4.69,0,1,1,9.37.46c0,9.84-21.12,7-21.12,1.49-.3-1.49,1.31-7.39,2-9.74a4.71,4.71,0,0,1,.94-1.68A3,3,0,0,1,6.67,3.23H8.54a2.35,2.35,0,0,1,2.13,3.31,3,3,0,0,1-2.38,2L7,8.73" style="fill: none;stroke: #000000;stroke-linecap: round;stroke-linejoin: round"></path>
    <line x1="16.46" y1="13.23" x2="18.46" y2="13.23" style="fill: none;stroke: #000000;stroke-linecap: round;stroke-linejoin: round"></line>
    <line x1="17.46" y1="11.73" x2="17.46" y2="16.73" style="fill: none;stroke: #000000;stroke-linecap: round;stroke-linejoin: round"></line>
    <polyline points="15.46 15.73 17.46 16.73 19.46 15.73" style="fill: none;stroke: #000000;stroke-linecap: round;stroke-linejoin: round"></polyline>
  </g></g></svg>