<svg viewBox="0 0 20 20" height="20" width="20" xmlns="http://www.w3.org/2000/svg"><g transform="matrix(0.8333333333333334,0,0,0.8333333333333334,0,0)"><path d="M9,7.5H5.167A1.667,1.667,0,0,0,3.5,9.168V20.5" fill="none" stroke="#000000" stroke-linecap="round" stroke-linejoin="round"></path><path d="M20.5 20.501L20.5 14.001" fill="none" stroke="#000000" stroke-linecap="round" stroke-linejoin="round"></path><path d="M23.5,20.5a3,3,0,0,1-3,3H3.5a3,3,0,0,1-3-3Z" fill="none" stroke="#000000" stroke-linecap="round" stroke-linejoin="round"></path><path d="M16,5.5A1.5,1.5,0,1,1,17.5,7" fill="none" stroke="#000000" stroke-linecap="round" stroke-linejoin="round"></path><path d="M17.5,8.5a.25.25,0,1,1-.25.25.25.25,0,0,1,.25-.25" fill="none" stroke="#000000" stroke-linecap="round" stroke-linejoin="round"></path><path d="M17.433.5A5.954,5.954,0,0,0,11.5,6.567a5.944,5.944,0,0,0,.781,3.193L10.5,13.5l3.741-1.782A6.064,6.064,0,1,0,17.433.5Z" fill="none" stroke="#000000" stroke-linecap="round" stroke-linejoin="round"></path></g></svg>