<?xml version="1.0" encoding="UTF-8" standalone="no"?>
<!DOCTYPE svg PUBLIC "-//W3C//DTD SVG 1.1//EN" "http://www.w3.org/Graphics/SVG/1.1/DTD/svg11.dtd">
<svg width="100%" height="100%" viewBox="0 0 354 264" version="1.1" xmlns="http://www.w3.org/2000/svg" xmlns:xlink="http://www.w3.org/1999/xlink" xml:space="preserve" xmlns:serif="http://www.serif.com/" style="fill-rule:evenodd;clip-rule:evenodd;stroke-linejoin:round;stroke-miterlimit:2;">
    <g id="Artboard1" transform="matrix(0.983803,0,0,1,5.72829,-45.125)">
        <rect x="-5.823" y="45.125" width="359.823" height="263.575" style="fill:none;"/>
        <clipPath id="_clip1">
            <rect x="-5.823" y="45.125" width="359.823" height="263.575"/>
        </clipPath>
        <g clip-path="url(#_clip1)">
            <g transform="matrix(1.01646,0,0,1,-5.64796,0.125047)">
                <path d="M177,221.5L177,187.3C213.2,187.3 241.3,151.4 227.4,113.3C222.3,99.3 211,88 196.9,82.9C158.8,69.1 122.9,97.1 122.9,133.3L88.8,133.3C88.8,75.6 144.6,30.6 205.1,49.5C231.5,57.8 252.6,78.8 260.8,105.2C279.7,165.7 234.7,221.5 177,221.5Z" style="fill:rgb(0,128,255);fill-rule:nonzero;"/>
                <g>
                    <rect x="143" y="153.4" width="34.1" height="34.1" style="fill:rgb(0,128,255);"/>
                    <rect x="116.9" y="187.5" width="26.1" height="26.1" style="fill:rgb(0,128,255);"/>
                    <rect x="95" y="165.6" width="21.9" height="21.9" style="fill:rgb(0,128,255);"/>
                </g>
                <path d="M31.2,256.1C26.8,253 21.2,251.5 14.8,251.5L0.8,251.5L0.8,296L14.9,296C21.3,296 26.9,294.4 31.3,291.1C33.7,289.4 35.6,287 37,284C38.3,281 39,277.4 39,273.5C39,269.6 38.3,266.1 37,263.1C35.6,260.1 33.7,257.7 31.2,256.1ZM9,259L13.4,259C18.3,259 22.3,260 25.4,261.9C28.8,264 30.5,267.9 30.5,273.5C30.5,279.3 28.8,283.4 25.4,285.6C22.5,287.5 18.5,288.5 13.5,288.5L9,288.5L9,259Z" style="fill:rgb(0,128,255);fill-rule:nonzero;"/>
                <path d="M48.7,250.9C47.3,250.9 46.2,251.4 45.2,252.3C44.3,253.2 43.8,254.3 43.8,255.7C43.8,257.1 44.3,258.2 45.2,259.2C46.1,260.1 47.3,260.6 48.7,260.6C50,260.6 51.2,260.1 52.2,259.2C53.1,258.3 53.6,257.1 53.6,255.7C53.6,254.3 53.1,253.2 52.2,252.3C51.2,251.4 50,250.9 48.7,250.9Z" style="fill:rgb(0,128,255);fill-rule:nonzero;"/>
                <rect x="44.7" y="264.6" width="7.9" height="31.4" style="fill:rgb(0,128,255);fill-rule:nonzero;"/>
                <path d="M81.3,267.2C78.9,265.1 76.3,263.8 73.4,263.8C69,263.8 65.4,265.3 62.6,268.3C59.8,271.2 58.3,275 58.3,279.6C58.3,284 59.7,287.8 62.5,290.8C65.3,293.7 69,295.2 73.3,295.2C76.3,295.2 79,294.4 81.1,292.7L81.1,293.4C81.1,296 80.4,298 79,299.4C77.6,300.8 75.7,301.5 73.3,301.5C69.7,301.5 67.4,300.1 64.6,296.3L59.2,301.5L59.3,301.7C60.5,303.3 62.2,304.9 64.6,306.4C66.9,307.9 69.9,308.7 73.4,308.7C78.1,308.7 81.9,307.3 84.7,304.4C87.5,301.5 88.9,297.7 88.9,293L88.9,264.5L81.1,264.5L81.1,267.2L81.3,267.2ZM79.2,285.8C77.8,287.4 76,288.1 73.8,288.1C71.5,288.1 69.8,287.3 68.4,285.8C67,284.2 66.4,282.2 66.4,279.7C66.4,277.1 67.1,275.1 68.4,273.5C69.7,271.9 71.6,271.2 73.8,271.2C76.1,271.2 77.8,272 79.2,273.5C80.6,275.1 81.3,277.2 81.3,279.7C81.3,282.2 80.6,284.2 79.2,285.8Z" style="fill:rgb(0,128,255);fill-rule:nonzero;"/>
                <rect x="95.8" y="264.6" width="7.9" height="31.4" style="fill:rgb(0,128,255);fill-rule:nonzero;"/>
                <path d="M99.8,250.9C98.4,250.9 97.3,251.4 96.3,252.3C95.4,253.2 94.9,254.3 94.9,255.7C94.9,257.1 95.4,258.2 96.3,259.2C97.2,260.1 98.4,260.6 99.8,260.6C101.1,260.6 102.3,260.1 103.3,259.2C104.2,258.3 104.7,257.1 104.7,255.7C104.7,254.3 104.2,253.2 103.3,252.3C102.3,251.4 101.2,250.9 99.8,250.9Z" style="fill:rgb(0,128,255);fill-rule:nonzero;"/>
                <path d="M121,256.1L113.2,256.1L113.2,264.6L108.7,264.6L108.7,271.8L113.2,271.8L113.2,284.8C113.2,288.9 114,291.8 115.6,293.5C117.2,295.2 120.1,296 124.1,296C125.4,296 126.7,296 127.9,295.9L128.3,295.9L128.3,288.7L125.6,288.8C123.7,288.8 122.5,288.5 121.9,287.8C121.3,287.1 121,285.7 121,283.6L121,271.7L128.4,271.7L128.4,264.5L121,264.5L121,256.1Z" style="fill:rgb(0,128,255);fill-rule:nonzero;"/>
                <rect x="165.4" y="251.4" width="7.9" height="44.6" style="fill:rgb(0,128,255);fill-rule:nonzero;"/>
                <path d="M253.1,284.8C251.7,286.4 250.2,287.8 249.1,288.5C248,289.2 246.6,289.6 245,289.6C242.7,289.6 240.8,288.8 239.3,287C237.8,285.3 237,283 237,280.4C237,277.7 237.8,275.5 239.3,273.8C240.8,272.1 242.7,271.2 245,271.2C247.5,271.2 250.2,272.8 252.5,275.5L257.7,270.5C254.3,266.1 250,264 244.8,264C240.5,264 236.7,265.6 233.6,268.7C230.5,271.8 229,275.7 229,280.4C229,285.1 230.6,289 233.6,292.1C236.7,295.2 240.4,296.8 244.8,296.8C250.5,296.8 255.1,294.3 258.3,289.8L253.1,284.8Z" style="fill:rgb(0,128,255);fill-rule:nonzero;"/>
                <path d="M285.6,269C284.5,267.4 283,266.2 281.1,265.3C279.2,264.4 277,263.9 274.6,263.9C270.2,263.9 266.6,265.5 263.9,268.7C261.3,271.9 259.9,275.8 259.9,280.5C259.9,285.3 261.4,289.2 264.2,292.2C267.1,295.2 270.9,296.7 275.6,296.7C280.9,296.7 285.3,294.5 288.6,290.3L288.8,290.1L283.6,285.1C283.1,285.7 282.4,286.3 281.8,286.9C281,287.6 280.3,288.2 279.5,288.6C278.3,289.2 277,289.5 275.5,289.5C273.3,289.5 271.5,288.9 270.1,287.6C268.8,286.4 268,284.8 267.8,282.8L288.7,282.8L288.8,279.9C288.8,277.9 288.5,275.9 288,274.1C287.5,272.3 286.7,270.6 285.6,269ZM268.3,276.4C268.7,274.9 269.4,273.6 270.4,272.7C271.5,271.6 272.9,271.1 274.5,271.1C276.4,271.1 277.9,271.6 278.9,272.7C279.8,273.7 280.4,274.9 280.5,276.4L268.3,276.4Z" style="fill:rgb(0,128,255);fill-rule:nonzero;"/>
                <path d="M315.9,267C313.5,265 310.2,263.9 306.1,263.9C303.5,263.9 301,264.5 298.8,265.6C296.7,266.6 294.7,268.4 293.4,270.6L293.5,270.7L298.6,275.5C300.7,272.2 303,271 306.1,271C307.8,271 309.1,271.4 310.2,272.3C311.2,273.2 311.8,274.3 311.8,275.7L311.8,277.2C309.8,276.6 307.9,276.3 306,276.3C302.1,276.3 298.9,277.2 296.5,279C294.1,280.8 292.9,283.5 292.9,286.9C292.9,289.9 293.9,292.2 296,294C298.1,295.7 300.6,296.6 303.6,296.6C306.6,296.6 309.4,295.4 312,293.3L312,295.9L319.8,295.9L319.8,275.7C319.5,272 318.3,269 315.9,267ZM301.9,284C302.8,283.4 304.1,283.1 305.7,283.1C307.6,283.1 309.6,283.5 311.7,284.2L311.7,287.3C310,288.9 307.7,289.7 304.9,289.7C303.5,289.7 302.5,289.4 301.7,288.8C301,288.2 300.6,287.5 300.6,286.5C300.6,285.4 301,284.6 301.9,284Z" style="fill:rgb(0,128,255);fill-rule:nonzero;"/>
                <path d="M349.9,267.6C347.7,265.1 344.6,263.9 340.7,263.9C337.6,263.9 335,264.8 333.1,266.6L333.1,264.7L325.4,264.7L325.4,296L333.3,296L333.3,278.7C333.3,276.3 333.9,274.4 335,273.1C336.1,271.8 337.6,271.1 339.7,271.1C341.5,271.1 342.8,271.7 343.8,272.9C344.8,274.1 345.3,275.8 345.3,277.8L345.3,296L353.2,296L353.2,277.8C353.2,273.5 352.1,270 349.9,267.6Z" style="fill:rgb(0,128,255);fill-rule:nonzero;"/>
                <path d="M155.5,267C153.1,265 149.8,263.9 145.7,263.9C143.1,263.9 140.6,264.5 138.4,265.6C136.3,266.6 134.3,268.4 133,270.6L133.1,270.7L138.2,275.5C140.3,272.2 142.6,271 145.7,271C147.4,271 148.7,271.4 149.8,272.3C150.8,273.2 151.4,274.3 151.4,275.7L151.4,277.2C149.4,276.6 147.5,276.3 145.6,276.3C141.7,276.3 138.5,277.2 136.1,279C133.7,280.8 132.5,283.5 132.5,286.9C132.5,289.9 133.5,292.2 135.6,294C137.7,295.7 140.2,296.6 143.2,296.6C146.2,296.6 149,295.4 151.6,293.3L151.6,295.9L159.4,295.9L159.4,275.7C159.1,272 157.9,269 155.5,267ZM141.5,284C142.4,283.4 143.7,283.1 145.3,283.1C147.2,283.1 149.2,283.5 151.3,284.2L151.3,287.3C149.6,288.9 147.3,289.7 144.5,289.7C143.1,289.7 142.1,289.4 141.3,288.8C140.6,288.2 140.2,287.5 140.2,286.5C140.2,285.4 140.6,284.6 141.5,284Z" style="fill:rgb(0,128,255);fill-rule:nonzero;"/>
                <path d="M202,296.7C189.3,296.7 179,286.4 179,273.7C179,261 189.3,250.7 202,250.7C214.7,250.7 225,261 225,273.7C225,286.4 214.7,296.7 202,296.7ZM202,258.8C193.8,258.8 187.1,265.5 187.1,273.7C187.1,281.9 193.8,288.6 202,288.6C210.2,288.6 216.9,281.9 216.9,273.7C216.9,265.5 210.2,258.8 202,258.8Z" style="fill:rgb(0,128,255);fill-rule:nonzero;"/>
            </g>
        </g>
    </g>
</svg>
