<svg width="84" height="67" viewBox="0 0 84 67" fill="none" xmlns="http://www.w3.org/2000/svg">
<path d="M82.3149 27.7342C80.2717 26.3679 74.9027 25.7844 70.9993 26.8288C70.7888 22.9664 68.7843 19.7116 65.1167 16.8718L63.7591 15.9664L62.8543 17.3239C61.0756 20.0061 60.3263 23.5795 60.5919 26.8277C60.8012 28.829 61.5021 31.0787 62.8543 32.711C57.774 35.6385 53.0915 34.9739 32.3537 34.9739H0.335557C0.241886 39.6256 0.994566 48.5743 6.72287 55.859C7.35543 56.6637 8.0497 57.442 8.80238 58.192C13.4595 62.8251 20.4959 66.2222 31.018 66.232C47.07 66.2462 60.8233 57.6271 69.1887 36.7858C71.9416 36.8307 79.2083 37.2762 82.7645 30.4492C82.8516 30.3343 83.6693 28.6385 83.6693 28.6385L82.3138 27.7331L82.3149 27.7342ZM21.231 23.4799H12.2275V32.4242H21.231V23.4799ZM32.8628 23.4799H23.8593V32.4242H32.8628V23.4799ZM44.4946 23.4799H35.4911V32.4242H44.4946V23.4799ZM56.1265 23.4799H47.1229V32.4242H56.1265V23.4799ZM9.59914 23.4799H0.595634V32.4242H9.59914V23.4799ZM21.231 12.1829H12.2275V21.1272H21.231V12.1829ZM32.8628 12.1829H23.8593V21.1272H32.8628V12.1829ZM44.4946 12.1829H35.4911V21.1272H44.4946V12.1829ZM44.4946 0.884766H35.4911V9.82909H44.4946V0.884766Z" fill="#1D63ED" style="fill:#1D63ED;fill:color(display-p3 0.1137 0.3882 0.9294);fill-opacity:1;"/>
</svg>
