<svg width="62" height="63" viewBox="0 0 62 63" fill="none" xmlns="http://www.w3.org/2000/svg">
<path fill-rule="evenodd" clip-rule="evenodd" d="M61.762 14.2858C61.7847 14.3693 61.7962 14.4554 61.7964 14.5419V27.984C61.7964 28.1565 61.7508 28.326 61.6641 28.4753C61.5773 28.6245 61.4526 28.7484 61.3025 28.8342L49.9881 35.3298V48.2046C49.9881 48.555 49.8014 48.8785 49.4967 49.0549L25.8788 62.6121C25.8248 62.6427 25.7658 62.6623 25.7068 62.6832C25.6847 62.6905 25.6638 62.704 25.6405 62.7101C25.4754 62.7535 25.3018 62.7535 25.1367 62.7101C25.1097 62.7028 25.0851 62.6881 25.0593 62.6783C25.0053 62.6587 24.9487 62.6415 24.8971 62.6121L1.28419 49.0549C1.13418 48.969 1.00954 48.8451 0.922833 48.6958C0.836121 48.5466 0.790402 48.3772 0.790283 48.2046L0.790283 7.87844C0.790283 7.79023 0.802569 7.70447 0.824685 7.62116C0.832056 7.59298 0.849257 7.56725 0.859086 7.53908C0.877516 7.48762 0.894716 7.43494 0.921746 7.38716C0.940175 7.35531 0.967205 7.32958 0.989321 7.30018C1.01758 7.26097 1.04338 7.22054 1.07655 7.18624C1.10481 7.15806 1.14167 7.13724 1.17361 7.11273C1.20924 7.08333 1.24119 7.05148 1.28173 7.0282L13.0901 0.249583C13.2396 0.1638 13.409 0.118652 13.5815 0.118652C13.754 0.118652 13.9235 0.1638 14.073 0.249583L25.88 7.0282H25.8825C25.9218 7.0527 25.955 7.08333 25.9906 7.11151C26.0226 7.13601 26.0582 7.15806 26.0865 7.18502C26.1209 7.22054 26.1454 7.26097 26.1749 7.30018C26.1958 7.32958 26.2241 7.35531 26.2413 7.38716C26.2695 7.43617 26.2855 7.48762 26.3051 7.53908C26.315 7.56725 26.3322 7.59298 26.3395 7.62239C26.3622 7.70587 26.3737 7.79195 26.3739 7.87844V33.0658L36.2128 27.4167V14.5407C36.2128 14.4549 36.2251 14.3679 36.2472 14.2858C36.2558 14.2564 36.2718 14.2307 36.2816 14.2025C36.3012 14.1511 36.3184 14.0984 36.3455 14.0506C36.3639 14.0188 36.3909 13.993 36.4118 13.9636C36.4413 13.9244 36.4659 13.884 36.5003 13.8497C36.5285 13.8215 36.5642 13.8007 36.5961 13.7762C36.633 13.7468 36.6649 13.7149 36.7042 13.6917L48.5138 6.91304C48.6632 6.82714 48.8327 6.78192 49.0052 6.78192C49.1777 6.78192 49.3472 6.82714 49.4967 6.91304L61.3038 13.6917C61.3455 13.7162 61.3775 13.7468 61.4143 13.775C61.4451 13.7995 61.4807 13.8215 61.5089 13.8485C61.5433 13.884 61.5679 13.9244 61.5974 13.9636C61.6195 13.993 61.6466 14.0188 61.6638 14.0506C61.692 14.0984 61.708 14.1511 61.7276 14.2025C61.7387 14.2307 61.7547 14.2564 61.762 14.2858ZM59.8282 27.4167V16.2387L55.6963 18.6105L49.9881 21.8877V33.0658L59.8294 27.4167H59.8282ZM48.0211 47.6374V36.452L42.4063 39.6496L26.3727 48.7743V60.0651L48.0211 47.6374ZM2.75854 9.57523V47.6374L24.4045 60.0639V48.7756L13.0962 42.3939L13.0925 42.3914L13.0876 42.389C13.0495 42.3669 13.0176 42.3351 12.9819 42.3081C12.9512 42.2836 12.9156 42.264 12.8886 42.2371L12.8861 42.2334C12.8542 42.2028 12.832 42.1648 12.805 42.1305C12.7804 42.0974 12.7509 42.0692 12.7313 42.0349L12.7301 42.0312C12.7079 41.9945 12.6944 41.9504 12.6785 41.9087C12.6625 41.872 12.6416 41.8377 12.6318 41.7985C12.6195 41.7519 12.617 41.7017 12.6121 41.6539C12.6072 41.6171 12.5974 41.5804 12.5974 41.5436V41.5412V15.2243L6.89041 11.9459L2.75854 9.57523ZM13.5827 2.23184L3.74513 7.87844L13.5803 13.525L23.4166 7.87721L13.5803 2.23184H13.5827ZM18.6987 37.4713L24.4057 34.1953V9.57523L20.2738 11.9471L14.5656 15.2243V39.8444L18.6987 37.4713ZM49.0052 8.89529L39.1688 14.5419L49.0052 20.1885L58.8404 14.5407L49.0052 8.89529ZM48.0211 21.8877L42.3129 18.6105L38.181 16.2387V27.4167L43.888 30.6927L48.0211 33.0658V21.8877ZM25.3874 47.0775L39.8151 38.8643L47.0271 34.7601L37.1981 29.1172L25.8813 35.614L15.567 41.5351L25.3874 47.0775Z" fill="#FF2D20" style="fill:#FF2D20;fill:color(display-p3 1.0000 0.1765 0.1255);fill-opacity:1;"/>
</svg>
