<svg fill="none" height="209" viewBox="0 0 512 209" width="512" xmlns="http://www.w3.org/2000/svg" xmlns:xlink="http://www.w3.org/1999/xlink"><clipPath id="a"><path d="m0 0h512v208.126h-512z"/></clipPath><g clip-path="url(#a)"><path d="m117.436 207.036v-52.432l1.093-1.094h10.923l1.093 1.094v52.432l-1.093 1.094h-10.923z" fill="#05bdba"/><path d="m117.436 53.5225v-52.42911l1.093-1.09339h10.923l1.093 1.09339v52.42911l-1.093 1.0934h-10.923z" fill="#05bdba"/><path d="m69.9539 169.238h-1.5445l-7.7225-7.726v-1.545l18.0332-18.029 8.1775.004 1.0972 1.089v8.178z" fill="#05bdba"/><path d="m69.9462 38.8917h-1.5445l-7.7225 7.7264v1.5445l18.0332 18.0294 8.1775-.0038 1.0972-1.0896v-8.1774z" fill="#05bdba"/><path d="m1.09339 97.5104h74.27771l1.0934 1.0934v10.9222l-1.0934 1.094h-74.27771l-1.09339-1.094v-10.9222z" fill="#05bdba"/><path d="m440.999 97.5104h69.911l1.094 1.0934v10.9222l-1.094 1.094h-74.277l-1.094-1.094 4.366-10.9222z" fill="#05bdba"/><g fill="#014847"><path d="m212.056 108.727-1.093 1.094h-33.884l-1.093 1.093c0 2.187 2.187 8.743 10.93 8.743 3.28 0 6.556-1.093 7.65-3.28l1.093-1.093h13.117l1.093 1.093c-1.093 6.557-6.556 16.397-22.953 16.397-18.58 0-27.327-13.117-27.327-28.417 0-15.2994 8.743-28.4162 26.233-28.4162 17.491 0 26.234 13.1168 26.234 28.4162v4.374zm-16.397-10.9299c0-1.0934-1.093-8.7433-9.837-8.7433-8.743 0-9.836 7.6499-9.836 8.7433l1.093 1.0934h17.487z"/><path d="m242.66 115.284c0 2.186 1.093 3.28 3.28 3.28h9.836l1.094 1.093v10.93l-1.094 1.094h-9.836c-9.837 0-18.58-4.374-18.58-16.397v-24.0472l-1.094-1.0934h-7.649l-1.094-1.0934v-10.9301l1.094-1.0934h7.649l1.094-1.0933v-9.8367l1.093-1.0934h13.117l1.093 1.0934v9.8367l1.094 1.0933h12.023l1.094 1.0934v10.9301l-1.094 1.0934h-12.023l-1.094 1.0934v24.0472z"/><path d="m283.1 131.681h-13.117l-1.094-1.094v-74.3234l1.094-1.0934h13.117l1.093 1.0934v74.3234z"/><path d="m312.61 68.2871h-13.117l-1.094-1.0934v-10.9301l1.094-1.0934h13.117l1.093 1.0934v10.9301zm0 63.3939h-13.117l-1.094-1.094v-52.4633l1.094-1.0933h13.117l1.093 1.0933v52.4633z"/><path d="m363.98 56.2636v10.9301l-1.094 1.0934h-9.836c-2.187 0-3.281 1.0934-3.281 3.2801v4.3736l1.094 1.0934h10.93l1.093 1.0934v10.93l-1.093 1.0934h-10.93l-1.094 1.0934v39.3466l-1.093 1.093h-13.117l-1.093-1.093v-39.3466l-1.094-1.0934h-7.649l-1.094-1.0934v-10.93l1.094-1.0934h7.649l1.094-1.0934v-4.3736c0-12.0234 8.743-16.397 18.58-16.397h9.836l1.094 1.0934z"/><path d="m404.42 132.774c-4.374 10.93-8.743 17.487-24.047 17.487h-5.467l-1.093-1.094v-10.93l1.093-1.093h5.467c5.463 0 6.556-1.094 7.65-4.374v-1.093l-17.487-42.627v-10.9301l1.094-1.0934h9.836l1.094 1.0934 13.117 37.1641h1.093l13.117-37.1641 1.093-1.0934h9.837l1.093 1.0934v10.9301l-17.486 43.72z"/><path d="m135.454 131.681-1.093-1.094.007-31.6698c0-5.4631-2.148-9.699-8.743-9.8366-3.391-.088-7.271-.0077-11.416.1682l-.619.6346.008 40.7036-1.094 1.094h-13.1127l-1.0934-1.094v-53.0482l1.0934-1.0934 29.5097-.2676c14.784 0 20.767 10.1578 20.767 21.6231v32.7861l-1.093 1.094z"/></g></g></svg>