<svg width="83" height="62" viewBox="0 0 83 62" fill="none" xmlns="http://www.w3.org/2000/svg">
<rect x="5.41016" y="3.71201" width="57.5352" height="39.777" fill="white" style="fill:white;fill-opacity:1;"/>
<path d="M9.35738 8.42111L9.35736 8.42113C8.73135 9.05168 8.73787 10.0612 9.35724 10.6853C9.35728 10.6853 9.35731 10.6853 9.35734 10.6854L15.2014 16.5757L9.35736 22.4621C8.74724 23.0767 8.73427 24.0987 9.35734 24.7264L9.35736 24.7264C9.98542 25.359 10.994 25.3523 11.6155 24.7264L11.6155 24.7264L18.298 17.9954C18.6811 17.6096 18.8233 17.0753 18.738 16.5788C18.8292 16.0801 18.6833 15.5443 18.298 15.1562L11.6155 8.42526C11.0006 7.8059 9.9838 7.79022 9.35738 8.42111ZM0.724609 8.52929C0.724609 4.11857 4.26668 0.552551 8.63626 0.552551H73.8266C78.1921 0.552551 81.7382 4.1227 81.7382 8.52929V53.002C81.7382 57.4127 78.1962 60.9787 73.8266 60.9787H8.63626C4.27078 60.9787 0.724609 57.4086 0.724609 53.002V8.52929ZM20.7406 22.2401C19.9545 22.2401 19.3206 22.8866 19.3206 23.6709C19.3206 24.4637 19.9588 25.0976 20.7406 25.0976H30.8855C31.6688 25.0976 32.3055 24.4581 32.3055 23.6709C32.3055 22.8825 31.6758 22.2401 30.8855 22.2401H20.7406Z" fill="url(#paint0_linear_2422_1546)" stroke="#292537" style="stroke:#292537;stroke:color(display-p3 0.1608 0.1451 0.2157);stroke-opacity:1;"/>
<defs>
<linearGradient id="paint0_linear_2422_1546" x1="41.2314" y1="0.0525513" x2="41.2314" y2="61.4787" gradientUnits="userSpaceOnUse">
<stop stop-color="#2E2E2E" style="stop-color:#2E2E2E;stop-color:color(display-p3 0.1800 0.1800 0.1800);stop-opacity:1;"/>
<stop offset="1" style="stop-color:black;stop-opacity:1;"/>
</linearGradient>
</defs>
</svg>
