<svg width="69" height="67" viewBox="0 0 69 67" fill="none" xmlns="http://www.w3.org/2000/svg">
<path d="M11.0263 41.1353C16.1451 41.1353 20.2948 36.9263 20.2948 31.7342C20.2948 26.5421 16.1451 22.3331 11.0263 22.3331C5.90745 22.3331 1.75781 26.5421 1.75781 31.7342C1.75781 36.9263 5.90745 41.1353 11.0263 41.1353Z" fill="#F94C0F" style="fill:#F94C0F;fill:color(display-p3 0.9759 0.2999 0.0594);fill-opacity:1;"/>
<path d="M49.6298 20.527C54.7487 20.527 58.8983 16.318 58.8983 11.1259C58.8983 5.93386 54.7487 1.72485 49.6298 1.72485C44.511 1.72485 40.3613 5.93386 40.3613 11.1259C40.3613 16.318 44.511 20.527 49.6298 20.527Z" fill="#F94C0F" style="fill:#F94C0F;fill:color(display-p3 0.9759 0.2999 0.0594);fill-opacity:1;"/>
<path d="M8.37817 44.8169C10.6579 50.6514 14.6363 55.6427 19.7833 59.1259C24.9303 62.6091 31.0015 64.4187 37.1881 64.3137C35.3805 62.0069 34.3806 59.1558 34.3459 56.2094C33.5165 56.0936 32.7213 55.9547 31.9603 55.7926C28.6791 55.087 25.5961 53.6429 22.9388 51.5668C20.2816 49.4908 18.1181 46.8359 16.608 43.7981C14.0455 45.0314 11.1579 45.3889 8.37817 44.8169Z" fill="#F94C0F" style="fill:#F94C0F;fill:color(display-p3 0.9759 0.2999 0.0594);fill-opacity:1;"/>
<path d="M47.541 65.3789C52.6598 65.3789 56.8094 61.1699 56.8094 55.9779C56.8094 50.7858 52.6598 46.5768 47.541 46.5768C42.4221 46.5768 38.2725 50.7858 38.2725 55.9779C38.2725 61.1699 42.4221 65.3789 47.541 65.3789Z" fill="#F94C0F" style="fill:#F94C0F;fill:color(display-p3 0.9759 0.2999 0.0594);fill-opacity:1;"/>
<path d="M55.8164 45.5116C58.0797 47.3503 59.684 49.8929 60.3822 52.7476C64.4682 47.6146 66.8239 41.288 67.1033 34.6968C67.3827 28.1056 65.5711 21.5972 61.9345 16.1274C60.8787 18.7986 58.996 21.0496 56.5698 22.5415C58.4566 26.0962 59.3809 30.0947 59.2486 34.1296C59.1163 38.1646 57.932 42.0919 55.8164 45.5116Z" fill="#F94C0F" style="fill:#F94C0F;fill:color(display-p3 0.9759 0.2999 0.0594);fill-opacity:1;"/>
<path d="M11.049 18.3504C11.9697 18.3486 12.8879 18.4456 13.7885 18.6398C15.3145 18.9748 16.7709 19.5783 18.0917 20.4228C20.1319 17.4091 22.8553 14.9361 26.0333 13.2115C29.2113 11.487 32.7509 10.5613 36.3547 10.5123C36.3813 9.77346 36.4653 9.03793 36.6058 8.31251C37.0489 6.23997 37.9636 4.30122 39.2768 2.65102C33.4353 2.17278 27.581 3.40017 22.4051 6.18822C17.2292 8.97626 12.9481 13.2085 10.0674 18.3851C10.3984 18.3619 10.718 18.3504 11.049 18.3504Z" fill="#F94C0F" style="fill:#F94C0F;fill:color(display-p3 0.9759 0.2999 0.0594);fill-opacity:1;"/>
</svg>
