<svg width="148px" height="98px" viewBox="0 0 148 98" version="1.1" xmlns="http://www.w3.org/2000/svg" xmlns:xlink="http://www.w3.org/1999/xlink">
    <g stroke="none" stroke-width="1" fill="none" fill-rule="evenodd">
        <g transform="translate(-60.000000, -40.000000)" fill="#EFFEFF" fill-rule="nonzero">
            <path d="M185.982989,46.8387982 C196.766815,52.0407424 203.416841,66.0321784 206.36442,80.9205013 C209.347946,95.8088243 208.593078,111.62991 201.22413,122.930685 C193.855182,134.195585 179.836208,140.940174 168.764814,136.742744 C157.657473,132.509437 149.497711,117.369986 139.360915,111.845163 C129.188172,106.356215 117.002449,110.553645 100.143734,105.638705 C83.2490734,100.75964 61.7173675,86.839955 60.0997936,72.9920209 C58.4822197,59.1799623 76.8147239,45.4755301 94.3564142,41.4216012 C111.862158,37.4035477 128.577089,43.0718731 144.393367,44.1122619 C160.245591,45.1526508 175.163217,41.636854 185.982989,46.8387982 Z" id="Path"></path>
        </g>
    </g>
</svg>