<svg xmlns="http://www.w3.org/2000/svg" version="1.1" xmlns:xlink="http://www.w3.org/1999/xlink" xmlns:svgjs="http://svgjs.com/svgjs" viewBox="0 0 20 20" height="20" width="20"><title>book open bookmark (From Streamline App : https://app.streamlineicons.com)</title><g transform="matrix(0.8333333333333334,0,0,0.8333333333333334,0,0)"><path d="M 12,22.8V5.387c0,0-2.455-2.727-10.732-2.837C1.13,2.549,0.998,2.603,0.9,2.7 C0.803,2.799,0.748,2.931,0.748,3.07v16.374c-0.002,0.28,0.22,0.511,0.5,0.52C9.543,20.071,12,22.8,12,22.8 " stroke="currentColor" fill="none" stroke-width="1.5" stroke-linecap="round" stroke-linejoin="round"></path><path d="M 9,11.855 c-1.702-0.572-3.469-0.927-5.26-1.055 " stroke="currentColor" fill="none" stroke-width="1.5" stroke-linecap="round" stroke-linejoin="round"></path><path d="M 9,16.05C7.298,15.48,5.531,15.127,3.74,15 " stroke="currentColor" fill="none" stroke-width="1.5" stroke-linecap="round" stroke-linejoin="round"></path><path d="M 15,11.855c1.702-0.572,3.469-0.927,5.26-1.055 " stroke="currentColor" fill="none" stroke-width="1.5" stroke-linecap="round" stroke-linejoin="round"></path><path d="M 15,16.05c1.702-0.57,3.469-0.923,5.26-1.05 " stroke="currentColor" fill="none" stroke-width="1.5" stroke-linecap="round" stroke-linejoin="round"></path><path d="M 20.26,2.67c0.76-0.066,1.582-0.108,2.472-0.12c0.137-0.001,0.269,0.053,0.366,0.15 c0.097,0.099,0.152,0.231,0.152,0.37v16.374c0.002,0.28-0.22,0.511-0.5,0.52C14.457,20.071,12,22.8,12,22.8 " stroke="currentColor" fill="none" stroke-width="1.5" stroke-linecap="round" stroke-linejoin="round"></path><path d="M 12,22.8V5.387 c0,0,1.143-1.27,4.5-2.111 " stroke="currentColor" fill="none" stroke-width="1.5" stroke-linecap="round" stroke-linejoin="round"></path><path d="M 20.25,7.8V1.2c-1.264,0.101-2.518,0.301-3.75,0.6v6l1.875-1.5L20.25,7.8z" stroke="currentColor" fill="none" stroke-width="1.5" stroke-linecap="round" stroke-linejoin="round"></path></g></svg>