<svg xmlns="http://www.w3.org/2000/svg" version="1.1" xmlns:xlink="http://www.w3.org/1999/xlink" xmlns:svgjs="http://svgjs.com/svgjs" viewBox="0 0 20 20" height="20" width="20"><title>restaurant menu (From Streamline App : https://app.streamlineicons.com)</title><g transform="matrix(0.8333333333333334,0,0,0.8333333333333334,0,0)"><path d="M 4.5,0.75H21c0.828,0,1.5,0.672,1.5,1.5v19.5c0,0.828-0.672,1.5-1.5,1.5H4.5c-0.828,0-1.5-0.672-1.5-1.5V2.25 C3,1.422,3.672,0.75,4.5,0.75z " stroke="currentColor" fill="none" stroke-width="1.5" stroke-linecap="round" stroke-linejoin="round"></path><path d="M 1.5,5.25h3 " stroke="currentColor" fill="none" stroke-width="1.5" stroke-linecap="round" stroke-linejoin="round"></path><path d="M 1.5,9.75h3 " stroke="currentColor" fill="none" stroke-width="1.5" stroke-linecap="round" stroke-linejoin="round"></path><path d="M 1.5,14.25h3 " stroke="currentColor" fill="none" stroke-width="1.5" stroke-linecap="round" stroke-linejoin="round"></path><path d="M 1.5,18.75h3 " stroke="currentColor" fill="none" stroke-width="1.5" stroke-linecap="round" stroke-linejoin="round"></path><path d="M 10.5,6c1.243,0,2.25,1.175,2.25,2.625 s-1.007,2.625-2.25,2.625s-2.25-1.175-2.25-2.625S9.257,6,10.5,6z " stroke="currentColor" fill="none" stroke-width="1.5" stroke-linecap="round" stroke-linejoin="round"></path><path d="M 10.5,11.25v6 " stroke="currentColor" fill="none" stroke-width="1.5" stroke-linecap="round" stroke-linejoin="round"></path><path d="M 16.5,11.25v6 " stroke="currentColor" fill="none" stroke-width="1.5" stroke-linecap="round" stroke-linejoin="round"></path><path d="M 15,6v3.75 c0,0.828,0.672,1.5,1.5,1.5l0,0c0.828,0,1.5-0.672,1.5-1.5V6" stroke="currentColor" fill="none" stroke-width="1.5" stroke-linecap="round" stroke-linejoin="round"></path></g></svg>