<svg xmlns="http://www.w3.org/2000/svg" viewBox="0 0 313.47 742.77"><path fill="currentColor" d="M88.74,41.73,91.55,35l-9.85,4-6-4.63c2.21-2.59,4.38-4.89,6.27-7.39,2.35-3.11,4.38-6.47,6.76-9.56a8.47,8.47,0,0,1,3.7-3C104.54,10.61,116.76,6.92,128.91,3a55.18,55.18,0,0,0,6.52-3c15.65,6.7,31.41,13.56,47.25,20.21,15.57,6.54,30.56,14.47,47,21.2-.3-3.13-.43-4.53-.67-7l7.28,1.48-.23-.75,13.25-2.77c.69,3.54,1.2,6.2,1.77,9.13l7.68-2c-.74,3.48-1.28,6-1.91,9l4.65,2.62c-.6,5.56-2.19,10.81-1.41,15.67s3.91,9.59,5.8,13.88l7.43,1.15,6-9.18c8.07-1.17,8.82-.84,10.94,5L298.6,76c-1.23,2.72-1.81,4.31-2.64,5.75s-2,2.94-3.93,5.66l8.54-2.13A106.3,106.3,0,0,1,303.88,97c.16.93-1.94,3-3.27,3.32a128.58,128.58,0,0,1-17.6,2.87c-2.74.21-5.61-1.28-9.12-2.18.87,3.41,1.64,6.69,2.56,9.93,2.35,8.28,4.44,16.65,7.27,24.77a129.45,129.45,0,0,0,8.58,19.65c4.71,8.55,6.28,17.8,7,27.18,1,12.18,1.5,24.42,1.66,36.64.08,6.22-.87,12.49-1.79,18.68-.19,1.34-2.91,2.19-3.38,3.62-2.28,7-4.74,14.08-6,21.32-.52,3,1.36,6.79,2.94,9.81,3.79,7.25,5.28,14-1.91,20.11-.85.73-1.18,2.35-1.31,3.6-1.58,15.39-7,29.53-13.65,43.33-1.53,3.17-1.88,6.92-2.42,9-3.38,6.08-6.35,11.07-9,16.24-2.54,5-4.17,10.53-7.16,15.21a250.72,250.72,0,0,1-15.85,22C231.17,415,219.65,427,211.6,441.64c-2.65,4.83-2.91,8.75.92,11.45,18.48,13,26.34,31.68,29.06,53.24,1.34,10.66,1.42,21.77,4.68,31.82,3.51,10.83,9.88,20.78,15.36,30.91,6.37,11.79,13.36,23.25,19.59,35.11A34.74,34.74,0,0,1,284.73,617c.34,3.82-1.28,7.5-5.74,8.82-8,2.37-15.8,3.75-24.25,1.25-3.24-1-7.75.64-11.13,2.24-8.08,3.82-16.16,5.77-25.26,4.92-10-.94-20.17-.81-30.26-.73-3.37,0-5.17-1.23-5.69-4.13s0-5.41,3.46-6.77a163.6,163.6,0,0,0,15.17-7c11.34-5.85,22.6-11.86,33.87-17.84,1.52-.8,2.93-1.83,4.18-2.62a395.32,395.32,0,0,0-34.33-77.73c-7.52-13.21-15.41-26.23-23.42-39.16-3.48-5.62-7.75-10.74-11.46-16.23a21,21,0,0,1-2.37-5.9c-1.26-4.27-2.11-8.68-3.56-12.88-1.39-4-1.06-7.39.65-11.36,5.76-13.38,11.09-26.94,16.36-40.53,1.47-3.79,2.13-7.9,3.1-11.61l-6.15-6.56,6.41-13.09c5.57-3.45,8.46-10.82,11.15-18.38,1.3-3.65,0-6-3-7.91-2.75-1.76-5.38-3.71-8.19-5.67,2.16-5.23-.33-8.41-3.75-11.15Q165.77,305.22,151,293.53a16,16,0,0,0-3.5-1.55c-3.94,17.68-13.69,31.47-24.55,44.69-7.84,9.56-17.23,18-22.09,29.79-1.69,4.12-2.47,7.85-.83,12.41,1.71,4.75,2.34,10,2.81,15.06.6,6.55-2.24,10.12-8.71,11.05a82.09,82.09,0,0,1-16.31,1.13,45.71,45.71,0,0,0-24.87,5.38c-10.09,5.35-20.7,7.59-32.16,4-3.33-1-7.36-.76-10.87-.08-7.46,1.43-8.47,1-9.88-7.42,2.25-1.55,4.59-3.37,7.12-4.88C19.9,395.52,33,388.37,45.44,380.24c8.52-5.56,15.09-13.39,20-22.43q12-21.78,24-43.51c7.84-14.18,15.6-28.4,23.56-42.52,5.52-9.8,11-19.69,17.08-29.12,6.23-9.59,12.21-11.24,22.89-6.93,17.66,7.13,35.21,14.56,52.81,21.83,1.19.49,3.1,1.47,3.63,1,4.71-4.1,9.3-1.16,14.36.56l-.33-5.77,8-5.21L221.43,236l11.62-6c-2.34-7.49-4.63-14.8-7.14-22.82-9.15,7-17.78,13.38-26.2,20-4.51,3.57-8.37,4.22-13,1.08-17.12-11.63-31.85-25.75-45.09-41.69-7.9-9.51-16.57-18.64-28.48-23.56a8.36,8.36,0,0,0-2.36-.6c-5.25-.52-10.5-1-16.59-1.53-.81,1.78-1.9,4.12-2.94,6.47-2.08,4.69-3.83,5-8.14,1.53.88-3.71,1.77-7.44,2.88-12.09-6.91,3.47-9.16,13.21-19,9.63l10.7-17.52c-6.83,1.2-11.47,8.47-20,3.51L74.56,132c11.36.71,22.57,1.28,33.74,2.25,1.94.17,4.7,1.64,5.42,3.25,4.15,9.31,12,14.2,20.44,18.77,15.59,8.43,31,17.11,46.49,25.78,2.56,1.44,4.85,3.39,7.6,5.34l28.89-18.12c1.7-9.55,11.86-14.57,17.44-24.64l-4.24-4.06c-19.5,5.08-21.68,4.61-24.67-4.64l-1,.82-11.75-14.4.8-.67-5.37-2.84c1.3-6.36,2.55-12.46,3.81-18.64l-3.87-3.43V91.46c-4.53-.09-4.06-3.16-3.81-6.24.66-8.21,1.45-16.41,1.74-24.63a9.6,9.6,0,0,0-4.72-9.13c-12.1-7.49-24-15.36-36-23-3.09-2-6.05-2.49-9.63-.13-7.5,4.94-16.27,4.94-24.89,5.58-2.74.21-5.45,2.19-7.94,3.73-1.5.94-2.5,2.65-3.8,3.93C95.42,45.38,94,45.42,88.74,41.73ZM188,78.49v9l8.73,1c.29-3.64,1.26-7,.53-10-.39-1.6-3.66-2.51-6.63-4.34.56,4.54,6.57,6.55,1.68,10.84Zm14.15,9.76,1.44,1.2c1.17-1.69,3.07-3.26,3.33-5.08.4-2.84,1.94-6.5-2.52-8.78Z"/><path d="M305.61,622.78,289.82,619c8.78-2.44,15.73,1.32,23.62,3.33v11.76c0,15.82.09,31.63,0,47.45-.11,13.12-.58,26.24-.67,39.36-.05,5.61.4,11.24.71,16.85.2,3.63-1.41,5.06-5,5-39.61-.06-79.22,0-118.83-.06-4.51,0-7.83-4.9-7.85-9.39-.05-9.75-.83-19.49-1.09-29.23-.14-5.06.27-10.13.24-15.2,0-1.57-.92-3.13-1-4.72-.27-7-.13-14-.63-21-.4-5.49-4.49-9-11.18-10,8.24,7,7.75,16.42,8.36,25.12,1.38,19.83,1.89,39.73,2.68,59.6.05,1.09-.4,3.07-.87,3.15-4.12.68-8.35,1.54-12.43,1.17-1.32-.12-3.13-3.69-3.31-5.8-.68-8.09-.84-16.24-1.1-24.36-.39-12-.42-23.93-1.17-35.86-.39-6.32-2.27-12.55-2.85-18.88-.24-2.6,1.17-5.36,1.94-8.46-5.44-1.08-4.72-6.21-4.28-11.41l18-5.38.66,1.86-7.6,3.46,0,1.07c4.8.71,9.6,2,14.4,2,25.73.18,51.38-1.15,76.75-5.76,11.6-2.11,23.07-4.93,34.66-7.1C296.46,626.79,301.28,627.48,305.61,622.78Z"/></svg>