<svg width="192" height="31" xmlns="http://www.w3.org/2000/svg" xmlns:xlink="http://www.w3.org/1999/xlink">
<defs>
<path d="M32.143 31c2.85 0 3.896-1.217 3.896-4.195v-5.802c0-2.77 1.36-4.35 2.667-5.102.392-.233.392-.777 0-1.036-1.36-.854-2.667-2.641-2.667-5.024V4.144c0-3.212-.89-4.144-3.74-4.144H6.7C3.85 0 2.961.932 2.961 4.144V9.84c0 2.383-1.307 4.17-2.667 5.024a.603.603 0 000 1.036c1.308.726 2.667 2.305 2.667 5.102v5.802C2.961 29.783 4.007 31 6.857 31h25.286zm-12.708-5.31c-3.06 0-5.282-.906-7.348-2.693-.34-.31-.47-.699-.47-1.087 0-.311.078-.648.313-.907l.628-.802c.313-.389.653-.57 1.046-.57.444 0 .862.181 1.307.466 1.412.906 2.98 1.424 4.864 1.424 1.438 0 2.588-.595 2.588-1.813 0-3.16-10.616-1.424-10.616-8.52 0-3.807 3.138-5.93 7.217-5.93 2.876 0 4.994.828 6.563 1.812.392.26.654.777.654 1.295 0 .31-.079.596-.262.855l-.47.699c-.34.466-.732.7-1.23.7-.34 0-.705-.13-1.097-.312-1.177-.595-2.406-.906-3.897-.906-1.542 0-2.457.829-2.457 1.683 0 3.238 10.616 1.477 10.616 8.365 0 3.86-3.138 6.242-7.95 6.242z" id="a"/>
</defs>
<g fill-rule="nonzero" fill="none">
<g>
<use fill="#000" xlink:href="#a"/>
<use fill="currentColor" xlink:href="#a"/>
</g>
<path d="M53.695 23.042c5.607 0 8.421-3.402 8.421-7.539 0-3.885-2.373-7.266-8.253-7.266-.861 0-2.394.042-3.549.063a.775.775 0 00-.777.777v13.146c0 .42.357.777.777.777 1.365.021 2.646.042 3.381.042zm.084-2.415h-.271a25.403 25.403 0 01-1.388-.042v-9.87a22.599 22.599 0 011.701-.063c3.507 0 5.565 1.89 5.565 4.851 0 3.108-2.058 5.124-5.607 5.124zm15.022 2.604c3.13 0 5.145-2.121 5.145-4.956 0-2.835-2.016-4.956-5.145-4.956-3.129 0-5.145 2.121-5.145 4.956 0 2.835 2.016 4.956 5.145 4.956zm0-2.247c-1.47 0-2.562-1.134-2.562-2.709 0-1.638 1.134-2.688 2.562-2.688 1.47 0 2.583 1.092 2.583 2.688 0 1.638-1.092 2.709-2.583 2.709zm11.978 2.247c1.176 0 2.184-.21 3.318-1.113.189-.147.294-.42.294-.672 0-.147-.042-.315-.147-.42l-.357-.441a.815.815 0 00-.651-.315.961.961 0 00-.504.168 3.085 3.085 0 01-1.827.546c-1.428 0-2.73-1.029-2.73-2.709 0-1.659 1.28-2.688 2.625-2.688.63 0 1.113.105 1.68.378a.953.953 0 00.378.084c.294 0 .546-.168.714-.441l.315-.546a.616.616 0 00.084-.336c0-.273-.147-.567-.378-.693-.924-.504-1.848-.714-3.108-.714-2.877 0-4.893 2.205-4.893 4.956 0 2.982 2.058 4.956 5.187 4.956zm8.953 0c1.47 0 2.457-.693 3.024-1.386v.378c0 .42.357.777.777.777h.861c.42 0 .777-.357.777-.777v-7.896a.789.789 0 00-.777-.777h-.861a.789.789 0 00-.777.777v5.502c-.546.714-1.323 1.155-2.121 1.155-1.323 0-1.806-.903-1.806-2.163v-4.494a.789.789 0 00-.777-.777h-.861a.789.789 0 00-.777.777v4.998c0 2.709 1.47 3.906 3.318 3.906zM99.63 23c.42 0 .777-.357.777-.777v-5.565c.42-.63 1.113-1.008 1.974-1.008 1.03 0 1.575.651 1.575 1.638v4.935c0 .42.357.777.777.777h.861c.42 0 .777-.357.777-.777v-4.788l-.002-.139-.011-.307a7.098 7.098 0 01-.008-.247c.336-.651 1.05-1.092 1.953-1.092 1.134 0 1.617.63 1.617 1.806v4.767c0 .42.357.777.777.777h.861c.42 0 .777-.357.777-.777v-5.397c0-2.583-1.302-3.444-3.024-3.444-1.47 0-2.52.63-3.192 1.512-.336-.861-1.302-1.512-2.75-1.512-1.177 0-2.29.462-2.962 1.218v-.273a.789.789 0 00-.777-.777h-.86a.789.789 0 00-.778.777v7.896c0 .42.357.777.777.777h.861zm19.79.231c1.05 0 2.163-.252 3.17-.882a.74.74 0 00.337-.63.757.757 0 00-.126-.42l-.19-.273c-.167-.231-.377-.357-.608-.357-.147 0-.315.063-.483.147-.525.252-1.071.399-1.848.399-1.491 0-2.625-.777-2.835-2.205h6.132c.378 0 .798-.399.819-.756.02-.168.02-.336.02-.546 0-2.646-2.036-4.389-4.472-4.389-3.108 0-4.998 2.205-4.998 4.956 0 2.982 2.037 4.956 5.082 4.956zm1.974-5.838h-4.641c.252-1.239 1.029-2.058 2.478-2.058 1.365 0 2.163.882 2.163 2.016v.042zM127.68 23c.42 0 .777-.357.777-.777v-5.67c.567-.567 1.239-.903 2.058-.903 1.344 0 2.121.714 2.121 2.226v4.347c0 .42.357.777.777.777h.861c.42 0 .777-.357.777-.777v-4.767c0-2.961-1.575-4.074-3.885-4.074-1.134 0-2.142.504-2.709 1.029 0-.504-.357-.861-.777-.861h-.861a.789.789 0 00-.777.777v7.896c0 .42.357.777.777.777h.861zm12.691.21c.945 0 1.66-.21 2.373-.63.231-.126.357-.399.357-.672a.708.708 0 00-.105-.357l-.21-.378c-.168-.294-.378-.42-.65-.42-.148 0-.295.042-.484.105s-.42.105-.672.105c-.798 0-1.134-.672-1.134-1.701v-3.444h2.268c.42 0 .777-.357.777-.777v-.714a.789.789 0 00-.777-.777h-2.268v-1.848a.789.789 0 00-.777-.777h-.86a.789.789 0 00-.778.777v7.707c0 2.415.798 3.801 2.94 3.801zm7.19-.084c1.28 0 2.289-.504 2.793-1.218v.315c0 .42.357.777.777.777h.546c.42 0 .777-.357.777-.777v-4.977c0-2.499-.987-3.927-3.78-3.927-.966 0-1.911.252-2.73.63-.252.126-.441.399-.441.672a.88.88 0 00.084.336l.126.252a.757.757 0 00.714.441c.126 0 .252-.021.378-.063a4.742 4.742 0 011.617-.252c1.323 0 1.764.756 1.764 2.142v.294c-.462-.336-1.302-.609-2.142-.609-1.911 0-3.444.987-3.444 3.066 0 1.827 1.239 2.898 2.96 2.898zm.798-2.037c-.756 0-1.344-.399-1.344-1.113 0-.798.714-1.176 1.512-1.176.693 0 1.239.147 1.659.462v.966c-.294.42-.82.861-1.827.861zm9.436 2.121c.945 0 1.659-.21 2.373-.63.231-.126.357-.399.357-.672a.708.708 0 00-.105-.357l-.21-.378c-.168-.294-.378-.42-.651-.42-.147 0-.294.042-.483.105s-.42.105-.672.105c-.798 0-1.134-.672-1.134-1.701v-3.444h2.268c.42 0 .777-.357.777-.777v-.714a.789.789 0 00-.777-.777h-2.268v-1.848a.789.789 0 00-.777-.777h-.861a.789.789 0 00-.777.777v7.707c0 2.415.798 3.801 2.94 3.801zm6.454-11.55c.693 0 1.386-.546 1.386-1.512 0-.861-.693-1.407-1.386-1.407-.819 0-1.512.546-1.512 1.407 0 .966.693 1.512 1.512 1.512zm.378 11.34c.42 0 .777-.357.777-.777v-7.896a.789.789 0 00-.777-.777h-.86a.789.789 0 00-.778.777v7.896c0 .42.357.777.777.777h.861zm8.513.231c3.129 0 5.145-2.121 5.145-4.956 0-2.835-2.016-4.956-5.145-4.956-3.13 0-5.145 2.121-5.145 4.956 0 2.835 2.016 4.956 5.145 4.956zm0-2.247c-1.47 0-2.562-1.134-2.562-2.709 0-1.638 1.134-2.688 2.562-2.688 1.47 0 2.583 1.092 2.583 2.688 0 1.638-1.092 2.709-2.583 2.709zM182.156 23c.42 0 .777-.357.777-.777v-5.67c.567-.567 1.239-.903 2.058-.903 1.344 0 2.121.714 2.121 2.226v4.347c0 .42.357.777.777.777h.861c.42 0 .777-.357.777-.777v-4.767c0-2.961-1.575-4.074-3.885-4.074-1.134 0-2.142.504-2.709 1.029 0-.504-.357-.861-.777-.861h-.861a.789.789 0 00-.777.777v7.896c0 .42.357.777.777.777h.861z" fill="currentColor"/>
</g>
</svg>
