<svg xmlns="http://www.w3.org/2000/svg" version="1.1" xmlns:xlink="http://www.w3.org/1999/xlink" xmlns:svgjs="http://svgjs.com/svgjs" viewBox="0 0 20 20" height="20" width="20"><title>information desk (From Streamline App : https://app.streamlineicons.com)</title><g transform="matrix(0.8333333333333334,0,0,0.8333333333333334,0,0)"><path d="M 4.5,10.125c1.45,0,2.625,1.175,2.625,2.625S5.95,15.375,4.5,15.375S1.875,14.2,1.875,12.75 S3.05,10.125,4.5,10.125z " stroke="currentColor" fill="none" stroke-width="1.5" stroke-linecap="round" stroke-linejoin="round"></path><path d="M 8.25,20.25c0-1.657-1.343-3-3-3h-1.5c-1.657,0-3,1.343-3,3 " stroke="currentColor" fill="none" stroke-width="1.5" stroke-linecap="round" stroke-linejoin="round"></path><path d="M 17.25,0.75c3.314,0,6,2.686,6,6 s-2.686,6-6,6s-6-2.686-6-6S13.936,0.75,17.25,0.75z " stroke="currentColor" fill="none" stroke-width="1.5" stroke-linecap="round" stroke-linejoin="round"></path><path d="M 17.25,9.75v-3 " stroke="currentColor" fill="none" stroke-width="1.5" stroke-linecap="round" stroke-linejoin="round"></path><path d="M 17.25,3.811c-0.207,0-0.375,0.168-0.375,0.375 c0,0.207,0.168,0.375,0.375,0.375s0.375-0.168,0.375-0.375l0,0C17.625,3.979,17.457,3.811,17.25,3.811 " stroke="currentColor" fill="none" stroke-width="1.5" stroke-linecap="round" stroke-linejoin="round"></path><path d="M 0.75,23.25h22.5 " stroke="currentColor" fill="none" stroke-width="1.5" stroke-linecap="round" stroke-linejoin="round"></path><path d="M 15,23.25 c0-1.657,1.343-3,3-3s3,1.343,3,3 " stroke="currentColor" fill="none" stroke-width="1.5" stroke-linecap="round" stroke-linejoin="round"></path><path d="M 18,20.25v-1.5" stroke="currentColor" fill="none" stroke-width="1.5" stroke-linecap="round" stroke-linejoin="round"></path></g></svg>