<svg xmlns="http://www.w3.org/2000/svg" width="16" height="16" viewBox="0 0 16 16">
  
<g transform="matrix(0.6666666666666666,0,0,0.6666666666666666,0,0)"><g>
    <path d="M20.43,10.27a.45.45,0,0,0-.64,0,9.12,9.12,0,0,0-.92,1c-.43.52-.82,1.08-1.22,1.59-.84,1.1-1.68,2.19-2.56,3.26-.58.71-1.18,1.41-1.8,2.09-.45.51-1,1.23-1.65,1.86a6.91,6.91,0,0,1-1.18,1.05,3.76,3.76,0,0,1-3.05,0,5.82,5.82,0,0,1-2.68-1.81A2.59,2.59,0,0,1,4.33,17a16,16,0,0,1,1.81-3.63c.26-.46.52-.91.8-1.36s.55-.89.85-1.32l1.44-2c.74-1,1.49-2,2.33-3A11.91,11.91,0,0,1,13.36,4c.28-.21.56-.45.85-.64a2.21,2.21,0,0,1,.53-.27,3.11,3.11,0,0,1,1.71,0,5.54,5.54,0,0,1,1.65.76,1.55,1.55,0,0,1,.66,1.57A6.35,6.35,0,0,1,17.4,8.3l-.8,1-1,1.34-1.35,1.81-1.65,2.22a12.3,12.3,0,0,1-1.05,1.24,6.2,6.2,0,0,1-1.24,1A2.11,2.11,0,0,1,8.57,17a1.16,1.16,0,0,1-.89-1.19,3,3,0,0,1,.5-1.27c.42-.69,1-1.35,1.36-1.87s.85-1.23,1.31-1.82a8,8,0,0,1,1-1.05.43.43,0,1,0-.56-.64,9.17,9.17,0,0,0-1.07,1.17c-.46.6-.88,1.25-1.31,1.85s-1,1.22-1.39,1.94a3.82,3.82,0,0,0-.61,1.62,1.85,1.85,0,0,0,1,1.8,3,3,0,0,0,2.86.08,6.45,6.45,0,0,0,1.15-.85,13,13,0,0,0,1.4-1.57L14.9,13l1.39-1.84,1-1.3.8-1a7.34,7.34,0,0,0,1.58-3.32A2.42,2.42,0,0,0,18.62,3.1a6.15,6.15,0,0,0-1.94-.89,4,4,0,0,0-2.22,0,2.85,2.85,0,0,0-.76.38c-.3.2-.59.45-.88.67a13.26,13.26,0,0,0-1.93,1.82c-.85,1-1.6,2.06-2.35,3.09L7.11,10.24c-.3.45-.59.9-.87,1.36s-.53.93-.79,1.4a16.69,16.69,0,0,0-1.86,3.84,3.3,3.3,0,0,0,.56,2.95,6.58,6.58,0,0,0,3,2.06,4.5,4.5,0,0,0,3.7-.08,6.75,6.75,0,0,0,1-.84c.72-.7,1.45-1.58,2-2.16s1.24-1.39,1.84-2.1c.9-1.07,1.76-2.16,2.62-3.25.4-.51.8-1.05,1.22-1.57a9.56,9.56,0,0,1,.86-.93A.46.46,0,0,0,20.43,10.27Z" style="fill: #191A1B"></path>
    <path d="M2.44,15.37c0,.19-.91-.19-1.71.23-1.06.57-.85-.79-.09-.89C1.65,14.57,2.53,14.94,2.44,15.37Z" style="fill: #FF269E"></path>
    <path d="M5.31,8.82c.07-.19-.74-.71-1.21-1.49-.63-1-1.14.26-.53.73C4.37,8.69,5.17,9.23,5.31,8.82Z" style="fill: #FF269E"></path>
    <path d="M9.76,3.25c-.2,0-.13-.92-.81-1.53-.89-.81.46-1.07.82-.39C10.24,2.23,10.19,3.19,9.76,3.25Z" style="fill: #FF269E"></path>
    <path d="M13.44,20.75c-.17.12.53.77.45,1.67-.11,1.2,1.06.47.86-.26C14.47,21.17,13.79,20.51,13.44,20.75Z" style="fill: #FF269E"></path>
    <path d="M18.34,15.55c.15-.13.94.4,1.84.54,1.19.17.21,1.14-.46.77C18.83,16.37,18,15.84,18.34,15.55Z" style="fill: #FF269E"></path>
    <path d="M21.56,9.05c0,.2.9-.22,1.72.18,1.08.53.82-.82.06-.9C22.32,8.23,21.46,8.63,21.56,9.05Z" style="fill: #FF269E"></path>
  </g></g></svg>