<svg class="o-logomark" clip-rule="evenodd" fill-rule="evenodd" stroke-linejoin="round" stroke-miterlimit="2" viewBox="0 0 93 75" xmlns="http://www.w3.org/2000/svg"><g transform="matrix(.706149 0 0 .758651 14.9298 13.9043)"><path d="m-20.624-17.021h130.663v97.553h-130.663z" fill="none"/><g fill-rule="nonzero" transform="matrix(1.41613 0 0 1.31813 -19.3517 -16.351)"><path d="m72.58 71.55c6.17-.45 8.91-3.42 9.61-10.07.55-5.17.75-7.76 1.02-12.94.32-6.18 3.46-9.74 6.5-11.39.91-.51.91-1.7 0-2.27-3.16-1.89-6.23-5.92-6.51-11.23-.27-5.08-.47-7.62-1.01-12.71-.76-7.16-3.09-9.47-9.26-9.93-18.58-1.07-36.86-1.07-55.45 0-6.17.46-8.5 2.76-9.26 9.93-.54 5.08-.74 7.62-1.01 12.71-.28 5.31-3.35 9.34-6.51 11.23-.91.51-.91 1.76 0 2.27 3.04 1.6 6.17 5.16 6.5 11.39.27 5.17.47 7.76 1.02 12.94.7 6.64 3.44 9.62 9.61 10.07 18.36 1.04 36.42 1.04 54.77 0z" fill="#191a1b"/><path d="m68.43 66.49c5.46-.4 7.89-3.03 8.51-8.91.48-4.58.66-6.87.9-11.45.28-5.47 3.06-8.62 5.75-10.08.81-.45.81-1.5 0-2.01-2.8-1.67-5.51-5.23-5.76-9.94-.24-4.5-.42-6.75-.9-11.24-.67-6.34-2.73-8.38-8.2-8.78-16.31-1.28-32.76-1.13-49.07 0-5.46.4-7.52 2.45-8.2 8.78-.48 4.5-.66 6.75-.9 11.24-.25 4.7-2.96 8.27-5.76 9.94-.81.46-.81 1.55 0 2.01 2.69 1.41 5.46 4.56 5.75 10.08.24 4.58.42 6.87.9 11.45.62 5.88 3.04 8.51 8.51 8.91 16.11 1.11 32.36 1.25 48.47 0z" fill="var(--color-green)"/><path d="m30.23 43.33c.6-.78 1.29-1.12 2.07-1.12.86 0 1.73.35 2.59.95 2.76 1.81 5.87 2.85 9.58 2.85 2.85 0 5.09-1.21 5.09-3.62 0-6.3-20.97-2.85-20.97-17 0-7.59 6.21-11.82 14.24-11.82 5.7 0 9.84 1.64 12.95 3.62.78.52 1.29 1.55 1.29 2.59 0 .6-.17 1.21-.52 1.73l-.95 1.38c-.69.95-1.47 1.38-2.42 1.38-.69 0-1.38-.26-2.16-.6-2.33-1.21-4.75-1.81-7.68-1.81s-4.83 1.64-4.83 3.37c0 6.47 20.97 2.93 20.97 16.66 0 7.68-6.21 12.43-15.71 12.43-6.04 0-10.44-1.81-14.5-5.35-.69-.6-.95-1.38-.95-2.16 0-.6.17-1.29.6-1.81l1.29-1.64z" fill="var(--color-logo-s-hole)"/></g></g></svg>