<svg xmlns="http://www.w3.org/2000/svg" fill="none" viewBox="0 0 14 14" id="Expand--Streamline-Flex">
  <desc>
    Expand Streamline Icon: https://streamlinehq.com
  </desc>
  <g id="expand--big-bigger-design-expand-larger-resize-size-square">
    <path id="Intersect" stroke="currentColor" stroke-linecap="round" stroke-linejoin="round" d="M3.58076 8.42295c0.09849 1.03852 0.94191 1.88265 1.97998 1.98595 0.47133 0.0469 0.95184 0.0816 1.43963 0.0816 0.48779 0 0.9683 -0.0347 1.43964 -0.0816 1.03806 -0.1033 1.88149 -0.94743 1.97999 -1.98595 0.0444 -0.46787 0.0768 -0.9448 0.0768 -1.42893 0 -0.48412 -0.0324 -0.96105 -0.0768 -1.42892 -0.0985 -1.03852 -0.94193 -1.8827 -1.97999 -1.98593 -0.47134 -0.04687 -0.95184 -0.08161 -1.43964 -0.08161 -0.48779 0 -0.9683 0.03474 -1.43963 0.08161 -1.03807 0.10323 -1.88149 0.94741 -1.97998 1.98593 -0.04437 0.46787 -0.07685 0.9448 -0.07685 1.42892 0 0.48413 0.03248 0.96106 0.07685 1.42893Z" stroke-width="1"></path>
    <path id="Intersect_2" stroke="currentColor" stroke-linecap="round" stroke-linejoin="round" d="M3.16797 1.03802c-0.09115 0.00982 -0.182 0.01989 -0.27256 0.0301 -0.95984 0.10819 -1.73116 0.87943 -1.83518 1.83973 -0.00962 0.08883 -0.01909 0.17795 -0.02832 0.26734" stroke-width="1"></path>
    <path id="Intersect_3" stroke="currentColor" stroke-linecap="round" stroke-linejoin="round" d="M3.17188 12.9599c-0.09115 -0.0098 -0.18201 -0.0199 -0.27256 -0.0301 -0.95984 -0.1082 -1.73117 -0.8794 -1.83518 -1.8397 -0.00962 -0.0889 -0.0191 -0.178 -0.02833 -0.2674" stroke-width="1"></path>
    <path id="Intersect_4" stroke="currentColor" stroke-linecap="round" stroke-linejoin="round" d="M0.762599 7.81369c-0.016799 -0.54616 -0.016799 -1.08705 0 -1.63321" stroke-width="1"></path>
    <path id="Intersect_5" stroke="currentColor" stroke-linecap="round" stroke-linejoin="round" d="M10.8418 1.03534c0.0911 0.00982 0.182 0.01988 0.2726 0.03009 0.9598 0.10819 1.7311 0.87944 1.8351 1.83973 0.0097 0.08883 0.0191 0.17795 0.0284 0.26735" stroke-width="1"></path>
    <path id="Intersect_6" stroke="currentColor" stroke-linecap="round" stroke-linejoin="round" d="M10.8457 12.9545c0.0911 -0.0098 0.182 -0.0199 0.2726 -0.0301 0.9598 -0.1082 1.7311 -0.8794 1.8351 -1.8397 0.0097 -0.0888 0.0191 -0.1779 0.0284 -0.2673" stroke-width="1"></path>
    <path id="Intersect_7" stroke="currentColor" stroke-linecap="round" stroke-linejoin="round" d="M13.2374 7.81961c0.0168 -0.54616 0.0168 -1.08705 0 -1.63321" stroke-width="1"></path>
    <path id="Intersect_8" stroke="currentColor" stroke-linecap="round" stroke-linejoin="round" d="M7.81387 13.2374c-0.54615 0.0168 -1.08705 0.0168 -1.63321 0" stroke-width="1"></path>
    <path id="Intersect_9" stroke="currentColor" stroke-linecap="round" stroke-linejoin="round" d="M7.81973 0.762599C7.27358 0.7458 6.73268 0.7458 6.18652 0.762599" stroke-width="1"></path>
  </g>
</svg>