<svg width="21" height="20" viewBox="0 0 21 20" fill="none" xmlns="http://www.w3.org/2000/svg" class="c-search-form__icon">
<path d="M18.9527 17.5263L13.8841 12.5863C15.3668 10.8504 15.8221 8.48954 15.0873 6.34748C14.3525 4.20485 12.5326 2.58529 10.2761 2.06735C8.01979 1.5493 5.64927 2.20614 4.01037 3.80333C2.37147 5.40051 1.69775 7.71087 2.22922 9.91012C2.76076 12.1092 4.42235 13.883 6.62073 14.5993C8.81834 15.3155 11.2407 14.8717 13.0219 13.4267L18.0905 18.3667C18.3296 18.5915 18.7096 18.5878 18.9449 18.3592C19.1794 18.1299 19.1832 17.7596 18.9525 17.5265L18.9527 17.5263ZM8.75241 13.7478C7.30403 13.7478 5.915 13.1874 4.89076 12.1892C3.86654 11.191 3.29085 9.83644 3.29085 8.42493C3.29085 7.01328 3.86654 5.65948 4.89076 4.66122C5.91498 3.66296 7.30397 3.10189 8.75241 3.10189C10.2008 3.10189 11.5906 3.66297 12.6146 4.66122C13.6389 5.65946 14.2138 7.01323 14.2138 8.42493C14.2123 9.83657 13.6366 11.1896 12.6124 12.1871C11.5889 13.1854 10.2008 13.7463 8.75241 13.7478Z" />
</svg>
