<svg width="30px" height="30px" viewBox="0 0 39 31" version="1.1" xmlns="http://www.w3.org/2000/svg" xmlns:xlink="http://www.w3.org/1999/xlink">
  <g fill="currentColor">
    <path d="M31.9151416,31 C34.7652925,31 35.8112194,29.7827903 35.8112194,26.8045113 L35.8112194,21.0033417 C35.8112194,18.2322473 37.1709244,16.6524645 38.4783331,15.9014202 C38.8705556,15.6683375 38.8705556,15.1244779 38.4783331,14.8654971 C37.1186281,14.0108605 35.8112194,12.2238931 35.8112194,9.84126984 L35.8112194,4.14369256 C35.8112194,0.932330827 34.9221815,0 32.0720307,0 L6.47296933,0 C3.62281847,0 2.73378059,0.932330827 2.73378059,4.14369256 L2.73378059,9.84126984 C2.73378059,12.2238931 1.42637194,14.0108605 0.066666946,14.8654971 C-0.325555649,15.0985798 -0.325555649,15.6683375 0.066666946,15.9014202 C1.3740756,16.6265664 2.73378059,18.2063492 2.73378059,21.0033417 L2.73378059,26.8045113 C2.73378059,29.7827903 3.77970751,31 6.62985836,31 L31.9151416,31 Z M19.706165,25 C16.6016874,25 14.3462977,24.112801 12.2501119,22.3637516 C11.90517,22.0595691 11.7725,21.6793409 11.7725,21.2991128 C11.7725,20.9949303 11.852102,20.6653992 12.090908,20.4119138 L12.7277239,19.626109 C13.0461318,19.2458809 13.3910738,19.0684411 13.7890837,19.0684411 C14.2401617,19.0684411 14.6647056,19.2458809 15.1157836,19.5247148 C16.5486194,20.4119138 18.1406592,20.9188847 20.051107,20.9188847 C21.5104768,20.9188847 22.6779726,20.3358682 22.6779726,19.1444867 C22.6779726,16.0519645 11.90517,17.7503169 11.90517,10.8048162 C11.90517,7.07858048 15.0892496,5 19.2285531,5 C22.1472927,5 24.2965464,5.81115336 25.8885862,6.77439797 C26.2865962,7.0278834 26.5519362,7.53485425 26.5519362,8.0418251 C26.5519362,8.3460076 26.4723342,8.62484157 26.2865962,8.878327 L25.8089842,9.56273764 C25.4640423,10.0190114 25.0660323,10.2471483 24.5618864,10.2471483 C24.2169444,10.2471483 23.8454685,10.1204056 23.4474585,9.94296578 C22.2534287,9.3599493 21.0063308,9.05576679 19.493893,9.05576679 C17.9283872,9.05576679 16.9996973,9.86692015 16.9996973,10.7034221 C16.9996973,13.8719899 27.7725,12.148289 27.7725,18.8910013 C27.7725,22.6679341 24.5884204,25 19.706165,25 L19.706165,25 Z"></path>
  </g>
</svg>
