<svg width="181px" height="98px" viewBox="0 0 181 98" version="1.1" xmlns="http://www.w3.org/2000/svg" xmlns:xlink="http://www.w3.org/1999/xlink">
  <path d="M125.982989,6.83879819 C136.766815,12.0407424 143.416841,26.0321784 146.36442,40.9205013 C149.347946,55.8088243 148.593078,71.6299096 141.22413,82.9306849 C133.855182,94.1955847 119.836208,100.940174 108.764814,96.7427435 C97.6574729,92.5094373 89.4977112,77.369986 79.3609148,71.8451625 C69.1881722,66.3562145 57.0024488,70.5536453 40.1437342,65.638705 C23.2490734,60.7596401 1.71736747,46.839955 0.099793564,32.9920209 C-1.51778034,19.1799623 16.8147239,5.47553006 34.3564142,1.42160116 C51.8621584,-2.59645226 68.5770887,3.0718731 84.3933669,4.11226193 C100.245591,5.15265077 115.163217,1.63685402 125.982989,6.83879819 Z" fill="#EFFEFF"></path>
  <g transform="translate(2.000000, 24.000000)" fill="currentColor">
    <path d="M31.9151416,31 C34.7652925,31 35.8112194,29.7827903 35.8112194,26.8045113 L35.8112194,21.0033417 C35.8112194,18.2322473 37.1709244,16.6524645 38.4783331,15.9014202 C38.8705556,15.6683375 38.8705556,15.1244779 38.4783331,14.8654971 C37.1186281,14.0108605 35.8112194,12.2238931 35.8112194,9.84126984 L35.8112194,4.14369256 C35.8112194,0.932330827 34.9221815,0 32.0720307,0 L6.47296933,0 C3.62281847,0 2.73378059,0.932330827 2.73378059,4.14369256 L2.73378059,9.84126984 C2.73378059,12.2238931 1.42637194,14.0108605 0.066666946,14.8654971 C-0.325555649,15.0985798 -0.325555649,15.6683375 0.066666946,15.9014202 C1.3740756,16.6265664 2.73378059,18.2063492 2.73378059,21.0033417 L2.73378059,26.8045113 C2.73378059,29.7827903 3.77970751,31 6.62985836,31 L31.9151416,31 Z M19.706165,25 C16.6016874,25 14.3462977,24.112801 12.2501119,22.3637516 C11.90517,22.0595691 11.7725,21.6793409 11.7725,21.2991128 C11.7725,20.9949303 11.852102,20.6653992 12.090908,20.4119138 L12.7277239,19.626109 C13.0461318,19.2458809 13.3910738,19.0684411 13.7890837,19.0684411 C14.2401617,19.0684411 14.6647056,19.2458809 15.1157836,19.5247148 C16.5486194,20.4119138 18.1406592,20.9188847 20.051107,20.9188847 C21.5104768,20.9188847 22.6779726,20.3358682 22.6779726,19.1444867 C22.6779726,16.0519645 11.90517,17.7503169 11.90517,10.8048162 C11.90517,7.07858048 15.0892496,5 19.2285531,5 C22.1472927,5 24.2965464,5.81115336 25.8885862,6.77439797 C26.2865962,7.0278834 26.5519362,7.53485425 26.5519362,8.0418251 C26.5519362,8.3460076 26.4723342,8.62484157 26.2865962,8.878327 L25.8089842,9.56273764 C25.4640423,10.0190114 25.0660323,10.2471483 24.5618864,10.2471483 C24.2169444,10.2471483 23.8454685,10.1204056 23.4474585,9.94296578 C22.2534287,9.3599493 21.0063308,9.05576679 19.493893,9.05576679 C17.9283872,9.05576679 16.9996973,9.86692015 16.9996973,10.7034221 C16.9996973,13.8719899 27.7725,12.148289 27.7725,18.8910013 C27.7725,22.6679341 24.5884204,25 19.706165,25 L19.706165,25 Z"></path>
    <path d="M49.5372059,21.3868066 C49.7921078,21.0554723 50.0725,20.928036 50.4038725,20.928036 C50.7352451,20.928036 51.1430882,21.0809595 51.4744608,21.3358321 C52.6215196,22.1004498 53.9215196,22.5337331 55.4764216,22.5337331 C56.6744608,22.5337331 57.617598,22.0494753 57.617598,21.0044978 C57.617598,18.3793103 48.8744608,19.8065967 48.8744608,13.9445277 C48.8744608,10.7841079 51.4744608,9 54.8136765,9 C57.1842647,9 58.917598,9.66266867 60.217598,10.5292354 C60.5489706,10.7331334 60.7528922,11.1664168 60.7528922,11.5997001 C60.7528922,11.8545727 60.7019118,12.083958 60.5489706,12.3388306 L60.1411275,12.9250375 C59.8607353,13.3328336 59.5293627,13.5112444 59.1470098,13.5112444 C58.8666176,13.5112444 58.5607353,13.3838081 58.2293627,13.2563718 C57.2607353,12.7721139 56.2411275,12.4917541 55.0430882,12.4917541 C53.7940686,12.4917541 53.0293627,13.1544228 53.0293627,13.8935532 C53.0293627,16.5697151 61.7725,15.1169415 61.7725,20.826087 C61.7725,24.011994 59.1725,26 55.2215196,26 C52.6979902,26 50.8626961,25.2353823 49.1803431,23.7826087 C48.899951,23.5277361 48.7725,23.1964018 48.7725,22.8650675 C48.7725,22.6101949 48.8234804,22.3298351 49.027402,22.1004498 L49.5372059,21.3868066 L49.5372059,21.3868066 Z M75.5882895,23.1745455 C75.7198684,23.3527273 75.7725,23.5818182 75.7725,23.7854545 C75.7725,24.2436364 75.5619737,24.7272727 75.1409211,24.9309091 C73.8777632,25.6690909 72.6146053,26 70.9567105,26 C67.1935526,26 65.7725,23.6327273 65.7725,19.4836364 L65.7725,6.34909091 C65.7725,5.61090909 66.4040789,5 67.1672368,5 L68.6672368,5 C69.4303947,5 70.0619737,5.61090909 70.0619737,6.34909091 L70.0619737,9.50545455 L74.0882895,9.50545455 C74.8514474,9.50545455 75.4830263,10.1163636 75.4830263,10.8545455 L75.4830263,12.0763636 C75.4830263,12.8145455 74.8514474,13.4254545 74.0882895,13.4254545 L70.0619737,13.4254545 L70.0619737,19.3309091 C70.0619737,21.0872727 70.6672368,22.2581818 72.0619737,22.2581818 C72.5093421,22.2581818 72.9040789,22.2072727 73.2461842,22.08 C73.5882895,21.9527273 73.8514474,21.9018182 74.0882895,21.9018182 C74.5619737,21.9018182 74.9303947,22.1054545 75.2461842,22.64 L75.5882895,23.1745455 L75.5882895,23.1745455 Z M77.7725,20.9361702 C77.7725,17.3191489 80.5087429,15.6139818 83.9356879,15.6139818 C85.4233539,15.6139818 86.9110199,16.0790274 87.7345493,16.6732523 L87.7345493,16.1823708 C87.7345493,13.7796353 86.9375854,12.4878419 84.5998245,12.4878419 C83.3246822,12.4878419 82.5011528,12.668693 81.7041888,12.9270517 C81.4916651,12.9787234 81.2525759,13.056231 81.0400522,13.056231 C80.4821774,13.056231 80.0305645,12.7978723 79.7649099,12.281155 L79.5523861,11.8419453 C79.4992552,11.6610942 79.3929934,11.4802432 79.3929934,11.2477204 C79.3929934,10.7826748 79.7383444,10.2917933 80.1899573,10.0851064 C81.6510579,9.43920973 83.3246822,9 85.0514374,9 C90.0457448,9 91.7725,11.4802432 91.7725,15.8206687 L91.7725,24.449848 C91.7725,25.1990881 91.1349288,25.8191489 90.3645304,25.8191489 L89.3816082,25.8191489 C88.6112097,25.8191489 87.9736385,25.1990881 87.9736385,24.449848 L87.9736385,23.9072948 C87.0704127,25.1474164 85.2639611,26 82.9793311,26 C79.9774336,25.9741641 77.7725,24.1139818 77.7725,20.9361702 L77.7725,20.9361702 Z M87.7444626,18.8051948 C86.9313785,18.2597403 85.9220327,18 84.6323131,18 C83.1182944,18 81.7725,18.6493506 81.7725,20.0519481 C81.7725,21.2987013 82.8659579,22 84.3239019,22 C86.2304439,22 87.2117523,21.2207792 87.7725,20.5194805 L87.7444626,18.8051948 L87.7444626,18.8051948 Z M104.588289,23.1745455 C104.719868,23.3527273 104.7725,23.5818182 104.7725,23.7854545 C104.7725,24.2436364 104.561974,24.7272727 104.140921,24.9309091 C102.877763,25.6690909 101.614605,26 99.9567105,26 C96.1935526,26 94.7725,23.6327273 94.7725,19.4836364 L94.7725,6.34909091 C94.7725,5.61090909 95.4040789,5 96.1672368,5 L97.6672368,5 C98.4303947,5 99.0619737,5.61090909 99.0619737,6.34909091 L99.0619737,9.50545455 L103.088289,9.50545455 C103.851447,9.50545455 104.483026,10.1163636 104.483026,10.8545455 L104.483026,12.0763636 C104.483026,12.8145455 103.851447,13.4254545 103.088289,13.4254545 L99.0619737,13.4254545 L99.0619737,19.3309091 C99.0619737,21.0872727 99.6672368,22.2581818 101.061974,22.2581818 C101.509342,22.2581818 101.904079,22.2072727 102.246184,22.08 C102.588289,21.9527273 102.851447,21.9018182 103.088289,21.9018182 C103.561974,21.9018182 103.930395,22.1054545 104.246184,22.64 L104.588289,23.1745455 L104.588289,23.1745455 Z M107.7725,20.9361702 C107.7725,17.3191489 110.508743,15.6139818 113.935688,15.6139818 C115.423354,15.6139818 116.91102,16.0790274 117.734549,16.6732523 L117.734549,16.1823708 C117.734549,13.7796353 116.937585,12.4878419 114.599824,12.4878419 C113.324682,12.4878419 112.501153,12.668693 111.704189,12.9270517 C111.491665,12.9787234 111.252576,13.056231 111.040052,13.056231 C110.482177,13.056231 110.030565,12.7978723 109.76491,12.281155 L109.552386,11.8419453 C109.499255,11.6610942 109.392993,11.4802432 109.392993,11.2477204 C109.392993,10.7826748 109.738344,10.2917933 110.189957,10.0851064 C111.651058,9.43920973 113.324682,9 115.051437,9 C120.045745,9 121.7725,11.4802432 121.7725,15.8206687 L121.7725,24.449848 C121.7725,25.1990881 121.134929,25.8191489 120.36453,25.8191489 L119.381608,25.8191489 C118.61121,25.8191489 117.973639,25.1990881 117.973639,24.449848 L117.973639,23.9072948 C117.070413,25.1474164 115.263961,26 112.979331,26 C110.003999,25.9741641 107.7725,24.1139818 107.7725,20.9361702 L107.7725,20.9361702 Z M117.744463,18.8051948 C116.931379,18.2597403 115.922033,18 114.632313,18 C113.118294,18 111.7725,18.6493506 111.7725,20.0519481 C111.7725,21.2987013 112.865958,22 114.323902,22 C116.230444,22 117.211752,21.2207792 117.7725,20.5194805 L117.744463,18.8051948 L117.744463,18.8051948 Z M130.068566,11.1282844 C131.233163,9.81452859 133.174156,9 135.19279,9 C137.703142,9 139.385336,10.1561051 139.980575,11.6800618 C141.145171,10.1035549 142.982645,9 145.518877,9 C148.520947,9 150.7725,10.4976816 150.7725,15.0958269 L150.7725,24.6074189 C150.7725,25.3693972 150.151382,26 149.400864,26 L147.925709,26 C147.175192,26 146.554073,25.3693972 146.554073,24.6074189 L146.554073,16.1731066 C146.554073,14.0973725 145.725916,12.9675425 143.733163,12.9675425 C142.154488,12.9675425 140.912252,13.755796 140.342893,14.885626 C140.342893,15.1483771 140.368773,15.7264297 140.368773,16.1205564 L140.368773,24.5548686 C140.368773,25.316847 139.747655,25.9474498 138.997138,25.9474498 L137.521982,25.9474498 C136.771465,25.9474498 136.150347,25.316847 136.150347,24.5548686 L136.150347,15.8840804 C136.150347,14.1236476 135.19279,12.9938176 133.432955,12.9938176 C131.9578,12.9938176 130.741444,13.6506955 129.990927,14.7805255 L129.990927,24.6074189 C129.990927,25.3693972 129.369808,26 128.619291,26 L127.144136,26 C126.393618,26 125.7725,25.3693972 125.7725,24.6074189 L125.7725,10.6553323 C125.7725,9.89335394 126.393618,9.26275116 127.144136,9.26275116 L128.619291,9.26275116 C129.369808,9.26275116 129.990927,9.89335394 129.990927,10.6553323 L129.990927,11.1282844 L130.068566,11.1282844 L130.068566,11.1282844 Z M159.7725,3.39795918 C159.7725,5.05612245 158.567372,6 157.387885,6 C155.977628,6 154.7725,5.05612245 154.7725,3.39795918 C154.7725,1.94387755 155.977628,1 157.387885,1 C158.567372,1 159.7725,1.94387755 159.7725,3.39795918 Z M158.471887,9.02511774 C159.183543,9.02511774 159.7725,9.62794349 159.7725,10.3563579 L159.7725,23.6687598 C159.7725,24.3971743 159.183543,25 158.471887,25 L157.073113,25 C156.361457,25 155.7725,24.3971743 155.7725,23.6687598 L155.7725,10.3312402 C155.7725,9.60282575 156.361457,9 157.073113,9 L158.471887,9.02511774 Z M175.492839,13.518018 C174.526737,13.0585586 173.687754,12.8798799 172.645381,12.8798799 C170.331822,12.8798799 168.145381,14.6411411 168.145381,17.4744745 C168.145381,20.3333333 170.357246,22.1201201 172.797924,22.1201201 C174.06911,22.1201201 174.984364,21.7882883 175.925042,21.1756757 C176.204703,20.996997 176.509788,20.8948949 176.789449,20.8948949 C177.221653,20.8948949 177.603008,21.0735736 177.908093,21.4309309 L178.518263,22.1966967 C178.696229,22.3753754 178.7725,22.6561562 178.7725,22.9369369 C178.7725,23.3708709 178.594534,23.8558559 178.289449,24.0855856 C176.357246,25.6426426 174.653856,26 172.645381,26 C167.306398,26 163.7725,22.6051051 163.7725,17.5 C163.7725,12.7777778 167.204703,9 172.136907,9 C174.297924,9 175.874195,9.35735736 177.450466,10.2252252 C177.857246,10.4294294 178.086059,10.9654655 178.086059,11.4249249 C178.086059,11.6291291 178.060636,11.8333333 177.933517,12.012012 L177.399619,12.9564565 C177.119958,13.4159159 176.662331,13.7222222 176.17928,13.7222222 C175.97589,13.6711712 175.721653,13.6456456 175.492839,13.518018 L175.492839,13.518018 Z"></path>
  </g>
</svg>