<svg xmlns="http://www.w3.org/2000/svg" version="1.1" xmlns:xlink="http://www.w3.org/1999/xlink" xmlns:svgjs="http://svgjs.com/svgjs" viewBox="0 0 20 20" height="20" width="20"><title>video game tetris (From Streamline App : https://app.streamlineicons.com)</title><g transform="matrix(0.8333333333333334,0,0,0.8333333333333334,0,0)"><path d="M 0.75,10.5c0-0.414,0.336-0.75,0.75-0.75h3c0.414,0,0.75,0.336,0.75,0.75V18c0,0.414,0.336,0.75,0.75,0.75h3 c0.414,0,0.75,0.336,0.75,0.75v3.75H1.5c-0.414,0-0.75-0.336-0.75-0.75V10.5z " stroke="currentColor" fill="none" stroke-width="1.5" stroke-linecap="round" stroke-linejoin="round"></path><path d="M 22.5,5.25c0.414,0,0.75,0.336,0.75,0.75v7.5 c0,0.414-0.336,0.75-0.75,0.75h-3c-0.414,0-0.75-0.336-0.75-0.75v-3c0-0.414-0.336-0.75-0.75-0.75h-3 c-0.414,0-0.75-0.336-0.75-0.75V1.5c0-0.414,0.336-0.75,0.75-0.75h3c0.414,0,0.75,0.336,0.75,0.75v3c0,0.414,0.336,0.75,0.75,0.75 H22.5z " stroke="currentColor" fill="none" stroke-width="1.5" stroke-linecap="round" stroke-linejoin="round"></path><path d="M 13.5,14.25c0.414,0,0.75,0.336,0.75,0.75v3c0,0.414,0.336,0.75,0.75,0.75h3c0.414,0,0.75,0.336,0.75,0.75v3 c0,0.414-0.336,0.75-0.75,0.75H9.75V19.5c0-0.414-0.336-0.75-0.75-0.75H6c-0.414,0-0.75-0.336-0.75-0.75v-3.75H13.5z" stroke="currentColor" fill="none" stroke-width="1.5" stroke-linecap="round" stroke-linejoin="round"></path></g></svg>