<svg xmlns="http://www.w3.org/2000/svg" version="1.1" xmlns:xlink="http://www.w3.org/1999/xlink" xmlns:svgjs="http://svgjs.com/svgjs" viewBox="0 0 20 20" height="20" width="20"><title>vintage tv 1 (From Streamline App : https://app.streamlineicons.com)</title><g transform="matrix(0.8333333333333334,0,0,0.8333333333333334,0,0)"><path d="M 23.25,19.9c0.008,0.599-0.472,1.092-1.071,1.1H1.821c-0.599-0.008-1.079-0.501-1.071-1.1V5.6 C0.742,5.001,1.222,4.508,1.821,4.5h20.358c0.599,0.008,1.079,0.501,1.071,1.1V19.9z " stroke="currentColor" fill="none" stroke-width="1.5" stroke-linecap="round" stroke-linejoin="round"></path><path d="M 3.75,21v2.25 " stroke="currentColor" fill="none" stroke-width="1.5" stroke-linecap="round" stroke-linejoin="round"></path><path d="M 20.25,21v2.25 " stroke="currentColor" fill="none" stroke-width="1.5" stroke-linecap="round" stroke-linejoin="round"></path><path d="M 6.75,0.75 L12,4.5l5.25-3.75 " stroke="currentColor" fill="none" stroke-width="1.5" stroke-linecap="round" stroke-linejoin="round"></path><path d="M 19.505,15.118c-0.039,1.617-1.376,2.899-2.993,2.87l-9,0.021c-1.617,0.036-2.96-1.24-3.007-2.856l-0.011-4.772 c0.04-1.617,1.377-2.899,2.994-2.871l9-0.02c1.617-0.036,2.96,1.239,3.006,2.856L19.505,15.118z" stroke="currentColor" fill="none" stroke-width="1.5" stroke-linecap="round" stroke-linejoin="round"></path></g></svg>