<svg xmlns="http://www.w3.org/2000/svg" viewBox="0 0 24 24"><path fill="currentColor" d="M8.528,16.9a.781.781,0,0,0,.193.493.7.7,0,0,0,.7.2,7.794,7.794,0,0,0,2.115-.839c1.45-.8,2.813-1.99,4.072-2.8.419-.289,1.136-.614,1.677-.995a3.009,3.009,0,0,0,.752-.727.784.784,0,0,0-.052-.865,11.426,11.426,0,0,0-1.7-1.629,29.5,29.5,0,0,0-2.936-2.012A24.338,24.338,0,0,0,10.171,6.13a.383.383,0,1,0-.3.706A22.939,22.939,0,0,1,12.863,8.5a27.017,27.017,0,0,1,2.744,2.069,7.572,7.572,0,0,1,1.363,1.094,1.9,1.9,0,0,1-.367.289c-.559.358-1.258.655-1.7.928-1.067.683-2.238,1.632-3.443,2.4a9.813,9.813,0,0,1-1.556.843v-.18l-.14-2.337L9.332,6.622A.349.349,0,0,0,8.983,6.3a.353.353,0,0,0-.332.357l.07,7v2.317C8.721,16.217,8.528,16.676,8.528,16.9Z"/><path fill="currentColor" d="M19,2.731C15.67.37,11.257-.406,7.71,1.421a.388.388,0,0,0-.171.515.384.384,0,0,0,.514.173C11.347.521,15.363,1.366,18.368,3.6a10.029,10.029,0,0,1,4.278,9.352,11.737,11.737,0,0,1-3.917,6.817,11.284,11.284,0,0,1-7.391,2.856,13.745,13.745,0,0,1-4.936-.9,6.384,6.384,0,0,1-2.717-1.78.342.342,0,0,0-.478-.065.331.331,0,0,0-.063.475A7.2,7.2,0,0,0,6.1,22.447a14.78,14.78,0,0,0,5.234,1.142,12.2,12.2,0,0,0,8.2-2.877,12.81,12.81,0,0,0,4.386-7.595A11.183,11.183,0,0,0,19,2.731Z"/><path fill="currentColor" d="M2.386,17.715a2.48,2.48,0,0,0-.162-.43,3.725,3.725,0,0,0-.226-.4c-.666-1.116-.758-1.271-1.065-1.171-.139.046-.455.087-.054,1.643a2.821,2.821,0,0,0,.163.468,2.571,2.571,0,0,0,.234.432c.927,1.35,1.192,1.032,1.218,1.017C2.629,19.2,2.844,19.158,2.386,17.715Z"/><path fill="currentColor" d="M1.3,11.455c.088-.344.144-.7.2-1.039.273-1.7.466-1.882.1-2.057-.2-.094-.586-.176-1.278,1.714a4.87,4.87,0,0,0-.193.691,5.08,5.08,0,0,0-.1.705C-.1,13.649.339,13.493.383,13.5.611,13.524.787,13.524,1.3,11.455Z"/><path fill="currentColor" d="M3.729,5.641c.136-.123.27-.257.4-.4s.253-.287.374-.435c.961-1.184,1.147-1.3.91-1.589-.117-.144-.3-.408-1.764.719a4.015,4.015,0,0,0-.455.407,3.359,3.359,0,0,0-.392.473c-.968,1.4-.777,1.638-.627,1.751S2.368,6.832,3.729,5.641Z"/></svg>
