<svg class="o-wordmark" width="177" height="20" viewBox="0 0 177 20" fill="none" xmlns="http://www.w3.org/2000/svg">
<path d="M5.38025 19.5545C12.4418 19.5545 15.9859 15.2699 15.9859 10.0597C15.9859 5.16681 12.9972 0.908691 5.59183 0.908691C4.50746 0.908691 2.57677 0.961587 1.12213 0.988035C0.99353 0.987702 0.866131 1.01279 0.747255 1.06185C0.628379 1.11091 0.52037 1.18298 0.429434 1.27391C0.338499 1.36485 0.266432 1.47285 0.217372 1.59173C0.168311 1.71061 0.143226 1.83801 0.143558 1.96661V18.523C0.143558 19.052 0.593173 19.5016 1.12213 19.5016C2.84125 19.528 4.45457 19.5545 5.38025 19.5545ZM5.48604 16.513H5.14473C4.56167 16.5113 3.97875 16.4936 3.39665 16.4601V4.02954C4.1095 3.9762 4.8241 3.94974 5.53893 3.9502C9.95573 3.9502 12.5476 6.33051 12.5476 10.0597C12.5476 13.974 9.95573 16.513 5.48604 16.513ZM24.4051 19.7925C28.3471 19.7925 30.8848 17.1213 30.8848 13.5508C30.8848 9.98032 28.3459 7.30909 24.4051 7.30909C20.4644 7.30909 17.9254 9.98032 17.9254 13.5508C17.9254 17.1213 20.4644 19.7925 24.4051 19.7925ZM24.4051 16.9626C22.5538 16.9626 21.1785 15.5344 21.1785 13.5508C21.1785 11.4879 22.6067 10.1655 24.4051 10.1655C26.2565 10.1655 27.6582 11.5408 27.6582 13.5508C27.6582 15.6137 26.2829 16.9626 24.4051 16.9626ZM39.4905 19.7925C40.9716 19.7925 42.2411 19.528 43.6693 18.3908C43.9073 18.2056 44.0395 17.8618 44.0395 17.5444C44.0395 17.3593 43.9866 17.1477 43.8544 17.0155L43.4048 16.4601C43.3079 16.3353 43.1835 16.2346 43.0413 16.1658C42.8991 16.097 42.7429 16.0619 42.5849 16.0633C42.3576 16.0728 42.1377 16.1462 41.9502 16.2749C41.275 16.7414 40.4695 16.9821 39.6492 16.9626C37.8507 16.9626 36.211 15.6666 36.211 13.5508C36.211 11.4614 37.823 10.1655 39.5169 10.1655C40.3104 10.1655 40.9187 10.2977 41.6328 10.6415C41.7826 10.709 41.9446 10.745 42.1088 10.7473C42.4791 10.7473 42.7965 10.5357 43.0081 10.1919L43.4048 9.50426C43.4798 9.37623 43.5165 9.22937 43.5106 9.0811C43.5106 8.73727 43.3255 8.367 43.0345 8.20831C41.8708 7.57356 40.7071 7.30909 39.1202 7.30909C35.4969 7.30909 32.9579 10.0861 32.9579 13.5508C32.9579 17.3064 35.5498 19.7925 39.4905 19.7925ZM50.7661 19.7925C52.6175 19.7925 53.8605 18.9197 54.5746 18.0469V18.523C54.5746 19.052 55.0242 19.5016 55.5532 19.5016H56.6376C57.1665 19.5016 57.6161 19.052 57.6161 18.523V8.57859C57.6122 8.32027 57.5079 8.07362 57.3252 7.89094C57.1425 7.70826 56.8959 7.60391 56.6376 7.60001H55.5532C55.2949 7.60391 55.0482 7.70826 54.8656 7.89094C54.6829 8.07362 54.5785 8.32027 54.5746 8.57859V15.5079C53.887 16.4072 52.9084 16.9626 51.9034 16.9626C50.2372 16.9626 49.6289 15.8253 49.6289 14.2384V8.57859C49.625 8.32027 49.5206 8.07362 49.3379 7.89094C49.1553 7.70826 48.9086 7.60391 48.6503 7.60001H47.5659C47.3076 7.60391 47.061 7.70826 46.8783 7.89094C46.6956 8.07362 46.5913 8.32027 46.5874 8.57859V14.8732C46.5874 18.285 48.4387 19.7925 50.7661 19.7925ZM63.2319 19.5016C63.7609 19.5016 64.2105 19.052 64.2105 18.523V11.5143C64.7394 10.7209 65.6122 10.2448 66.6966 10.2448C67.9938 10.2448 68.6802 11.0647 68.6802 12.3077V18.523C68.6802 19.052 69.1298 19.5016 69.6588 19.5016H70.7431C71.2721 19.5016 71.7217 19.052 71.7217 18.523V12.4929L71.7192 12.3178L71.7053 11.9312C71.7002 11.8275 71.6968 11.7238 71.6952 11.6201C72.1184 10.8002 73.0176 10.2448 74.1549 10.2448C75.5831 10.2448 76.1914 11.0382 76.1914 12.5193V18.523C76.1914 19.052 76.641 19.5016 77.17 19.5016H78.2543C78.7833 19.5016 79.2329 19.052 79.2329 18.523V11.7259C79.2329 8.47279 77.5931 7.38843 75.4244 7.38843C73.573 7.38843 72.2507 8.18187 71.4043 9.29268C70.9812 8.20831 69.7645 7.38843 67.9409 7.38843C66.4586 7.38843 65.0568 7.97028 64.2105 8.92241V8.57859C64.2066 8.32027 64.1022 8.07362 63.9195 7.89094C63.7369 7.70826 63.4902 7.60391 63.2319 7.60001H62.1488C61.8903 7.60359 61.6433 7.7078 61.4604 7.89051C61.2774 8.07322 61.1729 8.32005 61.169 8.57859V18.523C61.169 19.052 61.6186 19.5016 62.1475 19.5016H63.2319ZM88.1559 19.7925C89.4783 19.7925 90.8801 19.4751 92.1483 18.6817C92.2803 18.596 92.3884 18.4783 92.4626 18.3396C92.5368 18.2008 92.5747 18.0456 92.5727 17.8883C92.5732 17.7001 92.518 17.5161 92.414 17.3593L92.1747 17.0155C91.9644 16.7245 91.6999 16.5659 91.409 16.5659C91.2239 16.5659 91.0123 16.6452 90.8007 16.751C90.1395 17.0684 89.4519 17.2535 88.4733 17.2535C86.5955 17.2535 85.1673 16.2749 84.9028 14.4765H92.6256C93.1017 14.4765 93.6306 13.974 93.6571 13.5243C93.6823 13.3128 93.6823 13.1012 93.6823 12.8367C93.6823 9.50426 91.1181 7.30909 88.0501 7.30909C84.1358 7.30909 81.7555 10.0861 81.7555 13.5508C81.7555 17.3064 84.321 19.7925 88.1559 19.7925ZM90.642 12.44H84.797C85.1144 10.8796 86.093 9.84809 87.9179 9.84809C89.637 9.84809 90.642 10.9589 90.642 12.3871V12.44ZM98.5588 19.5016C99.0877 19.5016 99.5373 19.052 99.5373 18.523V11.3821C100.251 10.668 101.098 10.2448 102.129 10.2448C103.822 10.2448 104.8 11.144 104.8 13.0483V18.523C104.8 19.052 105.25 19.5016 105.779 19.5016H106.863C107.392 19.5016 107.842 19.052 107.842 18.523V12.5193C107.842 8.79017 105.858 7.38843 102.949 7.38843C101.521 7.38843 100.251 8.02318 99.5373 8.68438C99.5373 8.04963 99.0877 7.60001 98.5588 7.60001H97.4744C97.2161 7.60391 96.9694 7.70826 96.7868 7.89094C96.6041 8.07362 96.4997 8.32027 96.4958 8.57859V18.523C96.4958 19.052 96.9454 19.5016 97.4744 19.5016H98.5588ZM114.542 19.7661C115.732 19.7661 116.633 19.5016 117.531 18.9726C117.822 18.8139 117.98 18.4701 117.98 18.1263C117.977 17.9673 117.931 17.8121 117.848 17.6767L117.584 17.2006C117.372 16.8303 117.108 16.6716 116.765 16.6716C116.579 16.6716 116.393 16.7245 116.155 16.8039C115.917 16.8832 115.626 16.9361 115.309 16.9361C114.304 16.9361 113.881 16.0898 113.881 14.7938V10.4564H116.737C117.266 10.4564 117.716 10.0068 117.716 9.47782V8.57859C117.712 8.32027 117.608 8.07362 117.425 7.89094C117.242 7.70826 116.996 7.60391 116.737 7.60001H113.881V5.2726C113.877 5.01428 113.773 4.76763 113.59 4.58495C113.407 4.40228 113.161 4.29792 112.902 4.29402H111.819C111.561 4.2976 111.314 4.40181 111.131 4.58452C110.948 4.76723 110.843 5.01406 110.839 5.2726V14.979C110.839 18.0205 111.844 19.7661 114.542 19.7661ZM123.597 19.6603C125.209 19.6603 126.48 19.0255 127.115 18.1263V18.523C127.115 19.052 127.565 19.5016 128.094 19.5016H128.781C129.31 19.5016 129.76 19.052 129.76 18.523V12.2548C129.76 9.10754 128.517 7.30909 124.999 7.30909C123.783 7.30909 122.592 7.62646 121.561 8.10252C121.244 8.26121 121.005 8.60503 121.005 8.94886C121.012 9.09553 121.048 9.23937 121.111 9.37202L121.27 9.6894C121.348 9.86035 121.476 10.0043 121.636 10.1031C121.796 10.2019 121.981 10.2512 122.169 10.2448C122.328 10.2448 122.487 10.2184 122.645 10.1655C123.301 9.94245 123.99 9.83506 124.682 9.84809C126.348 9.84809 126.903 10.8002 126.903 12.5458V12.916C126.322 12.4929 125.264 12.1491 124.206 12.1491C121.799 12.1491 119.868 13.3921 119.868 16.0105C119.868 18.3114 121.429 19.6603 123.596 19.6603H123.597ZM124.602 17.0948C123.65 17.0948 122.91 16.5923 122.91 15.6931C122.91 14.6881 123.809 14.212 124.814 14.212C125.687 14.212 126.374 14.3971 126.903 14.7938V16.0105C126.533 16.5394 125.871 17.0948 124.602 17.0948ZM136.486 19.7661C137.676 19.7661 138.576 19.5016 139.475 18.9726C139.766 18.8139 139.925 18.4701 139.925 18.1263C139.921 17.9673 139.876 17.8121 139.792 17.6767L139.528 17.2006C139.316 16.8303 139.052 16.6716 138.708 16.6716C138.523 16.6716 138.338 16.7245 138.1 16.8039C137.862 16.8832 137.571 16.9361 137.253 16.9361C136.248 16.9361 135.825 16.0898 135.825 14.7938V10.4564H138.682C139.21 10.4564 139.66 10.0068 139.66 9.47782V8.57859C139.656 8.32027 139.552 8.07362 139.369 7.89094C139.186 7.70826 138.94 7.60391 138.682 7.60001H135.825V5.2726C135.821 5.01428 135.717 4.76763 135.534 4.58495C135.352 4.40228 135.105 4.29792 134.847 4.29402H133.762C133.504 4.29792 133.257 4.40228 133.075 4.58495C132.892 4.76763 132.788 5.01428 132.784 5.2726V14.979C132.784 18.0205 133.789 19.7661 136.486 19.7661ZM144.615 5.2197C145.487 5.2197 146.36 4.53205 146.36 3.31545C146.36 2.23109 145.487 1.54344 144.615 1.54344C143.583 1.54344 142.71 2.23109 142.71 3.31545C142.71 4.53205 143.583 5.2197 144.615 5.2197ZM145.091 19.5016C145.62 19.5016 146.069 19.052 146.069 18.523V8.57859C146.065 8.32027 145.961 8.07362 145.778 7.89094C145.596 7.70826 145.349 7.60391 145.091 7.60001H144.008C143.749 7.60359 143.502 7.7078 143.319 7.89051C143.136 8.07322 143.032 8.32005 143.028 8.57859V18.523C143.028 19.052 143.477 19.5016 144.006 19.5016H145.091ZM155.812 19.7925C159.753 19.7925 162.292 17.1213 162.292 13.5508C162.292 9.98032 159.753 7.30909 155.812 7.30909C151.87 7.30909 149.332 9.98032 149.332 13.5508C149.332 17.1213 151.871 19.7925 155.812 19.7925ZM155.812 16.9626C153.961 16.9626 152.586 15.5344 152.586 13.5508C152.586 11.4879 154.014 10.1655 155.812 10.1655C157.664 10.1655 159.065 11.5408 159.065 13.5508C159.065 15.6137 157.69 16.9626 155.812 16.9626ZM167.167 19.5016C167.696 19.5016 168.146 19.052 168.146 18.523V11.3821C168.86 10.668 169.706 10.2448 170.738 10.2448C172.43 10.2448 173.409 11.144 173.409 13.0483V18.523C173.409 19.052 173.858 19.5016 174.387 19.5016H175.472C176.001 19.5016 176.45 19.052 176.45 18.523V12.5193C176.45 8.79017 174.467 7.38843 171.558 7.38843C170.129 7.38843 168.86 8.02318 168.146 8.68438C168.146 8.04963 167.696 7.60001 167.167 7.60001H166.083C165.824 7.60391 165.578 7.70826 165.395 7.89094C165.212 8.07362 165.108 8.32027 165.104 8.57859V18.523C165.104 19.052 165.554 19.5016 166.083 19.5016H167.167Z" />
</svg>
