<?xml version="1.0" encoding="UTF-8"?>
<svg width="453px" height="13px" viewBox="0 0 453 13" version="1.1" xmlns="http://www.w3.org/2000/svg" xmlns:xlink="http://www.w3.org/1999/xlink">
    <title>HR: Section</title>
    <g id="Final-Pages" stroke="none" stroke-width="1" fill="none" fill-rule="evenodd">
        <g id="Design-v2:-Doc-Components" transform="translate(-494.000000, -4128.000000)" stroke-width="3">
            <g id="Main-Content" transform="translate(361.000000, 1738.000000)">
                <g id="Path-2" transform="translate(134.000000, 2392.000000)">
                    <polyline stroke="#B1D8FC" points="1 9 15.516129 2 30.0322581 9 44.5483871 2 59.0645161 9 73.5806452 2 88.0967742 9 102.612903 2 117.129032 9 131.645161 2 146.16129 9 160.677419 2 175.193548 9 189.709677 2 204.225806 9 218.741935 2 233.258065 9 247.774194 2 262.290323 9 276.806452 2 291.322581 9 305.83871 2 320.354839 9 334.870968 2 349.387097 9 363.903226 2 378.419355 9 392.935484 2 407.451613 9 421.967742 2 436.483871 9 451 2"></polyline>
                    <polyline stroke="#01D7B0" points="0 7 14.516129 0 29.0322581 7 43.5483871 0 58.0645161 7 72.5806452 0 87.0967742 7 101.612903 0 116.129032 7 130.645161 0 145.16129 7 159.677419 0 174.193548 7 188.709677 0 203.225806 7 217.741935 0 232.258065 7 246.774194 0 261.290323 7 275.806452 0 290.322581 7 304.83871 0 319.354839 7 333.870968 0 348.387097 7 362.903226 0 377.419355 7 391.935484 0 406.451613 7 420.967742 0 435.483871 7 450 0"></polyline>
                </g>
            </g>
        </g>
    </g>
</svg>