<svg xmlns="http://www.w3.org/2000/svg" viewBox="0 0 64 64" height="64" width="64"><g transform="matrix(2.6666666666666665,0,0,2.6666666666666665,0,0)"><defs><style>.a{fill-rule:evenodd}</style></defs><path class="a" d="M22.915 1.034C21.537-.243 7.224.575 2.242.709a.339.339 0 0 0 .014.678c1.934-.027 18.031-.569 19.909.282-.095.272.254-1.371.551 7.982.074 2.33.266 9.8.085 12.132-2.215 1.165-18.889.9-21.628-.233a91.263 91.263 0 0 1-.41-9.7C.687 1.645 1.5 1.7.888 1.609a.3.3 0 0 0-.34.251C-.266 6.923-.025 21.047.324 21.965c.086.224.532.55 1.352.748 3.286.795 20.979 1.853 22.158-.378.443-.835-.048-20.499-.919-21.301z"></path><path d="M2.646 19.283c.62 1.539 14.685 1.57 17.511.927a1.828 1.828 0 0 0 1.174-.641c.432-.767-.056-12.726-.417-15.085A1.758 1.758 0 0 0 20.6 3.6C19.338 2.508 3.035 2.926 2.87 4c-.994.862-.477 14.651-.224 15.283zm.646-14.827c.916-.79 15.234-.754 16.58-.17a133.852 133.852 0 0 1 .428 14.787c-1.349.481-12.642.665-16.309-.09-.236-.049-.428-.191-.522-.181-.434-2.277-.264-13.94-.177-14.346z" style="fill:#00D7B0;fill-rule:evenodd"></path><path class="a" d="M12.33 11.291a12.015 12.015 0 0 0 4.511.018.339.339 0 0 0 .006-.678c-2.455-.333-2.235-.412-4.547.063a.3.3 0 0 0 .03.597zm-5.577 2.582c.48-.2 3.1-1.78 3.382-2.769a.636.636 0 0 0-.046-.455 12.23 12.23 0 0 0-2.7-2.422.3.3 0 0 0-.409.436c.35.389 1.487 1.671 1.959 2.3a23.972 23.972 0 0 1-2.495 2.3c-.36.137-.344.891.309.61z"></path></g></svg>
