<svg xmlns="http://www.w3.org/2000/svg" viewBox="0 0 64 64" height="64" width="64"><g transform="matrix(2.6666666666666665,0,0,2.6666666666666665,0,0)"><defs><style>.a{fill:#00D7B0}.a,.b{fill-rule:evenodd}</style></defs><path class="a" d="M5.462 10.39a15.087 15.087 0 0 0 6.4.883 20.988 20.988 0 0 0 4.8-.41 8.327 8.327 0 0 0 2.232-.748.343.343 0 0 0-.318-.607c-1.738.873-5.983.632-6.717.613a22.271 22.271 0 0 1-4.819-.2 5.473 5.473 0 0 1-2.33-.791c-.528 0-.528.5.012.867.262.187.06.086.74.393z"></path><path class="b" d="M20.823 6.028a.343.343 0 0 0-.686 0c.086 7.4.141 7.8-.095 8.759a3.027 3.027 0 0 1-1.823 2.165 19.116 19.116 0 0 1-6.312 1.37 14.926 14.926 0 0 1-4.294-.42 11.361 11.361 0 0 1-2.823-.926c-1.127-.728-.9-10.461-.863-12.04a8.052 8.052 0 0 0 4.986 2.126 29.537 29.537 0 0 0 8.751-.706c2.133-.624 4.1-2 2.78-3.795A4.259 4.259 0 0 0 17.492.97a.343.343 0 0 0 0 .686 3.407 3.407 0 0 1 2.316 1.357C21.852 5.98 9.752 6.854 6.372 5.238c-1.224-.577-2.436-1.29-1.5-2.2C7.736.993 11.463 1.3 15.019 1.41c1.182.076 1.433.169 1.505-.157.081-.367-.369-.407-.744-.445C15.661.8 11.74.491 9.985.545a12.646 12.646 0 0 0-4.072.707c-1.167.47-2.654 1.232-2.513 2.574-.247.68-.062 4.473-.12 5.2-.067.83-.081 2.107-.058 3.345.047 2.589.015 4.249 1.2 5.388a6.15 6.15 0 0 0 2.913 1.252 15.479 15.479 0 0 0 3.689.472 5.021 5.021 0 0 0 .172 2.414c.057.2.1.135-.13.149-.079.005-3.532.388-3.611.4a.3.3 0 0 0 0 .6 54.635 54.635 0 0 0 8.943-.089.343.343 0 0 0 0-.686c-1.634-.1-2.719-.247-4.314-.247-.047-.32-.071.011.066-1a3.277 3.277 0 0 0-.217-1.214c-.111-.4-.145-.325.03-.333a18.951 18.951 0 0 0 6.725-1.595A3.973 3.973 0 0 0 20.957 15c.255-1.2.143-1.981-.134-8.972z"></path><path class="a" d="M14.6 15.6a11 11 0 0 0 4.71-1.629.343.343 0 0 0-.346-.592 9.989 9.989 0 0 1-4.427 1.187c-5.077.227-7.059-.143-9.824-1.239-.476-.1-.479.383.01.718C8.4 15.929 10.506 15.93 14.6 15.6z"></path><path class="b" d="M5.25 22.349c-.6-.033-1.9.243-1.441.637 1.557 1.314 4.048-.486 1.441-.637zm-3.707 0c-.6-.033-1.9.243-1.44.637 1.556 1.314 4.047-.486 1.44-.637zm21.317-.284c-.6-.033-1.9.244-1.441.637 1.557 1.312 4.048-.491 1.441-.637zm-3.707 0c-.6-.033-1.9.244-1.44.637 1.559 1.314 4.047-.491 1.44-.637z"></path></g></svg>