<svg viewBox="0 0 16 16" height="16" width="16" xmlns="http://www.w3.org/2000/svg"><g transform="matrix(0.6666666666666666,0,0,0.6666666666666666,0,0)"><path d="M21.207,4.5a1,1,0,0,1,.293.707V22.5a1,1,0,0,1-1,1H3.5a1,1,0,0,1-1-1V1.5a1,1,0,0,1,1-1H16.793A1,1,0,0,1,17.5.793Z" fill="none" stroke="#000" stroke-linecap="round" stroke-linejoin="round"></path><path d="M6 16L18 16" fill="none" stroke="#000" stroke-linecap="round" stroke-linejoin="round"></path><path d="M6 19L18 19" fill="none" stroke="#000" stroke-linecap="round" stroke-linejoin="round"></path><path d="M6 13L18 13" fill="none" stroke="#000" stroke-linecap="round" stroke-linejoin="round"></path><path d="M6 10L18 10" fill="none" stroke="#000" stroke-linecap="round" stroke-linejoin="round"></path><path d="M6 7L13 7" fill="none" stroke="#000" stroke-linecap="round" stroke-linejoin="round"></path><path d="M6 7L13 7" fill="none" stroke="#000" stroke-linecap="round" stroke-linejoin="round"></path><path d="M6 10L18 10" fill="none" stroke="#000" stroke-linecap="round" stroke-linejoin="round"></path><path d="M6 13L18 13" fill="none" stroke="#000" stroke-linecap="round" stroke-linejoin="round"></path><path d="M6 16L18 16" fill="none" stroke="#000" stroke-linecap="round" stroke-linejoin="round"></path><path d="M6 19L18 19" fill="none" stroke="#000" stroke-linecap="round" stroke-linejoin="round"></path></g></svg>