<svg xmlns="http://www.w3.org/2000/svg" viewBox="0 0 271 279.02"><g id="Layer_2" data-name="Layer 2"><g id="Layer_1-2" data-name="Layer 1"><path d="M270.8,63.13c0-.13-.11-.24-.15-.37a5.11,5.11,0,0,0-.28-.68,3.68,3.68,0,0,0-.3-.39,4.91,4.91,0,0,0-.39-.51,4.46,4.46,0,0,0-.43-.33,3.41,3.41,0,0,0-.48-.37h0l-52.45-30.2a4.35,4.35,0,0,0-4.36,0l-52.45,30.2h0a4.37,4.37,0,0,0-.48.37,4.46,4.46,0,0,0-.43.33,4.91,4.91,0,0,0-.39.51,3.68,3.68,0,0,0-.3.39,4,4,0,0,0-.28.68,2.39,2.39,0,0,0-.15.37,4.35,4.35,0,0,0-.15,1.14v57.36L113.62,146.8V34.58a4.35,4.35,0,0,0-.15-1.14c0-.13-.11-.24-.15-.37a5.11,5.11,0,0,0-.28-.68,3.68,3.68,0,0,0-.3-.39,4.91,4.91,0,0,0-.39-.51,4.46,4.46,0,0,0-.43-.33,3.41,3.41,0,0,0-.48-.37h0L59,.58a4.4,4.4,0,0,0-4.36,0L2.18,30.78h0a4.37,4.37,0,0,0-.48.37,3.37,3.37,0,0,0-.43.34A4,4,0,0,0,.88,32a2.88,2.88,0,0,0-.3.39,3.73,3.73,0,0,0-.28.68,2.39,2.39,0,0,0-.15.37A4.35,4.35,0,0,0,0,34.58V214.24A4.39,4.39,0,0,0,2.19,218l104.91,60.4a4,4,0,0,0,.72.29,3.49,3.49,0,0,0,.34.15,4.26,4.26,0,0,0,2.24,0c.1,0,.19-.09.29-.12a5,5,0,0,0,.76-.31L216.36,218a4.36,4.36,0,0,0,2.19-3.79V156.89L268.81,128a4.36,4.36,0,0,0,2.19-3.79V64.27A10.43,10.43,0,0,0,270.8,63.13ZM109.2,209.21,65.57,184.52l45.82-26.38h0l50.27-28.95,43.67,25.14-32,18.29ZM209.75,97v49.8l-18.36-10.58L166,121.62V71.82l18.36,10.57Zm4.37-57.89,43.69,25.16L214.12,89.43,170.43,64.27ZM79.49,166.43,61.13,177V67.31l25.36-14.6,18.36-10.57V151.81ZM56.76,9.43l43.69,25.16L56.76,59.75,13.07,34.59ZM8.67,42.14,27,52.71l25.36,14.6V184.55h0a3.85,3.85,0,0,0,.07.49,4.69,4.69,0,0,0,.09.64h0a4.25,4.25,0,0,0,.21.49,5.31,5.31,0,0,0,.23.55h0a4.35,4.35,0,0,0,.33.42,4.06,4.06,0,0,0,.36.46h0a4.63,4.63,0,0,0,.42.32,5.32,5.32,0,0,0,.47.36h0l50.24,28.43v50.29L8.67,211.71ZM209.75,211.71l-96.17,55.37v-50.3l71.22-40.66,24.95-14.24v49.83Zm52.45-90.08L218.49,146.8V97l25.36-14.61,18.36-10.56v49.8Z"/></g></g></svg>