<svg xmlns="http://www.w3.org/2000/svg" viewBox="0 0 64 64" height="64" width="64"><g transform="matrix(2.6666666666666665,0,0,2.6666666666666665,0,0)"><defs><style>.a,.b{fill-rule:evenodd}.b{fill:#00D7B0}</style></defs><path class="a" d="m23.262 15.763-.021-1.563c0-.011.058-.147-.38-.459a.279.279 0 0 0-.388.066 9.657 9.657 0 0 0-.7.94c-.316.466-.6.943-.938 1.393-.171.275-.354.539-.529.812s-.341.562-.512.847a21.606 21.606 0 0 0-.951 1.776.3.3 0 0 0 .09.391c-.009 0-.013-.012-.022-.013a.275.275 0 0 0-.307.24 5.328 5.328 0 0 0-.311.827 1.711 1.711 0 0 0-.047.363 2.631 2.631 0 0 0 .017.366c.038.29.107.555.166.843a.3.3 0 0 0 .184.263c-1.016.062-2.024.14-3.037.18-.763.032-1.531.038-2.307 0a8.617 8.617 0 0 1-1.535-.15 1.438 1.438 0 0 1-.712-.332.553.553 0 0 1-.034-.688 1.573 1.573 0 0 1 .725-.72 5.524 5.524 0 0 1 1.433-.391c.8-.116 1.616-.132 2.392-.179.533-.032 1.1-.113 1.659-.147a5.555 5.555 0 0 1 1.049.016.277.277 0 1 0 .085-.547 5.852 5.852 0 0 0-.87-.09c-.644-.023-1.317.029-1.94.02-.806-.011-1.65-.062-2.478 0a6.321 6.321 0 0 0-1.718.364c-.037.015-.074.044-.111.061a5.878 5.878 0 0 1 .392-.653c.444-.659 1-1.269 1.454-1.841l.866-1.136a8.1 8.1 0 0 1 1.335-1.575 3.163 3.163 0 0 1 1.1-.617l1.185-.266 1.574-.2a7.945 7.945 0 0 1 1.168-.018 6.3 6.3 0 0 1 1.143.167.314.314 0 0 0 .175-.6 7.227 7.227 0 0 0-1.249-.273 9.132 9.132 0 0 0-1.275-.075l-1.668.086-1.347.213a4.02 4.02 0 0 0-1.48.777 8.647 8.647 0 0 0-1.5 1.8l-.772 1.19c-.4.626-.9 1.3-1.3 2.015-.047.084-1.115 2.484-1.118 2.491a1.487 1.487 0 0 0 .38 1.574 2.427 2.427 0 0 0 1.237.595 8.951 8.951 0 0 0 1.727.1c.806 0 1.6-.057 2.392-.135 1.169-.115 2.329-.281 3.51-.412a.313.313 0 0 0 .286-.338c0-.017-.017-.025-.021-.04.04-.023.087-.034.114-.075l2.009-2.649c.362-.481.81-.958 1.164-1.486a4.489 4.489 0 0 0 .6-1.251 2.339 2.339 0 0 0 .073-.63c.005-.419-.08-.849-.106-1.227zm-.8 1.019a1.922 1.922 0 0 1-.111.528 4.2 4.2 0 0 1-.533.962c-.35.515-.751 1.015-1.088 1.5l-1.65 2.751c.061-.249.132-.484.182-.739a2.387 2.387 0 0 0 .043-.694c-.03-.288-.111-.538-.15-.826a.265.265 0 0 0-.144-.254.3.3 0 0 0 .379-.123c.512-.764 1.121-1.445 1.672-2.183.238-.324.452-.666.665-1.007l.889-1.907-.113.969c-.026.316-.013.675-.038 1.023z"></path><path class="a" d="M15.275 16.243a.732.732 0 0 0-.116.2.549.549 0 0 0 .017.356.746.746 0 0 0 .372.412 2.061 2.061 0 0 0 .665.189 4.879 4.879 0 0 0 1-.011 7.6 7.6 0 0 0 1.4-.352.314.314 0 0 0 .2-.131.3.3 0 0 0 .276-.093c.465-.991.729-1.606.3-1.69a4.616 4.616 0 0 0-1.352-.246 3.523 3.523 0 0 0-.58.029 3.4 3.4 0 0 0-.559.121 8.378 8.378 0 0 0-1.2.536c-.315.091-.039.237-.329.613-.022.024-.069.04-.094.067zM17.27 16c.269-.029.538-.083.8-.125s.51-.082.759-.109c-.007.008-.015.014-.021.022a.666.666 0 0 0-.085.171c-.06.157-.069.29-.12.451-.007.008 0 .02-.009.029-.035 0-.065-.027-.1-.02-.285.02-.58.025-.887.018-.221 0-.435-.032-.652-.045s-.422-.015-.619-.043a1.652 1.652 0 0 0-.191.028l.11-.311c.329-.015.665-.026 1.015-.066z"></path><path class="b" d="M7.654 7.68a.577.577 0 0 1 .23-.19 3.823 3.823 0 0 0 1.169-.5.9.9 0 0 0 .311-.865 1.2 1.2 0 0 0-.188-.466 4.367 4.367 0 0 0-.533-.595L7.9 4.059a1.6 1.6 0 0 0-.384-.268 5.176 5.176 0 0 1-.7-.326.8.8 0 0 1-.407-.665c.027-.569-.555-.4-.627.013a1.351 1.351 0 0 0 .6 1.211 6.108 6.108 0 0 0 .755.439.818.818 0 0 1 .184.15l.656 1.051c.09.1.209.232.312.37a.49.49 0 0 1 .115.222l-.9.258a1.526 1.526 0 0 0-.584.4 2.041 2.041 0 0 0-.461.836 1.576 1.576 0 0 0 .103 1.04 9.546 9.546 0 0 1 .738 1.373l-.034.36c-.107.3-.252.448-.46.477-.538.076-1.207-.189-1.8-.153a4.914 4.914 0 0 0-.789.047.978.978 0 0 0-.46.219 1.678 1.678 0 0 0-.5.987 2.246 2.246 0 0 1-.179.74.586.586 0 0 1-.405.258c-.028.006-.041.032-.066.044-.258.231-.091.564.295.544a1.177 1.177 0 0 0 .739-.487 2.357 2.357 0 0 0 .281-.78 1.174 1.174 0 0 1 .333-.722c.064-.051.162-.035.256-.036.183 0 .371.019.512.019a7.147 7.147 0 0 1 1.206.217 2.011 2.011 0 0 0 1.109-.063 1.589 1.589 0 0 0 .866-.949 1.851 1.851 0 0 0 .119-.436 1.528 1.528 0 0 0-.017-.485 10.219 10.219 0 0 0-.776-1.58.571.571 0 0 1-.055-.353 1.078 1.078 0 0 1 .179-.351zm10.269.289a4.323 4.323 0 0 0-.593.25 8.473 8.473 0 0 1-1.045.008 1.358 1.358 0 0 0-.366.093 1.036 1.036 0 0 0-.231.134c-.153.116-.273.3-.439.4a.812.812 0 0 1-.606.09.824.824 0 0 1-.494-.334.444.444 0 0 1-.081-.247A5.571 5.571 0 0 1 14.2 7.6c.042-.329.1-.7.132-1.069a6 6 0 0 0 .017-.775 2.2 2.2 0 0 0-.567-1.231 2.784 2.784 0 0 1-.542-.729.686.686 0 0 1 .06-.565l.209-.3.507-.472c.571-.375.17-.8-.345-.546l-.687.518-.349.418a1.439 1.439 0 0 0-.222 1.2 2.779 2.779 0 0 0 .482.9 1.55 1.55 0 0 1 .418.863c0 .2-.013.414-.03.633-.039.352-.09.712-.132 1.029a6.069 6.069 0 0 0-.12.943 1.367 1.367 0 0 0 .311.819 1.788 1.788 0 0 0 1.143.655 1.715 1.715 0 0 0 1.258-.3l.5-.519a2.277 2.277 0 0 1 .26-.07 3.588 3.588 0 0 1 .8-.12 2.806 2.806 0 0 0 .845-.332c.158-.104.176-.65-.225-.581z"></path><path class="a" d="M19.177 8.937a15.579 15.579 0 0 0-.546-2.761 11.285 11.285 0 0 0-.734-1.9 8.938 8.938 0 0 0-1.121-1.732A7.667 7.667 0 0 0 10.5 0a10.833 10.833 0 0 0-6.4 2.336A9.813 9.813 0 0 0 .831 7.8a8.961 8.961 0 0 0 .912 6.261 7 7 0 0 0 1.139 1.508 8.084 8.084 0 0 0 1.458 1.168 8.79 8.79 0 0 0 1.945.907 19.384 19.384 0 0 0 3.075.675.277.277 0 0 0 .32-.226.273.273 0 0 0-.222-.32 18.719 18.719 0 0 1-2.964-.732 12.547 12.547 0 0 1-1.77-.892 7.489 7.489 0 0 1-1.3-1.107 6.425 6.425 0 0 1-.968-1.373 8.18 8.18 0 0 1-.653-5.658 8.9 8.9 0 0 1 2.977-4.86 9.961 9.961 0 0 1 5.761-2.136 7.27 7.27 0 0 1 5.582 2.079 8.21 8.21 0 0 1 1.058 1.547 10.831 10.831 0 0 1 .725 1.759c.179.568.581 2.6.584 2.619a10.911 10.911 0 0 1 .021 2.666.316.316 0 0 0 .269.353.313.313 0 0 0 .354-.27 11.419 11.419 0 0 0 .043-2.831z"></path><path class="b" d="M5.961 15.675a1.233 1.233 0 0 1 .751-.794 2.868 2.868 0 0 1 .9-.185c.35-.029.708-.044 1.058-.038l1.394-.137.721.21a.315.315 0 0 0 .188-.6c-.167-.064-.329-.171-.495-.248a1.522 1.522 0 0 0-.3-.1l-1.45-.092a7.342 7.342 0 0 0-1.194-.049 2.94 2.94 0 0 0-1.275.35 1.959 1.959 0 0 0-.985 1.533c-.021.178-.043.355-.047.533v.1c.031.3.475.476.568.246z"></path></g></svg>