<svg xmlns="http://www.w3.org/2000/svg" viewBox="0 0 64 64" height="64" width="64"><g transform="matrix(2.6666666666666665,0,0,2.6666666666666665,0,0)"><path d="M23.773 14.517a1.465 1.465 0 0 1-.77-.684 9.959 9.959 0 0 1-.626-1.752 4.655 4.655 0 0 0-.874-1.395 3.916 3.916 0 0 0-1.379-.929 2.449 2.449 0 0 0-.968-.186 2.15 2.15 0 0 0-.789.175c-.072-.054-.136-.119-.213-.167-.715-.459-1.624-.642-2.335-1.127a29.317 29.317 0 0 1-2.841-2.763 5.282 5.282 0 0 0-1.6-.987 5.116 5.116 0 0 0-1.446-.3c-.664-.047-1.329 0-2.048-.05a5.375 5.375 0 0 1-1.13-.218 6.9 6.9 0 0 1-.836-.334l-.4-.554A5.2 5.2 0 0 0 4.321 2.11a1.045 1.045 0 0 0-1.581.537 2.56 2.56 0 0 0-.113.819.8.8 0 0 1-.074.428 6.068 6.068 0 0 1-.859.843 2.323 2.323 0 0 0-.419.579 6.986 6.986 0 0 0-.381 1.519 1.569 1.569 0 0 1-.167.431A4.6 4.6 0 0 0 0 9.291a1.733 1.733 0 0 0 .714 1.5 1.548 1.548 0 0 0 .789.3 3.446 3.446 0 0 0 1.045-.086l.707-.187c-.032.06-.069.114-.1.18a1.2 1.2 0 0 0 .49 1.6 4.872 4.872 0 0 0 2.172.575l.556.063.866.194c.467.14 1.03.485 1.574.614a1.867 1.867 0 0 0 .971-.012 1.89 1.89 0 0 0 1.126-1.021c.014.013.015.035.032.046.327.3.591.633.917.921a6.97 6.97 0 0 0 .6.45c.308.218.63.4.929.649a.294.294 0 0 0 .148.072 6.561 6.561 0 0 0 .751 1.879 4.641 4.641 0 0 0 1.894 1.791 4.371 4.371 0 0 0 1.021.28 5.707 5.707 0 0 1 1.273.249 1.547 1.547 0 0 1 .642.45 2.266 2.266 0 0 1 .288.443 6.477 6.477 0 0 1 .32.809c0 .01.571.7.657.773a1.159 1.159 0 0 0 .657.237 1.05 1.05 0 0 0 .466-.059 1.638 1.638 0 0 0 .991-1.169s-.106-2.151-.14-2.37a6.008 6.008 0 0 0-.812-2.227.711.711 0 0 0-.256-.225c-.144-.086-.381-.132-.486-.214a1.537 1.537 0 0 1-.338-.353 2.314 2.314 0 0 1-.256-.459 15.008 15.008 0 0 1-.564-3.027 4.676 4.676 0 0 0-.536-1.43 2.846 2.846 0 0 0-.224-.281 1.991 1.991 0 0 1 .232.009 1.719 1.719 0 0 1 .637.253 3.793 3.793 0 0 1 .96.87 4.606 4.606 0 0 1 .691 1.108 10.609 10.609 0 0 0 .929 1.8 2.147 2.147 0 0 0 1.255.839.318.318 0 0 0 .183-.61zm-4.379.847a3.185 3.185 0 0 0 .376.61 2.483 2.483 0 0 0 .544.521c.133.089.479.377.587.249a5.088 5.088 0 0 1 .746 1.853 5.938 5.938 0 0 1 .047 2.094c-.007.042.017.075.025.114a.869.869 0 0 1-.608.193.809.809 0 0 1-.742-.524c0-.006-.6-1.115-.619-1.139a2.326 2.326 0 0 0-.906-.788c-.687-.35-1.532-.346-2.212-.692a3.412 3.412 0 0 1-1-.754 6.148 6.148 0 0 1-.818-1.061 6.026 6.026 0 0 1-.89-2.6.282.282 0 0 0-.563.007c-.009.172.009.351.017.528-.077-.1-.15-.2-.234-.287a3.228 3.228 0 0 0-.377-.353 2.9 2.9 0 0 0-.424-.288 9.119 9.119 0 0 0-1.1-.458.274.274 0 0 0-.177-.03 2.253 2.253 0 0 0 0-1.058 2.639 2.639 0 0 0-.455-.9 4.022 4.022 0 0 0-1.042-.952.317.317 0 1 0-.357.525 3.3 3.3 0 0 1 .684.691 2.005 2.005 0 0 1 .369.813 1.41 1.41 0 0 1-.167.89.918.918 0 0 1-.595.489 1.088 1.088 0 0 1-.625-.093c-.467-.163-.937-.432-1.337-.552l-1.037-.194-.673-.024a3.919 3.919 0 0 1-1.791-.24.577.577 0 0 1-.3-.743l.237-.443a.267.267 0 0 0 .056-.152l1.479-.391A.318.318 0 1 0 5.39 9.6l-2.99.588a2.97 2.97 0 0 1-.661.039.778.778 0 0 1-.439-.163.828.828 0 0 1-.287-.73 3.6 3.6 0 0 1 .633-1.516 2.69 2.69 0 0 0 .3-.726 6.18 6.18 0 0 1 .291-1.321 1.165 1.165 0 0 1 .128-.214A10.682 10.682 0 0 0 3.369 4.38a1.51 1.51 0 0 0 .163-.77 2.372 2.372 0 0 1 0-.7.294.294 0 0 1 .16-.2c.179-.094.392.077.606.233a7.129 7.129 0 0 1 .765.7c.348.416.131.439.338.548a8.414 8.414 0 0 0 1.158.521 6.058 6.058 0 0 0 1.256.3c.714.089 1.375.077 2.036.159a4.247 4.247 0 0 1 1.2.319 4.455 4.455 0 0 1 1.294.889 27.882 27.882 0 0 0 2.875 2.95c.715.489 1.632.683 2.363 1.146a1.852 1.852 0 0 1 .625.606 3.634 3.634 0 0 1 .44 1.1 15.553 15.553 0 0 0 .746 3.183z" style="fill-rule:evenodd"></path><path d="M3.3 7.989a.192.192 0 0 0-.19.171.161.161 0 0 0 .162.175 5.514 5.514 0 0 1 1.311.243c.1.025.193.061.291.088.247 0 .455-.327-.042-.517a3.945 3.945 0 0 0-1.532-.16zM3.139 7.2a.191.191 0 0 0-.09.239.162.162 0 0 0 .225.081 5.461 5.461 0 0 1 1.274-.391c.1-.024.2-.036.3-.057.221-.112.252-.5-.276-.44a3.943 3.943 0 0 0-1.433.568z" style="fill-rule:evenodd;fill:#00D7B0"></path></g></svg>