<svg xmlns="http://www.w3.org/2000/svg" viewBox="0 0 64 64" height="64" width="64"><g transform="matrix(2.6666666666666665,0,0,2.6666666666666665,0,0)"><path d="M16.134 5.083a2.6 2.6 0 0 0-.1-1.629 2.146 2.146 0 0 0-1.2-1.2 2.32 2.32 0 0 0-1.634-.028 2.26 2.26 0 0 0-1.251 1.215 1.939 1.939 0 0 0 .021 1.681.3.3 0 1 0 .546-.251 1.239 1.239 0 0 1 .142-1.071 1.307 1.307 0 0 1 1.728-.494 1.091 1.091 0 0 1 .585.572 1.576 1.576 0 0 1 .142.946 1.175 1.175 0 0 1-.5.76c-.206.143-.611.268-.873.447a1.014 1.014 0 0 0-.466.644 1.966 1.966 0 0 0-.045.522.34.34 0 1 0 .68.012 1.567 1.567 0 0 1 .046-.285.409.409 0 0 1 .09-.163l1.032-.4a2.1 2.1 0 0 0 1.057-1.278zm2.901 2.095a.341.341 0 0 0 .366-.313c.056-.26.184-.8.274-1.433a6.041 6.041 0 0 0 .061-.615 4.877 4.877 0 0 0 0-.617 12.313 12.313 0 0 0-.222-1.454.3.3 0 0 0-.6.008c-.051.325-.19.828-.272 1.41a5.576 5.576 0 0 0-.049.609c-.007.208 0 .414.01.612.035.632.107 1.168.124 1.429a.34.34 0 0 0 .308.364zm-5.588 1.09a.859.859 0 0 0-.73.555.683.683 0 0 0 .611.814.878.878 0 0 0 .812-.568.734.734 0 0 0-.693-.801zm5.267 1.152a.815.815 0 0 0 .71-1.452c-.752-.462-1.817 1.007-.71 1.452zm-5.244 9.728c-.276-.073-.579-.435-.852-.819a4 4 0 0 1-.6-1.149c-.355-1.407.167-3.343-.511-5.1a5.222 5.222 0 0 0-2.5-2.7 4.038 4.038 0 0 0-3.133-.34 4.757 4.757 0 0 0-2.5 1.846 6.849 6.849 0 0 0-.734 1.446 7.147 7.147 0 0 0-.409 1.557c-.136 1.13.082 2.308-.113 3.344a2.357 2.357 0 0 1-1.018 1.6 2.614 2.614 0 0 1-.4.233 1.656 1.656 0 0 1-.41.134.332.332 0 0 0-.234.5 3.686 3.686 0 0 0 .654.746 1.484 1.484 0 0 0 .666.365.3.3 0 0 0 .1-.59 1.077 1.077 0 0 1-.446-.334c-.049-.051-.1-.1-.14-.157.028-.009.055-.02.083-.031a3.531 3.531 0 0 0 .512-.269 3.078 3.078 0 0 0 1.449-2.03 7.589 7.589 0 0 0 .166-1.53 4.613 4.613 0 0 0 .589 1.73 4.849 4.849 0 0 0 1.595 1.669A7.351 7.351 0 0 0 1.95 21.39a5.266 5.266 0 0 0-.595.843 8.577 8.577 0 0 0-.629 1.352.3.3 0 0 0 .554.23 7.9 7.9 0 0 1 .556-1 4.693 4.693 0 0 1 .7-.85A7 7 0 0 1 5.7 20.317a5.826 5.826 0 0 1 3.47.14 4.4 4.4 0 0 1 1.817 1.284 7.448 7.448 0 0 1 1.24 2.008.34.34 0 1 0 .637-.239 8.263 8.263 0 0 0-1.206-2.31 5.353 5.353 0 0 0-2.1-1.719c-.159-.064-.322-.1-.484-.152a3.89 3.89 0 0 0 .788-.564 5.776 5.776 0 0 0 1.162-1.682c.029-.061.052-.126.077-.188a4.036 4.036 0 0 0 .11.51 5.232 5.232 0 0 0 .978 1.636 3.392 3.392 0 0 0 .706.635 1.522 1.522 0 0 1-.1.152.719.719 0 0 1-.323.267.34.34 0 1 0 .231.64 1.337 1.337 0 0 0 .548-.362 2.88 2.88 0 0 0 .458-.712.357.357 0 0 0 0-.311.362.362 0 0 0-.239-.202zm-3.2-2.46a4.8 4.8 0 0 1-1.082 1.3 3 3 0 0 1-.859.48 3.4 3.4 0 0 1-.977.2 2.584 2.584 0 0 1-.724-.067 3.43 3.43 0 0 1-.726-.233 3.86 3.86 0 0 1-1.5-1.231 3.674 3.674 0 0 1-.7-1.665c.647.048 1.3.094 1.947.112.429.011.86.006 1.289-.009s.86-.041 1.288-.077c.856-.07 1.705-.171 2.556-.271a3.731 3.731 0 0 1-.513 1.461zm-1.129-2.249a3.418 3.418 0 0 0 0-.536c-.03-.317-.129-.611-.205-.986a.3.3 0 1 0-.6.042 9.3 9.3 0 0 0-.052 1.01 3.454 3.454 0 0 0 .061.451h-.159c-.427 0-.856-.006-1.284.006s-.856.028-1.283.061c-.828.064-1.646.161-2.468.249a6.922 6.922 0 0 1 .075-.706 6.223 6.223 0 0 1 .41-1.306 5.96 5.96 0 0 1 .651-1.191A3.677 3.677 0 0 1 6.2 10.135a2.945 2.945 0 0 1 2.266.238 4.225 4.225 0 0 1 2.076 2.1 6.143 6.143 0 0 1 .424 2.017c-.607-.018-1.215-.035-1.825-.051z"></path><path d="M23.942 5.265c0-.849.035-2.93-.047-3.823A1.3 1.3 0 0 0 23.6.647 5.633 5.633 0 0 0 21.634.2a45.575 45.575 0 0 0-4.025-.2c-.457 0-4.34-.008-6.619.175a4.622 4.622 0 0 0-1.86.394.673.673 0 0 0-.186.315 6.927 6.927 0 0 0-.153 1.3c-.1 1.766-.06 4.728-.052 5.422a.341.341 0 0 0 .681 0c.006-.532.028-2.4.1-4.035.038-.845.091-1.625.162-2.112a2.824 2.824 0 0 1 .058-.288c.092-.014.236-.014.356-.03a25.4 25.4 0 0 1 2.579-.13c2.128-.031 4.567.036 4.921.044.966.02 2.259.1 3.358.211a17.5 17.5 0 0 1 1.736.234l.061.015v.028c.08.866.047 2.888.043 3.712 0 .5.073 2.258.074 3.8 0 .774-.029 2.227-.044 2.263-.147-.021-1.677-.061-1.847-.07-1.042-.058-2.176-.154-2.7-.122a.883.883 0 0 0-.595.215c-.242.288-.489.947-.925 1.669a5.412 5.412 0 0 1-.682.915 2.214 2.214 0 0 1-1.628.723c-.078-.557.02-2.085-.014-2.744a1.293 1.293 0 0 0-.071-.415.323.323 0 0 0-.242-.191.3.3 0 0 0-.348.243 28.134 28.134 0 0 0 .064 3.522.458.458 0 0 0 .322.252 2.334 2.334 0 0 0 1.044-.04 3.039 3.039 0 0 0 1.428-.81 6.21 6.21 0 0 0 .818-1.022c.38-.584.608-1.134.818-1.429h.049c.507-.014 1.593.122 2.593.211a11.275 11.275 0 0 0 1.664.036 1.632 1.632 0 0 0 .965-.341 3.155 3.155 0 0 0 .388-1.561c.117-1.666.009-4.446.017-5.094z" style="fill:#00D7B0"></path></g></svg>