<svg version="1.1"
     xmlns="http://www.w3.org/2000/svg" xmlns:xlink="http://www.w3.org/1999/xlink" xmlns:a="http://ns.adobe.com/AdobeSVGViewerExtensions/3.0/"
     x="0px" y="0px" width="14px" height="16px" viewBox="0 0 14 16" style="enable-background:new 0 0 14 16;" xml:space="preserve">
<g>
    <path stroke="#fff" d="M11.5,0.5h-9C2.2,0.5,2,0.7,2,1v2c0,0.3,0.2,0.5,0.5,0.5h9C11.8,3.5,12,3.3,12,3V1C12,0.7,11.8,0.5,11.5,0.5z"
        />
    <line stroke="#fff" x1="7" y1="3.5" x2="7" y2="12.5"/>
    <path stroke="#fff" d="M2,12.5v-3c0-0.6,0.4-1,1-1h8c0.6,0,1,0.4,1,1v3"/>
    <circle stroke="#fff" cx="2" cy="14" r="1.5"/>
    <circle stroke="#fff" cx="7" cy="14" r="1.5"/>
    <circle stroke="#fff" cx="12" cy="14" r="1.5"/>
</g>
</svg>
