<svg height="32" width="32" xmlns="http://www.w3.org/2000/svg" viewBox="0 0 31.22 30">
    <path fill="currentColor" d="M1.33,16.42C1.33,8.24,8.42.84,16.6.84S31,7.82,31,16s-5.62,13.8-13.8,13.8S1.33,24.6,1.33,16.42Z" />
    <path fill="#191A1B" d="M31.13,13a17.24,17.24,0,0,0-1.48-4.85,12.22,12.22,0,0,0-3-4.12A15.86,15.86,0,0,0,24.8,2.69c-1.05-.65-2.24-1.3-2.87-1.6a.46.46,0,1,0-.39.83h0c.51.25,1.42.76,2.31,1.31a22.06,22.06,0,0,1,2.2,1.52,11.42,11.42,0,0,1,2.61,3.8A16.45,16.45,0,0,1,30,13.1a13.51,13.51,0,0,1-5.32,12.06A14,14,0,0,1,11.79,28c-.86-.26-1.74-.56-2.61-.91a17.44,17.44,0,0,1-2.39-1.24A11.57,11.57,0,0,1,2,19.48a12.4,12.4,0,0,1,.12-8.07A17.5,17.5,0,0,1,7.81,3.34,13.26,13.26,0,0,1,17.28,1a.4.4,0,0,0,.46-.35h0a.4.4,0,0,0-.36-.44h0A14,14,0,0,0,7.22,2.51,18.68,18.68,0,0,0,.92,11,13.79,13.79,0,0,0,.6,20,13,13,0,0,0,6,27.17a18.14,18.14,0,0,0,2.61,1.3,26.92,26.92,0,0,0,2.73,1,15.54,15.54,0,0,0,14.22-3.19A14.87,14.87,0,0,0,31.13,13Z" />
    <path fill="#191A1B" d="M15.46,8.93a1.44,1.44,0,0,0-.86-.22,1.69,1.69,0,0,0-.79.42,14,14,0,0,0-1.31,1.46c-1.88,2.32-4.62,6.51-5.45,7.67a.41.41,0,0,0,.09.57.4.4,0,0,0,.56-.09c.6-.75,2.13-2.68,3.67-4.55,1.13-1.3,2.27-2.67,3.05-3.45a3.36,3.36,0,0,1,.52-.39l.43.39A50.54,50.54,0,0,1,19,14.43a54.63,54.63,0,0,1,4.13,4.86.46.46,0,0,0,.54.35h0a.45.45,0,0,0,.36-.52h0a56.15,56.15,0,0,0-5.79-7.59A15.51,15.51,0,0,0,15.46,8.93Zm-.83,1.3c0-.06,0,0,.14,0s-.16.07-.14,0Z" />
</svg>
