<?xml version="1.0" encoding="UTF-8"?><svg id="Layer_2" xmlns="http://www.w3.org/2000/svg" viewBox="0 0 35.71 41.02"><defs><style>.cls-1{fill:#1a86fd;}.cls-1,.cls-2,.cls-3,.cls-4,.cls-5,.cls-6,.cls-7{fill-rule:evenodd;}.cls-2{fill:#0da7fe;}.cls-3{fill:#05bbff;}.cls-4{fill:#1a67fd;}.cls-5{fill:#d6ffff;}.cls-6{fill:#00c9ff;}.cls-7{fill:rgba(26,103,253,.5);}</style></defs><g id="Layer_1-2"><path class="cls-2" d="M16.19,1.01c1.08-.62,2.42-.62,3.5,0l14.25,8.23c1.08,.63,1.75,1.78,1.75,3.03V28.72c0,1.25-.67,2.41-1.75,3.03l-14.25,8.23c-1.08,.62-2.42,.62-3.5,0-4.75-2.74-9.5-5.48-14.25-8.23-1.08-.63-1.75-1.78-1.75-3.03V12.27c0-1.25,.67-2.41,1.75-3.03L16.19,1.01Z"/><path class="cls-4" d="M0,30.74l9.44-10.25,8.53,20.49L0,30.74Z"/><path class="cls-2" d="M9.44,20.49L.12,10.17l-.12,20.57,9.44-10.25Z"/><path class="cls-3" d="M9.44,20.49L17.97,0,.12,10.17l9.31,10.32h0Z"/><path class="cls-6" d="M17.97,0l17.75,30.74L9.44,20.49"/><path class="cls-1" d="M17.97,41.02l17.75-10.28L9.44,20.49l8.53,20.53Z"/><path class="cls-3" d="M35.71,30.74V10.25L17.97,0l17.75,30.74Z"/><path class="cls-7" d="M15.37,12.42l8.6,8.6-8.6,8.6-2.25-2.25,6.34-6.34-6.34-6.34,2.25-2.25Z"/><path class="cls-5" d="M23.97,20.01l-2.25-2.25-8.6,8.6,2.25,2.25,8.6-8.6h0Z"/><path class="cls-5" d="M15.37,11.41l-2.25,2.25,8.59,8.6,2.25-2.25L15.37,11.41Z"/></g></svg>