<svg xmlns="http://www.w3.org/2000/svg" viewBox="0 0 24 24" height="32" width="32"><g transform="matrix(1,0,0,1,0,0)"><defs><style>.e,.f{fill:none;stroke:#191919;stroke-linecap:round;stroke-linejoin:round}.f{fill:gray}</style></defs><path d="M12.309 7.088A3.078 3.078 0 0 0 10.5 6.5h-4a2.85 2.85 0 0 0-1.781.625l-3.438 2.75a2.1 2.1 0 0 0-.525.625H17z" style="fill:#66e1ff"></path><path d="M23.013 11.888 17 10.5H.756a2.08 2.08 0 0 0-.256 1v2a1.869 1.869 0 0 0 .832 1.555l1.2.8 3.7.645h10.54l3.7-.654 2.571-1.146a.839.839 0 0 0 .457-.7v-1.5a.659.659 0 0 0-.487-.612z" style="fill:#ffef5e"></path><path d="M23.013 11.888 17 10.5H.756a2.08 2.08 0 0 0-.256 1v1H17l6.013 1.388a.658.658 0 0 1 .433.372.716.716 0 0 0 .054-.26v-1.5a.659.659 0 0 0-.487-.612z" style="fill:#fff7ae"></path><path d="M10.574 6.5H6.5a2.85 2.85 0 0 0-1.781.625l-3.438 2.75a2.1 2.1 0 0 0-.525.625h5.82z" style="fill:#c2f3ff"></path><path class="e" d="m2.533 15.855-1.2-.8A1.869 1.869 0 0 1 .5 13.5v-2a2.08 2.08 0 0 1 .781-1.625l3.438-2.75A2.85 2.85 0 0 1 6.5 6.5h4a3.078 3.078 0 0 1 1.809.588L17 10.5l6.013 1.388a.659.659 0 0 1 .487.612V14a.839.839 0 0 1-.457.7l-2.572 1.143m-3.699.657H6.229"></path><circle class="f" cx="18.5" cy="15.5" r="2"></circle><circle class="f" cx="4.5" cy="15.5" r="2"></circle><path class="e" d="M17 10.5H.756m6.744-4v4l1.5 6m2.5-4h-1m4 2h-6m-6.5-2H.5"></path></g></svg>
