<svg xmlns="http://www.w3.org/2000/svg" width="14" height="14" viewBox="0 0 14 14">
<g transform="matrix(0.5833333333333334,0,0,0.5833333333333334,0,0)"><path stroke="currentColor" stroke-linecap="round" stroke-linejoin="round" stroke-width="1" d="M18.55,10.89a26.76,26.76,0,0,0-3.1-3.13A99.88,99.88,0,0,0,5.39,0a.42.42,0,0,0-.53.27.44.44,0,0,0,.27.54,105,105,0,0,1,8.1,6.74,41.33,41.33,0,0,1,4,3.93c.18.22.43.47.53.62-.12,0-.18.31-.36.53a38.47,38.47,0,0,1-2.68,2.79c-3.06,3-7.29,6.83-8.41,7.91a.38.38,0,1,0,.51.55c1.33-1.16,6.93-5.64,10-8.62a16.73,16.73,0,0,0,1.87-2,2.18,2.18,0,0,0,.46-.92A2.37,2.37,0,0,0,18.55,10.89Zm-.81,1.39s0-.06,0-.09v0C17.79,12.22,17.8,12.27,17.74,12.28Z" style="fill: #191A1B"></path></g></svg>
