<svg xmlns="http://www.w3.org/2000/svg" width="14" height="14" viewBox="0 0 14 14"><path stroke="currentColor" stroke-linecap="round" stroke-linejoin="round" d="M10.82 6.353a15.61 15.61 0 00-1.807-1.826A58.263 58.263 0 003.144 0a.245.245 0 00-.309.158.257.257 0 00.157.315 61.25 61.25 0 014.726 3.931 24.11 24.11 0 012.333 2.293c.105.128.25.274.309.361-.07 0-.105.181-.21.31a22.44 22.44 0 01-1.563 1.627c-1.785 1.75-4.253 3.984-4.906 4.614a.222.222 0 10.297.321c.776-.677 4.043-3.29 5.834-5.028a9.76 9.76 0 001.09-1.167 1.272 1.272 0 00.269-.537 1.383 1.383 0 00-.35-.846zm-.472.81v-.052h0c.03.017.035.046 0 .052z" fill="currentColor" stroke-width=".58333"/></svg>
