<svg xmlns="http://www.w3.org/2000/svg"  viewBox="0 0 64 64" width="64px" height="64px"><linearGradient id="lXT8KI7CfoIGF49qBszd8a" x1="32" x2="32" y1="7" y2="58.016" gradientUnits="userSpaceOnUse"><stop offset="0" stop-color="#1a6dff"/><stop offset="1" stop-color="#c822ff"/></linearGradient><path fill="url(#lXT8KI7CfoIGF49qBszd8a)" d="M53,19c0-3.309-2.691-6-6-6s-6,2.691-6,6c0,2.607,1.673,4.824,4,5.65v0.643	c0,0.689,0.412,1.28,1,1.549V28c0,1.654-1.346,3-3,3H21c-1.13,0-2.162,0.391-3,1.026V19.842c0.588-0.27,1-0.861,1-1.549V17.65	c2.327-0.826,4-3.043,4-5.65c0-3.309-2.691-6-6-6s-6,2.691-6,6c0,2.607,1.673,4.824,4,5.65v0.643c0,0.689,0.412,1.28,1,1.549V36	v4.281v3.877c-0.588,0.27-1,0.861-1,1.549v0.643c-2.327,0.826-4,3.043-4,5.65c0,3.309,2.691,6,6,6s6-2.691,6-6	c0-2.607-1.673-4.824-4-5.65v-0.643c0-0.689-0.412-1.28-1-1.549v-3.877V36c0-1.654,1.346-3,3-3h22c2.757,0,5-2.243,5-5v-1.158	c0.588-0.27,1-0.861,1-1.549V24.65C51.327,23.824,53,21.607,53,19z M21,52c0,2.206-1.794,4-4,4s-4-1.794-4-4s1.794-4,4-4	S21,49.794,21,52z M13,12c0-2.206,1.794-4,4-4s4,1.794,4,4s-1.794,4-4,4S13,14.206,13,12z M47,23c-2.206,0-4-1.794-4-4s1.794-4,4-4	s4,1.794,4,4S49.206,23,47,23z"/><linearGradient id="lXT8KI7CfoIGF49qBszd8b" x1="49" x2="49" y1="15.596" y2="21.979" gradientUnits="userSpaceOnUse"><stop offset="0" stop-color="#6dc7ff"/><stop offset="1" stop-color="#e6abff"/></linearGradient><path fill="url(#lXT8KI7CfoIGF49qBszd8b)" d="M47,15v8c2.209,0,4-1.791,4-4C51,16.791,49.209,15,47,15z"/><linearGradient id="lXT8KI7CfoIGF49qBszd8c" x1="19" x2="19" y1="48.021" y2="55.358" gradientUnits="userSpaceOnUse"><stop offset="0" stop-color="#6dc7ff"/><stop offset="1" stop-color="#e6abff"/></linearGradient><path fill="url(#lXT8KI7CfoIGF49qBszd8c)" d="M17,48v8c2.209,0,4-1.791,4-4C21,49.791,19.209,48,17,48z"/><g><linearGradient id="lXT8KI7CfoIGF49qBszd8d" x1="19" x2="19" y1="8.277" y2="15.608" gradientUnits="userSpaceOnUse"><stop offset="0" stop-color="#6dc7ff"/><stop offset="1" stop-color="#e6abff"/></linearGradient><path fill="url(#lXT8KI7CfoIGF49qBszd8d)" d="M17,8v8c2.209,0,4-1.791,4-4C21,9.791,19.209,8,17,8z"/></g></svg>