<svg xmlns="http://www.w3.org/2000/svg" viewBox="0 0 2490.8 1414.26"><path d="M1440.31,446.6h223.3V674.87h112.9c52.15,0,105.78-9.28,155.15-26,24.27-8.24,51.49-19.68,75.43-34.08-31.52-41.16-47.62-93.12-52.34-144.34-6.45-69.68,7.61-160.36,54.76-214.89L2033,228.4l28,22.49c70.42,56.57,129.65,135.63,140.09,225.76,84.79-24.94,184.35-19,259.09,24.09l30.66,17.7-16.13,31.5C2411.46,673.3,2279.3,711.52,2150.1,704.76c-193.33,481.53-614.24,709.5-1124.58,709.5-263.67,0-505.57-98.57-643.32-332.49l-2.26-3.81-20.07-40.84c-46.56-103-62-215.77-51.54-328.49l3.15-33.76h191V446.6H725.73V223.3h446.61V0h268V446.6" fill="#364548" fill-rule="evenodd"/><path d="M2163.77,531.05c15-116.36-72.11-207.76-126.11-251.16-62.24,72-71.91,260.53,25.73,339.92-54.49,48.4-169.31,92.27-286.88,92.27H345.41C334,834.8,355.53,947.82,404.74,1044.55L421,1074.34A550.21,550.21,0,0,0,454.76,1125q88.25,5.67,162.71,4h0c97.53-2.15,177.11-13.68,237.42-34.58a17.2,17.2,0,0,1,11.26,32.49c-8,2.79-16.38,5.39-25,7.86h0c-47.49,13.56-98.41,22.68-164.12,26.73,3.91.07-4.06.59-4.08.59-2.24.15-5,.47-7.29.59-25.86,1.45-53.77,1.75-82.31,1.75-31.21,0-61.94-.58-96.31-2.34l-.88.59c119.24,134,305.69,214.4,539.4,214.4,494.61,0,914.14-219.26,1099.92-711.49,131.8,13.52,258.47-20.09,316.08-132.57-91.77-53-209.8-36.08-277.76-1.92" fill="#22a0c8" fill-rule="evenodd"/><path d="M2163.77,531.05c15-116.36-72.11-207.76-126.11-251.16-62.24,72-71.91,260.53,25.73,339.92-54.49,48.4-169.31,92.27-286.88,92.27H430.16C424.32,900,494.06,1042.7,617.46,1129h0c97.53-2.15,177.11-13.68,237.42-34.57a17.2,17.2,0,0,1,11.26,32.48c-8,2.79-16.38,5.39-25,7.86h0c-47.49,13.56-102.79,23.85-168.49,27.91,0,0-1.59-1.52-1.61-1.52,168.33,86.35,412.4,86,692.23-21.45C1677,1019.11,1969,789.46,2172.72,526.8q-4.59,2.07-8.95,4.25" fill="#37b1d9" fill-rule="evenodd"/><path d="M348.1,861.19c8.88,65.74,28.12,127.3,56.64,183.36L421,1074.34A550.21,550.21,0,0,0,454.76,1125q88.26,5.67,162.73,4c97.53-2.15,177.11-13.68,237.42-34.58a17.2,17.2,0,0,1,11.26,32.49c-8,2.79-16.38,5.39-25,7.86h0c-47.49,13.56-102.5,23.27-168.2,27.33-2.26.14-6.19.17-8.47.29-25.84,1.45-53.46,2.34-82,2.34-31.2,0-63.11-.6-97.46-2.35,119.24,134,306.84,214.7,540.55,214.7,423.43,0,791.83-160.72,1005.65-515.84H348.1" fill="#1b81a5" fill-rule="evenodd"/><path d="M443,861.19c25.31,115.43,86.14,206,174.45,267.76,97.53-2.15,177.11-13.68,237.42-34.58a17.2,17.2,0,0,1,11.26,32.49c-8,2.79-16.38,5.39-25,7.86h0c-47.49,13.56-103.66,23.27-169.37,27.33,168.32,86.33,411.69,85.09,691.5-22.39,169.28-65,332.2-161.86,478.36-278.47H443" fill="#1d91b4" fill-rule="evenodd"/><path d="M539.65,483.82H733.18V677.35H539.65ZM555.77,500H571V661.23H555.77Zm28.71,0h15.89V661.23H584.49V500Zm29.32,0h15.89V661.23H613.8Zm29.33,0H659V661.23H643.13Zm29.33,0h15.88V661.23H672.46V500Zm29.32,0h15.28V661.23H701.78ZM763,260.52H956.49V454H762.94V260.52Zm16.13,16.13h15.27V437.92H779.08Zm28.71,0h15.88V437.92H807.8V276.65Zm29.32,0H853V437.92H837.11Zm29.33,0h15.87V437.92H866.44Zm29.32,0h15.89V437.92H895.76Zm29.32,0h15.29V437.92H925.08Z" fill="#23a3c2" fill-rule="evenodd"/><path d="M763,483.82H956.49V677.35H762.94V483.82ZM779.08,500h15.27V661.23H779.08Zm28.71,0h15.88V661.23H807.8V500Zm29.32,0H853V661.23H837.11Zm29.33,0h15.87V661.23H866.44Zm29.32,0h15.89V661.23H895.76Zm29.32,0h15.29V661.23H925.08Z" fill="#34bbde" fill-rule="evenodd"/><path d="M986.26,483.82h193.53V677.35H986.26ZM1002.38,500h15.27V661.23h-15.27Zm28.71,0H1047V661.23h-15.88Zm29.33,0h15.88V661.23h-15.88Zm29.33,0h15.87V661.23h-15.87Zm29.31,0H1135V661.23h-15.9Zm29.33,0h15.27V661.23h-15.27Z" fill="#23a3c2" fill-rule="evenodd"/><path d="M986.26,260.52h193.53V454H986.26Zm16.12,16.13h15.27V437.92h-15.27Zm28.71,0H1047V437.92h-15.88Zm29.33,0h15.88V437.92h-15.88Zm29.33,0h15.87V437.92h-15.87Zm29.31,0H1135V437.92h-15.9Zm29.33,0h15.27V437.92h-15.27Zm61.17,207.17H1403.1V677.35H1209.56ZM1225.69,500H1241V661.23h-15.27Zm28.71,0h15.88V661.23H1254.4Zm29.32,0h15.88V661.23h-15.88Zm29.33,0h15.89V661.23h-15.89Zm29.32,0h15.89V661.23h-15.89Zm29.33,0H1387V661.23H1371.7Z" fill="#34bbde" fill-rule="evenodd"/><path d="M1209.56,260.52H1403.1V454H1209.56Zm16.13,16.13H1241V437.92h-15.27Zm28.71,0h15.88V437.92H1254.4Zm29.32,0h15.88V437.92h-15.88Zm29.33,0h15.89V437.92h-15.89Zm29.32,0h15.89V437.92h-15.89Zm29.33,0H1387V437.92H1371.7Z" fill="#23a3c2" fill-rule="evenodd"/><path d="M1209.56,37.21H1403.1V230.76H1209.56Zm16.13,16.12H1241V214.62h-15.27V53.32Zm28.71,0h15.88V214.62H1254.4V53.32Zm29.32,0h15.88V214.62h-15.88V53.32Zm29.33,0h15.89V214.62h-15.89V53.32Zm29.32,0h15.89V214.62h-15.89V53.32Zm29.33,0H1387V214.62H1371.7V53.32Z" fill="#34bbde" fill-rule="evenodd"/><path d="M1432.86,483.82H1626.4V677.35H1432.86ZM1449,500h15.29V661.23H1449V500Zm28.72,0h15.88V661.23H1477.7V500Zm29.33,0h15.89V661.23H1507Zm29.32,0h15.89V661.23h-15.89Zm29.33,0h15.88V661.23h-15.88Zm29.32,0h15.27V661.23H1595Z" fill="#23a3c2" fill-rule="evenodd"/><path d="M944.38,991.13a53.4,53.4,0,0,1,1.41,106.79h-1.43a53.4,53.4,0,0,1,0-106.79" fill="#d3ecec" fill-rule="evenodd"/><path d="M944.38,1006.28a38,38,0,0,1,13.83,2.59,15.6,15.6,0,1,0,21.49,21,38.24,38.24,0,1,1-35.32-23.57M0,880.49H2483.66c-54.07-13.71-171.09-32.25-151.79-103.13-98.34,113.79-335.48,79.84-395.34,23.73-66.64,96.66-454.63,59.92-481.69-15.39-83.55,98.06-342.45,98.06-426,0-27.08,75.31-415.06,112-481.71,15.38-59.84,56.12-297,90.07-395.31-23.71C171.11,848.24,54.09,866.78,0,880.5" fill="#364548" fill-rule="evenodd"/><path d="M1086.3,1375.88c-132.23-62.75-204.8-148.05-245.18-241.15-49.12,14-108.15,23-176.75,26.82q-38.76,2.17-81.55,2.19-49.34,0-103.93-2.9C600.15,1282,749.32,1375.33,1025.53,1377q30.59,0,60.77-1.15" fill="#bdd9d7" fill-rule="evenodd"/><path d="M890.23,1220.64c-18.29-24.83-36-56-49.08-85.93-49.12,14-108.17,23-176.78,26.85,47.12,25.58,114.52,49.28,225.87,59.08" fill="#d3ecec" fill-rule="evenodd"/></svg>