<svg clip-rule="evenodd" fill-rule="evenodd" stroke-linejoin="round" stroke-miterlimit="2" viewBox="0 0 9 5" xmlns="http://www.w3.org/2000/svg" xmlns:xlink="http://www.w3.org/1999/xlink"><clipPath id="a"><path clip-rule="evenodd" d="m-1.715 1.462h10.918v6.658h-10.918z"/></clipPath><g transform="matrix(.791056 0 0 .74717 1.35654 -1.09258)"><path d="m-1.715 1.462h10.918v6.658h-10.918z" fill="none"/><g clip-path="url(#a)"><path d="m1.047 8.693c.222.22.583.22.806 0l3.799-3.75c.222-.219.222-.576 0-.795l-3.799-3.75c-.223-.219-.584-.219-.806 0-.223.219-.223.576 0 .795l3.396 3.353-3.396 3.352c-.223.22-.223.576 0 .795z" fill="#fff" transform="matrix(0 1.33838 -1.26413 0 9.48304 .284673)"/></g></g></svg>