<svg viewBox="0 0 113 22" fill="none" xmlns="http://www.w3.org/2000/svg">
    <path fill="#18b69b" fill-rule="evenodd" clip-rule="evenodd" d="M87.67 1.101C87.015.286 85.86 0 83.657 0H76.68c-2.141 0-3.358.396-4.346 1.277C70.86 2.5 69.258 4.944 67.886 11c-1.372 6.056-.884 8.434.052 9.723.613.87 1.653 1.277 3.805 1.277h6.861c1.924 0 3.41-.352 4.46-1.277 1.425-1.233 2.797-3.083 3.95-8.39l.49-2.148c.062-.297-.105-.528-.385-.528h-9.502a.655.655 0 0 0-.603.528l-.77 3.49c-.062.287.104.53.385.53h3.95l-.051.164c-.323 1.575-.884 2.159-1.154 2.4-.23.166-.54.221-1.373.221h-2.807c-.935 0-1.216-.055-1.32-.231-.166-.287-.322-1.333.666-5.759.987-4.426 1.59-5.417 1.923-5.715.218-.165.488-.22 1.424-.22h2.64c.936 0 1.155.055 1.269.231.016.024.034.048.052.072.155.209.353.474.166 1.668-.062.242.104.474.385.474h5.104a.655.655 0 0 0 .614-.529c.592-3.38.322-4.889-.447-5.88zM40.513.176c2.152 0 3.14.408 3.743 1.211.883 1.234 1.372 3.678-.052 9.668-1.435 6.001-3.026 8.38-4.512 9.668-.988.815-2.194 1.21-4.335 1.21h-6.872c-2.142 0-3.192-.395-3.743-1.21-.873-1.223-1.372-3.667.104-9.668 1.435-5.99 3.088-8.38 4.575-9.657.987-.814 2.193-1.222 4.335-1.222h6.757zM30.512 16.65c.104.176.385.22 1.268.22h2.641c.873 0 1.206-.044 1.424-.22.28-.243.77-.815 1.872-5.594 1.143-4.768.935-5.351.769-5.583-.104-.176-.385-.242-1.268-.242h-2.579c-.883 0-1.206.066-1.434.242-.27.22-.77.815-1.872 5.583-1.206 4.834-.987 5.351-.821 5.594zm24.899-2.159c1.32 0 1.549.122 1.757.408l.01.01c.208.331.322.629.104 2.203a60.665 60.665 0 0 0-.717 4.36.386.386 0 0 0 .384.474h5.437c.281 0 .551-.297.603-.584.219-1.622.496-3.234.832-4.834.655-3.149-.384-3.842-2.308-4.36v-.066c2.474-.517 3.899-1.685 4.834-5.759.718-3.028.5-4.074-.156-5.065-.613-.815-1.715-1.1-3.742-1.1H49.91a.654.654 0 0 0-.603.517l-4.886 20.722c-.052.298.104.529.385.529h5.333a.655.655 0 0 0 .603-.529l1.476-6.397a.654.654 0 0 1 .613-.528h2.579zm1.372-4.712c1.154 0 1.487-.055 1.705-.231.385-.298.665-.815.936-2.093.27-1.288.218-1.761 0-2.048-.167-.176-.437-.22-1.591-.22h-2.859a.654.654 0 0 0-.603.518l-.832 3.611c-.052.287.104.518.385.518h2.859v-.055zM105.094 22H88.668c-.28 0-.447-.231-.395-.529L92.889.518c.07-.3.322-.512.613-.518h19.129c.322 0 .488.341.27.694-.832 1.398-4.013 4.371-7.589 4.371h-6.654a.654.654 0 0 0-.603.518l-.488 2.334c-.052.286.104.517.385.517h8.961c.27 0 .437.232.385.529l-.77 3.667a.653.653 0 0 1-.613.517h-8.951a.655.655 0 0 0-.603.529l-.614 2.675c-.052.298.104.529.385.529h10.064c.27 0 .436.22.384.517l-.883 4.02a.661.661 0 0 1-.603.583zM3.586.176h22.529c.28 0 .384.231.28.573l-2.36 3.964a.652.652 0 0 1-.613.517h-8.847a.656.656 0 0 0-.593.529l-.831 3.259c-.052.297.104.529.384.529h5.874c.28 0 .447.23.385.517l-.874 3.612c-.052.286-.332.528-.603.528h-5.884a.654.654 0 0 0-.603.518l-1.653 6.75c-.052.297-.322.528-.603.528H.394c-.28 0-.436-.231-.384-.529l.55-2.092c.053-.23.23-.462.438-.528.143-.04.314-.075.504-.115 1.202-.252 3.17-.664 3.79-3.078l.165-.76 1.924-7.62.156-.77c.595-2.28-2.464-2.775-4.08-3.037-.358-.058-.646-.105-.806-.157-.167-.12-.27-.286-.219-.528L2.983.694a.654.654 0 0 1 .603-.518z"></path>
</svg>
