<svg xmlns="http://www.w3.org/2000/svg" viewBox="0 0 296.2 142.8"><path d="M296.2 47.7c-.2-2.1-.1-4.7-.1-7.2 0-1.2 0-2.4-.1-3.4 0-.3-.1-.5-.1-.8v-.1l-.1-.4v-.2c0-.1-.1-.2-.1-.3 0-.1-.1-.2-.1-.3 0-.2-.1-.3-.1-.5-.1-.4-.2-.7-.3-1-.2-.4-.3-.7-.5-1 0-.8-.2-1.6-.3-2.3V30v-.1c0-.1 0-.2.1-.2 0-.2.1-.3.2-.4-1.1-2.5-2.1-5-3.2-7.4-.9-2.1-1.9-4.5-3-5.7-1.3-1.5-2.2-4.6-3.8-6.6-.2-.2-.3-.5-.5-.7-.3-.4-.5-.8-.8-1.3-.3-.5-.7-1.1-1.1-1.6-.2-.3-.4-.6-.5-.8-.2-.3-.4-.6-.6-.8-.9-.9-2.2-1.6-3.5-1.9-1.2-.4-2.6.1-3.7.2-.6.1-1.4.2-2.2.4-.5.1-1.1.2-1.6.3-1.1.1-2.3.1-3.1-.3-.5.5-.7.8-1 1.1-.4-.1-.7-.2-1-.3l-.4-.2c-2 .3-3.4.3-4.5.2v-.1c-.9 0-2-.1-3.3 0-3.1.1-5.4.5-9.6 1-.8.1-11 .7-11.7.9-1.6.4-3.3.8-5 1.2-1.8.4-5 .6-4.4 1.3.1.1-1.4.4-2.3.6-2 .3-4 .6-6.1.9-.5.3-1 .4-1.5.7 0 0 0-.1-.1-.1l-3.8.5c-.7-.9-.6-.8-1.6-1-1.9-.4-5.3 0-7.9.8-3.5 1.1-7.8 1.6-11.8 2.3-1.7.3-3.3.6-4.7.9l-1.2.3c0-.1.1-.3.5-.5-3.4.5-3.1-.5-6.1-.2-3.1.3-6.2.6-9.2 1-2.1.3-5.3.9-6 1.3-1.4.8-4.2 1.2-6.6 1.8-.8.2-1.6.4-2.5.6h-1.9c-.2-.1-.4-.3-.7-.5-.3.2-1 .2-1.7.4-.7 0-1.4-.2-2.1-.1l3.5-.4c-2.2.3-2.3-.4-6 .6-1.3 0-2.5-.1-3.8-.1-1.3.2-2.5.5-3.6.7-4.4 1-8.9 1.7-13.7 2.1-.5 0-1.2.2-1.7.3l-8 1.8c-.8-.1-1.7-.2-2.5-.4-2.6-.4-4.1.8-6.7.9.1-.7-1-1-5.2-.2-2.6.5-5.8.8-8.6 1.3-1 .2-1.7.5-2.7.8-.5-.2-.7-.4-.4-.8-2.2 0-3.8-.2-5.7-.1-1.4.1-3.3.3-4.8.6-3.2.6-6.2 1.3-9.5 1.2-4.1 1-10.4 1.4-12.9 2.9-.2.1-.4.2-.7.4-1.1-.1-1.9-.4-2.2-.9-2.7.2-5.4.4-8 .6-2.3.2-4.8.4-6.3 1-1.9.8-5 .6-7.4 1.4-2 .7-6 1.4-8.6 2.2-1.5.5-4.4 1.2-6 .4-.5.5-.7.8-1 1.1-.4-.1-.7-.2-1-.3l-.4-.2c-.3 0-.5.1-.7.1H14c-.2 0-.3.1-.5.1-.7.1-1.3.2-1.9.3-1.2.2-2.2.3-3.2.4l2.8 4.1-2.9-4.2c-1.4.4-3 1.6-3.9 3.5-.3 1.3-.5 2.5-.7 3.8-.1.6-.2 1.2-.3 1.9-.1.4-.1.5-.1.7v.6c-.1 1.5-.2 3.1-.4 5.2-.1.8-1.4 11-1.3 11.6.1 1.7.2 3.4.2 5.1.1 1.8-.4 5 .4 4.6.1 0 .2 1.5.1 2.4-.1 2-.2 4.1-.3 6.2.2.5.2 1.1.4 1.6h-.2l-.3 3.8c-1 .5-.9.4-1.3 1.4-.7 1.8-1.1 5.2-.7 7.9.2 1.8.2 3.8.2 5.9 0 1-.1 2-.1 3.1 0 .5 0 1-.1 1.5V108.2c0 .8.1 1.3.2 1.9.1.6.3 1.1.4 1.7l.3.9.2.4c.1.2.1.2.1.3.2.3.4.6.5.9.2.4.4.7.6 1-.1.1-.3 0-.6-.3 1.3 3.2.3 3.1 1.3 5.9 1.1 2.9 2.1 5.8 3.3 8.6.8 2 2.2 4.9 2.8 5.4.1.1.2.2.3.4l.2.2c.1.1.1.2.2.4.3.5.6 1.1.9 1.7.7.9 1.2 2.1 2.2 2.8 1 .8 2.2 1.4 3.4 1.5 1.4 0 2.7-.2 4.1-.3.7 0 1.4.1 2.1.1.2.2.4.3.7.6.3-.2 1-.2 1.7-.3.7 0 1.4.3 2.1.3l-3.5.2c2.2-.2 2.3.5 6-.3 1.2.1 2.5.2 3.8.3 1.3-.2 2.6-.3 3.7-.5 4.4-.8 9-1.2 13.8-1.4.6 0 1.2-.1 1.7-.2l8.1-1.4c.8.2 1.7.3 2.5.5 2.6.5 4.1-.6 6.8-.6-.2.7.9 1 5.2.4 2.7-.4 5.8-.5 8.7-.8 1-.1 1.7-.4 2.7-.7.5.2.7.5.3.8 2.2.2 3.7.4 5.6.4 1.4 0 3.3-.1 4.8-.3 3.2-.4 6.2-.9 9.5-.7 4.2-.8 10.4-.9 13-2.2.2-.1.4-.2.7-.3 1.1.2 1.9.5 2.1 1 2.7-.1 5.4-.1 8-.2 2.3-.1 4.9-.1 6.4-.7 1.9-.7 5-.3 7.5-1 2.1-.6 6-1 8.7-1.7 1.5-.4 4.4-.9 6.1-.1l1-1c.4.1.7.2 1 .3l.3.2c2-.2 3.4-.1 4.5.1l-.3-4.9.3 4.9c.9.1 2 .2 3.3.2 3.1.1 5.4-.2 9.6-.4.8 0 11.1-.1 11.7-.3 1.7-.3 3.3-.6 5.1-.9 1.8-.3 5-.3 4.5-1.1-.1-.1 1.5-.4 2.4-.5 2-.2 4.1-.4 6.2-.6.5-.2 1-.3 1.5-.6 0 0 0 .1.1.1l3.8-.3c.6 1 .5.8 1.5 1.1 1.9.5 5.3.3 8-.4 3.6-.9 7.9-1.2 11.9-1.6 1.7-.2 3.4-.4 4.7-.7l1.2-.3c0 .1-.1.3-.5.5 3.4-.3 3.1.7 6 .6 3.1-.1 6.2-.2 9.2-.5 2.1-.2 5.3-.6 6-.9 1.5-.8 4.3-1 6.7-1.4.8-.1 1.7-.3 2.6-.4.7 0 1.3.1 1.9.1.2.2.4.3.7.6.3-.2 1-.2 1.7-.3.7 0 1.4.3 2.1.3l-3.5.2c2.2-.2 2.3.5 6-.3.2 0 1.1 0 1.8.1h2.2c.8-.1 1.7-.3 2.5-.4 2-.6 3.6-2.5 4.2-4.2.2-1.9.4-3.9.6-5.9l.1-.7v-.4l-.1-.9v-1.7c0-2.3.1-4.7.4-7.1v-1.8l-.4-8.2c.3-.8.5-1.6.8-2.4.8-2.5-.1-4.1.2-6.8.7.3 1.1-.8 1-5.1-.1-2.7.2-5.8.2-8.7 0-1-.2-1.8-.4-2.8.3-.5.5-.6.8-.2.4-2.1.8-3.7 1-5.6.2-1.4.3-3.3.2-4.9.4-2.8.2-5.9.8-9.2z" fill="#010101"/><path d="M12.9 35.5c-1.1.1-2.1 1.1-2.2 2.2l-7 73.3c-.1 1.1.7 1.9 1.8 1.9l267-15.6c1.1-.1 2-1 2.1-2.1l3-89.8c0-1.1-.8-1.9-1.9-1.8L12.9 35.5z" fill="#f06faa"/><path d="M94.9 102.8c-1.2.2-2.3.5-3.6.7-1.3.2-3.5.2-3.2.8 0 .1-1 .3-1.7.3-1.4.1-2.9.2-4.4.4-.3.2-.7.3-1.1.5v-.1l-2.7.2c-.4 0-.4-.7-1.1-.9-1.3-.4-3.7-.3-5.6.2-2.5.7-5.6.8-8.4 1.1-1.2.1-2.4.3-3.3.5-.3.1-.6.1-.8.2 0-.1.1-.2.4-.4-2.4.2-2.2-.6-4.3-.5-2.2.1-4.4.1-6.5.3-1.5.1-3.8.4-4.2.7-1 .6-3 .7-4.7 1l-1.8.3c-.5 0-.9-.1-1.4-.1l-.5-.5c-.2.1-.7.1-1.2.2-.5 0-.9.5-1.5-.2l2.5-.1c-1.6-.7-1.6-.5-4.2.1l-2.7-.3c-.9.1-1.8.2-2.6.4-3.1.5-6.3.8-9.7.9-.4 0-.9.1-1.2.1l-5.7 1c-.4-.1-.4-.1-.5-.2-.1-.1-.2-.2-.2-.3-.2-.3-.3-.2-.5-.1s-.7.3-.7-.1c.3-.2.5-.5.6-.6.1-.2.2-.3.1-.5v-.2-.2c0-.5.1-1 .1-1.5.1-1 .2-2.1.2-3.1 0-.7-.1-1.2-.2-2 .2-.3.4-.4.7-.1.4-1.5.8-2.6 1-3.9.2-1 .3-2.3.3-3.4.1-2.3 0-4.4.6-6.7-.1-3 .6-7.3-.2-9.3-.1-.2-.1-.3-.2-.5.3-.7.6-1.2 1-1.4.3-1.9.6-3.8.8-5.6.2-1.6.5-3.4.2-4.5-.3-1.4.4-3.5.1-5.3-.2-1.5.7-4.2.5-6.2-.1-1.1-.2-3.2.7-4.2-.3-.4-.5-.6-.7-.9.2-.3.3-.4.4-.6l.2-.2c.2-2 .4-3.1.6-4 .1-.5.2-1 .3-1.6 0-.3.1-.6.2-1 0-.2.1-.4.1-.6v-.3h.1c-.1-.1 0-.1.1 0s.2.2.2.1L10.9 32c-.5.1-1.1.3-1.6.7-.6.3-1.1.8-1.6 1.4-.4.5-.7 1-.9 1.6-.2.6-.3 1.2-.5 1.8-.1 1.6-.3 3.2-.5 5.5-.1.6-1.2 7.7-1.2 8.2 0 1.2.1 2.4.1 3.6 0 1.3-.4 3.5.3 3.3 0-.1.1 1 0 1.6-.1 1.4-.2 2.9-.3 4.4.1.4.1.8.3 1.1h-.1l-.3 2.7c-.8.3-.7.3-1 .9-.6 1.2-.9 3.6-.7 5.6.3 2.6 0 5.6-.2 8.4-.1 1.2-.1 2.4 0 3.4 0 .3.1.6.1.9-.1 0-.2-.1-.3-.4-.2 2.4-.9 2.1-1.2 4.1C1 93 .7 95.1.6 97.3c-.1 1.5-.2 3.8 0 4.3.4 1.1.3 3.1.3 4.8 0 .2 0 .8.1 1.2 0 .5.1.9.1 1.4-.1.7-.1 1.4-.2 2.1-.1.2-.3.5-.5.9.1.2.1.4.1.8v.5c.1.1.1.3.2.4.2.7.5 1.5 1.1 2 0 0-.2-.1-.4-.4-.2-.3-.6-.6-.8-1l-.3-.6c0-.1-.1-.2-.1-.3v-.3-.6.9c0 .2.1.4.2.6.1.4.3.7.5 1.1.2.4.5.7 1.1 1.1.2.2.6.4.9.5.1 0 .2.1.3.1H4.4c1.4.2 2.9.4 4.4.6H10c.3 0 .5-.1.7-.1.4-.1.8-.1 1.2-.2 3.1-.5 6.3-.8 9.7-.9.4 0 .9-.1 1.2-.1l5.7-1c.6.1 1.2.3 1.7.4 1.8.5 2.9-.4 4.8-.4-.1.6.7.8 3.7.4 1.9-.3 4.1-.3 6.1-.5.7-.1 1.2-.3 1.9-.5.4.2.5.4.2.6 1.5.2 2.6.4 4 .4 1 0 2.4 0 3.4-.2 2.2-.3 4.4-.7 6.7-.4 2.9-.6 7.3-.5 9.2-1.6.2-.1.3-.2.5-.2.8.2 1.3.4 1.5.8h5.7c1.6 0 3.4 0 4.5-.4 1.3-.5 3.6-.2 5.3-.7 1.5-.5 4.2-.7 6.1-1.3 1.1-.3 3.1-.7 4.3 0 .4-.4.5-.6.7-.8.3.1.5.2.7.3l.2.2c1.4-.1 2.4 0 3.2.1l-.5-9.1c-2.5.1-7.1.5-7.5.6z" fill="#010101"/><path d="M269.7 92.6c0 .1 0 .2-.1.2h-.1l-.5.2c-.3.1-.6.1-.9.2-1.3.2-3.5.2-3.2.8 0 .1-1 .3-1.7.3-1.4.1-2.9.2-4.4.4-.3.2-.7.3-1.1.5v-.1l-2.7.2c-.4 0-.4-.7-1.1-.9-1.3-.4-3.7-.3-5.6.2-2.5.7-5.6.8-8.4 1.1-1.2.1-2.4.3-3.3.5-.3.1-.6.1-.8.2 0-.1.1-.2.4-.4-2.4.2-2.2-.6-4.3-.5-2.2.1-4.4.1-6.5.3-1.5.1-3.7.4-4.2.7-1 .6-3 .7-4.7 1l-1.8.3c-.5 0-.9-.1-1.4-.1l-.5-.5c-.2.1-.7.1-1.2.2-.5 0-.9.5-1.5-.2l2.5-.1c-1.6-.7-1.6-.5-4.2.1l-2.7-.3c-.9.1-1.8.2-2.6.4-3.1.5-6.3.8-9.7.9-.4 0-.9.1-1.2.1l-5.7 1c-.6-.1-1.2-.3-1.7-.4-1.8-.5-2.9.4-4.8.4.1-.6-.7-.8-3.7-.4-1.9.3-4.1.3-6.1.5-.7.1-1.2.3-1.9.5-.4-.2-.5-.4-.2-.6-1.5-.2-2.6-.4-4-.4-1 0-2.4 0-3.4.2-2.2.3-4.4.7-6.7.4-2.9.6-7.3.5-9.2 1.6-.2.1-.3.2-.5.2-.8-.2-1.3-.4-1.5-.8h-5.7c-1.6 0-3.4 0-4.5.4-1.3.5-3.6.2-5.3.7-1.5.5-4.3-.1-6.2.5-1.1.3-3.1.7-4.3 0-.4.4-.5.6-.7.8-.3-.1-.5-.2-.7-.3l-.2-.2c-4.1.3-4.2-.2-7.9 0h-1.4c-.9.3-2.7-.2-3.8-.1h-.1l.5 9.1c.6.1 1.4.2 2.3.2 2.2.1 3.8-.1 6.8-.2h8.3c1.2-.2 2.3-.5 3.6-.7 1.3-.2 3.5-.2 3.2-.8 0-.1 1-.3 1.7-.3 1.4-.1 2.9-.2 4.4-.4.3-.2.7-.3 1.1-.5v.1l2.7-.2c.4.8.4.6 1.1.9 1.3.4 3.7.3 5.6-.2 2.5-.7 5.6-.8 8.4-1.1 1.2-.1 2.4-.2 3.3-.5.3-.1.6-.1.8-.2 0 .1-.1.2-.4.4 2.4-.2 2.2.6 4.3.5 2.2-.1 4.4-.1 6.5-.3 1.5-.1 3.7-.4 4.2-.7 1-.6 3-.7 4.7-1l1.8-.3c.5 0 .9.1 1.4.1l.5.5c.2-.1.7-.1 1.2-.2.5 0 1 .3 1.5.2l-2.5.1c1.6-.1 1.6.4 4.2-.1l2.7.3c.9-.1 1.8-.2 2.6-.4 3.1-.5 6.3-.8 9.7-.9.4 0 .9-.1 1.2-.1l5.7-1c.6.1 1.2.3 1.7.4 1.8.5 2.9-.4 4.8-.4-.1.6.7.8 3.7.4 1.9-.3 4.1-.3 6.1-.5.7-.1 1.2-.3 1.9-.5.4.2.5.4.2.6 1.5.2 2.6.4 4 .4 1 0 2.4 0 3.4-.2 2.2-.3 4.4-.7 6.7-.4 2.9-.6 7.3-.5 9.2-1.6.2-.1.3-.2.5-.2.8.2 1.3.4 1.5.8h5.7c1.6 0 3.4 0 4.5-.4 1.3-.5 3.6-.2 5.3-.7.7-.2 1.8-.4 2.9-.6.6-.1 1.1-.2 1.7-.3.3-.1.5-.1.8-.2.3-.1.7-.2 1-.2.9-.2 2.1-.5 3.3-.7 1.2-.1 2.2-.9 3.1-1.3.1-.7.1-1 .1-1.5.2-.1.3-.3.4-.4.1-.1.2-.2.3-.4l.2-.3c.1-1.2.2-2.1.4-2.9.1-.4.2-.9.2-1.1 0-.2.3-.4.4-.6l-8.9-.3v.7h-.2-.1v.1c-.1.3-.2.3-.2.3zM196.6 18.2c1.2-.3 2.3-.6 3.5-.9 1.3-.3 3.5-.4 3.1-1 0-.1 1-.3 1.6-.4 1.4-.2 2.8-.4 4.3-.6.3-.2.7-.3 1-.5v.1l2.7-.3c.4 0 .4.6 1.1.8 1.3.3 3.7.1 5.6-.5 2.5-.8 5.5-1.2 8.3-1.6 1.2-.2 2.3-.4 3.3-.7.3-.1.5-.2.8-.3 0 .1-.1.2-.3.4 2.4-.3 2.2.5 4.3.3 2.2-.2 4.4-.4 6.5-.7 1.5-.2 3.7-.6 4.2-.9 1-.6 2.9-.9 4.7-1.3.6-.1 1.2-.3 1.8-.4h1.4c.1.1.3.3.5.4.2-.2.7-.2 1.2-.3.5 0 .9-.6 1.5.1l-2.4.3c1.6.6 1.6.4 4.2-.4.9 0 1.8.1 2.7.1.9-.2 1.8-.3 2.5-.5 1.5-.4 3.1-.7 4.7-.9l2.4-.3h.8c.1 0 .2 0 .3-.1.3-.2.7-.3.9-.1.2.2.2.4.1.8l.2-.1c-.2.3-.4.5-.6.6l-.1.1c0 .1-.1.2-.1.3 0 .2-.1.4-.1.6 0 .4 0 .8.1 1.1.1.7.2 1.5.1 2.4-.6-.2-.9.6-.8 3.6.1 1.9-.1 4.1-.1 6.1 0 .7.2 1.2.3 1.9-.2.3-.4.5-.7.2-.3 1.5-.6 2.6-.8 3.9-.1 1-.2 2.4-.1 3.4.1 2.3.3 4.4-.2 6.7.3 3-.1 7.4.7 9.3.1.2.1.3.2.5-.3.8-.6 1.3-.9 1.4-.2 1.9-.3 3.8-.5 5.6-.1 1.6-.3 3.4 0 4.5.4 1.4-.1 3.6.2 5.3.3 1.5-.5 4.3-.1 6.2.2 1.1.4 3.2-.4 4.2.4.4.5.6.7.8-.1.3-.2.5-.3.7l-.2.2c-.1 4.1-.5 4.2-.7 7.9 0 .5-.2 1.2-.1 1.4.2.9-.5 2.7-.4 3.7v.1l9.2.3c.1-.6.3-1.4.4-2.3.3-2.2.3-3.8.4-6.7 0-.6.8-7.8.7-8.2-.1-1.2-.3-2.4-.4-3.6-.1-1.3.1-3.5-.5-3.2-.1 0-.2-1.1-.2-1.7v-4.4c-.2-.3-.2-.8-.4-1.1h.1l.1-2.7c.8-.4.7-.3 1-1 .5-1.3.7-3.7.3-5.6-.4-2.6-.3-5.6-.4-8.4 0-1.2 0-2.4-.2-3.4 0-.3-.1-.6-.1-.8.1 0 .2.1.4.4 0-2.4.8-2.1.9-4.2.1-2.2.3-4.4.3-6.5 0-1.5 0-3.8-.3-4.3-.5-1.1-.5-3.1-.6-4.8 0-.6-.1-1.2-.1-1.8.1-.5.2-.9.3-1.4.1-.1.3-.2.5-.4-.1-.2-.1-.7-.1-1.2.1-.5.4-1 .4-1.5l-.1 2.5c.1-1.6.6-1.5.2-4.2.1-.4.2-.9.3-1.3l.1-.3.1-.6.2-1.3v-2c-.2-.9-.4-1.6-.6-2.3-.1-.3-.1-.6-.3-.9-.1-.2-.3-.5-.5-.7-.4-.5-.8-.9-1.3-1.3-.5-.3-1.1-.6-1.6-.7-.7 0-1.3.1-2 .1-1.3.1-2.7.1-4.1.1h-.8l-.6.1c-.4 0-.8.1-1.3.1-.4 0-.9.1-1.2.2l-5.6 1.3-1.8-.3c-1.8-.4-2.9.6-4.8.7.1-.6-.7-.8-3.7-.2-1.9.4-4.1.5-6.1.9-.7.1-1.2.4-1.9.6-.4-.1-.5-.3-.3-.6-1.5-.1-2.7-.2-4-.2-1 0-2.3.2-3.4.4-2.2.4-4.3.9-6.7.9-2.9.8-7.3 1-9.1 2.2-.1.1-.3.2-.5.3-.8-.1-1.4-.4-1.5-.7-1.9.1-3.8.3-5.6.4-1.6.1-3.4.2-4.4.7-1.3.6-3.5.4-5.2 1-1.4.5-4.2 1-6 1.6-1.1.4-3.1.9-4.3.2-.3.4-.5.6-.7.8-.3-.1-.5-.2-.7-.2l-.3-.1c-1.4.2-2.4.2-3.2.1l1.1 9c2.9-.2 7.5-.9 7.9-1z" fill="#010101"/><path d="M20.8 39.5c1.2-.3 2.3-.6 3.5-.9 1.3-.3 3.5-.4 3.1-1 0-.1 1-.3 1.6-.4 1.4-.2 2.8-.4 4.3-.6.3-.2.7-.3 1-.5v.1l2.7-.3c.4 0 .4.6 1.1.8 1.3.3 3.7.1 5.6-.5 2.5-.8 5.5-1.2 8.3-1.6 1.2-.2 2.3-.4 3.3-.7.3-.1.5-.2.8-.3 0 .1-.1.2-.3.4 2.4-.3 2.2.5 4.3.3 2.2-.2 4.4-.4 6.5-.7 1.5-.2 3.7-.6 4.2-.9 1-.7 2.9-.9 4.7-1.3.6-.1 1.2-.3 1.8-.4h1.4c.1.1.3.3.5.4.2-.2.7-.2 1.2-.3.5 0 .9-.6 1.5.1l-2.4.3c1.6.6 1.6.4 4.2-.4.9 0 1.8.1 2.7.1.9-.2 1.8-.3 2.5-.5 3.1-.7 6.3-1.2 9.7-1.5.4 0 .9-.1 1.2-.2l5.6-1.3 1.8.3c1.8.4 2.9-.6 4.8-.7-.1.6.7.8 3.7.2 1.9-.4 4.1-.5 6.1-.9.7-.1 1.2-.4 1.9-.6.4.1.5.3.3.6 1.5.1 2.7.2 4 .2 1 0 2.3-.2 3.4-.4 2.2-.4 4.3-.9 6.7-.9 2.9-.8 7.3-1 9.1-2.2.1-.1.3-.2.5-.3.8.1 1.4.4 1.5.7 1.9-.1 3.8-.3 5.6-.4 1.6-.1 3.4-.3 4.4-.7 1.3-.6 3.5-.4 5.2-1.1 1.4-.5 4.3-.2 6.1-.8 1.1-.4 3.1-.9 4.3-.2.3-.4.5-.6.7-.8.3.1.5.2.7.2l.3.1c4-.6 4.2-.1 7.9-.5.5-.1 1.2 0 1.4-.1.9-.3 2.7 0 3.7-.2h.1l-1.1-9.1c-.7-.1-1.4-.1-2.3-.1-2.2 0-3.8.3-6.7.6-.6.1-7.8.4-8.2.6-1.2.3-2.3.6-3.5.9-1.3.3-3.5.4-3.1 1 0 .1-1 .3-1.6.4-1.4.2-2.8.4-4.3.6-.3.2-.7.3-1 .5v-.1l-2.7.3c-.5-.7-.4-.6-1.1-.8-1.3-.3-3.7-.1-5.6.5-2.5.8-5.5 1.2-8.3 1.6-1.2.2-2.3.4-3.3.7-.3.1-.5.2-.8.3 0-.1.1-.2.3-.4-2.4.3-2.2-.5-4.3-.3-2.2.2-4.4.4-6.5.7-1.5.2-3.7.6-4.2.9-1 .7-2.9.9-4.7 1.3-.6.1-1.2.3-1.8.4h-1.4c-.1-.1-.3-.3-.5-.4-.2.2-.7.2-1.2.3-.5 0-1-.2-1.5-.1l2.4-.3c-1.6.2-1.6-.3-4.2.4-.9 0-1.8-.1-2.7-.1-.9.2-1.8.3-2.5.5-3.1.7-6.3 1.2-9.7 1.5-.4 0-.9.1-1.2.2L86.7 23l-1.8-.3c-1.8-.4-2.9.6-4.8.7.1-.6-.7-.8-3.7-.2-1.9.4-4.1.5-6.1.9-.7.1-1.2.4-1.9.6-.4-.1-.5-.3-.3-.6-1.5-.1-2.7-.2-4-.2-1 0-2.3.2-3.4.4-2.2.4-4.3.9-6.7.9-2.9.8-7.3 1-9.1 2.2-.1.1-.3.2-.5.3-.8-.1-1.4-.4-1.5-.7-1.9.1-3.8.3-5.6.4-1.6.1-3.4.2-4.4.7-1.3.6-3.5.4-5.2 1-1.4.5-4.2 1-6 1.6-1.1.4-3.1.9-4.3.2-.3.4-.5.6-.7.8-.3-.1-.5-.2-.7-.2l-.3-.1c-.4.1-.7.1-1 .1-.5.1-.9.1-1.4.2-.9.1-1.6.1-2.3.2l4.8 8.4v-.1c.7-.1 1.5-.2 2.2-.3 1.4-.1 2.6-.3 2.8-.4z" fill="#010101"/><g><g fill="#010101"><path d="M44.6 52c.4 0 .9.1 1.6.3.9.3 1.7.8 2.4 1.4.7.6 1.1 1.3 1.2 2.1.1.9.1 2.9-.1 6s-.3 4.7-.2 4.8c.4.2 1.6.3 3.8.2 2.2-.1 4.3-.3 6.2-.6.3-.1 0-1.9-.7-5.5-.7-3.5-1-5.6-.9-6.1.2-.5.7-1 1.5-1.4.9-.5 1.8-.7 2.7-.8 1-.1 1.7.1 2.3.6.6.5 1.1 1.4 1.6 2.8s1.1 3.5 1.8 6.4c1 4.1 2.3 8.5 3.9 13.3.6 1.6 1 2.8 1.2 3.7.2.8.4 1.6.6 2.3.2.7.1 1.2 0 1.6-.2.3-.4.6-.7.9-.3.2-.7.5-1.3.7-.8.4-1.4.5-1.7.5-.3 0-1-.3-2-.7-1.2-.5-2.1-1.3-2.7-2.3-.6-1-1.3-2.5-2.1-4.8-.7-2.2-1.3-3.5-1.7-3.8-.3-.3-1.2-.3-2.6-.1-6.2 1.2-9.4 2-9.8 2.4-.2.3-.3 2-.1 5.1.2 2.4.2 4.1.1 4.9-.1.8-.5 1.3-1 1.3-.4 0-.8.3-1.2.7-.4.5-.7.6-1.1.3-.4-.2-.9-.3-1.7-.3-.7 0-1.5-.5-2.3-1.5-.5-.7-.9-1.4-1.1-2.2-.2-.8-.5-2.3-.7-4.7-.5-3.5-.9-5.5-1.4-6.1-.2-.4-.4-.8-.3-1.2 0-.4.2-1 .6-2 .6-1.3.9-2.4 1.1-3.2.1-.8.3-2.8.5-5.8.2-5.5 1.1-8.5 2.5-9 .9 0 1.4-.2 1.8-.2zM89.3 45.5c1.2-.1 2.5 0 3.9.2s2.8.5 4.2 1c1.4.5 2.5 1 3.2 1.7 1.6 1.4 2.8 3 3.5 4.8.7 1.8 1.1 4.3 1.3 7.5.3 6 .4 9.9.2 11.7-.2 1.9-.8 3.8-1.8 5.7-2.6 4.7-7.1 6.9-13.6 6.5-1.9-.1-3.6-.4-5-.8s-2.9-1.1-4.5-2.1c-1.4-.9-2.9-2.3-4.3-4.1-1.5-1.9-2.4-3.5-2.8-4.8-.3-1.1-.4-2.9-.4-5.6 0-2.7.1-4.1.3-4.3.2-.2.3-.5.2-1-.1-.5.1-1 .4-1.7.4-1 1.2-2.4 2.4-4.4 1.2-1.9 1.9-3 2.2-3.3.5-.4.7-.8.6-1.1 0-.3.4-.9 1.3-1.8.4-.3.8-.7 1-1.1.3-.4.4-.7.4-.9-.1-.4.1-.7.4-.8.3-.1 1.1 0 2.2.2.7.1 1.2.2 1.4.1.3-.1.6-.2.9-.6.4-.6 1.2-.9 2.4-1zm5.3 7.6c-.7 0-1.5-.1-2.2-.1-.8 0-1.3-.1-1.6-.1-.8-.2-1.9.5-3.2 2.3-1.3 1.7-2.4 3.9-3.4 6.5s-1.6 4.9-1.7 6.9c-.1 1.5 0 2.6.3 3.3.3.9 1.2 1.7 2.5 2.6 1.3.9 2.5 1.4 3.6 1.4.5.1.9.1 1.4-.1.4-.2.8-.4 1.2-.7.4-.3.9-.9 1.7-1.7 1.3-1.4 2.1-2.5 2.5-3.5.4-1 .8-2.7 1-5.3.4-2.9.5-5.5.4-7.6-.2-2.2-.5-3.4-1.1-3.8-.2 0-.7 0-1.4-.1zM136.9 40.6c.5.2.9.2 1 0 .2-.3.7-.3 1.3-.1.6.2 1 .6 1.1 1 0 .2.1.4.3.6.1.2.3.5.4.7l.3.6c.1.2.2.4.2.7 0 .2 0 .5-.1.7-.6 1.6-4.5 3.6-11.8 5.9-.8.3-1.4.8-1.8 1.6-.5.9.1 5.7 1.7 14.2 1.6 8.6 2.1 13.1 1.6 13.7-.5.6-.9.9-1.5.9-.5 0-.9.2-1.2.6-.2.3-.7.3-1.3 0-.6-.3-1.2-.7-1.9-1.4-.6-.6-1.1-1.3-1.4-1.9-.6-1.3-1.4-4.3-2.3-9-1-4.7-1.5-8.1-1.6-10.3-.1-2.7-.3-4.1-.6-4.2-.3-.2-1.5.1-3.8.9-2 .7-3.4 1.1-4.2 1.2-.8.1-1.6 0-2.4-.3-1.3-.6-2.3-1.9-3.1-4.1-.2-.6-.3-1.1-.2-1.4.1-.3.3-.7.8-1.2.7-.7 1.4-1.2 2.1-1.5.7-.3 2.4-.7 4.9-1.3 2.7-.6 5.4-1.3 8-2.1 2.6-.9 4.7-1.4 6.3-1.6.7-.1 1.4-.2 2-.4.6-.2 1.3-.4 2-.7.7-.3 1.7-.7 2.9-1.3.9-.5 1.7-.7 2.3-.5zM190.7 33.7c.6.2.9.2 1 0 .2-.3.6-.3 1.3-.1.6.3 1 .6 1.1 1 0 .2.1.4.3.6.1.2.3.5.4.7l.3.6c.1.2.2.4.3.7.1.3 0 .5 0 .7-.5 1.7-4.3 3.8-11.5 6.2-.8.3-1.4.8-1.7 1.7-.4 1 .3 5.9 2.2 14.9 1.9 9 2.7 13.8 2.1 14.3-.4.6-.9.9-1.4 1-.5 0-.9.3-1.2.6-.2.3-.7.3-1.3 0-.6-.3-1.3-.8-1.9-1.4-.7-.7-1.2-1.3-1.5-2-.7-1.3-1.6-4.5-2.7-9.4s-1.8-8.5-2-10.8c-.2-2.8-.5-4.3-.8-4.4-.3-.2-1.5.1-3.7 1-1.9.8-3.3 1.2-4.1 1.3-.8.1-1.6 0-2.4-.3-1.3-.6-2.4-2-3.2-4.3-.2-.6-.3-1.1-.2-1.4 0-.3.3-.8.8-1.3.6-.8 1.3-1.3 2-1.6.7-.3 2.3-.8 4.8-1.4 2.7-.6 5.3-1.3 7.9-2.2 2.5-.9 4.6-1.5 6.2-1.7.7-.1 1.4-.2 2-.4.6-.2 1.2-.4 2-.7.7-.3 1.7-.8 2.8-1.4.7-.5 1.5-.7 2.1-.5zM200.9 34.7c.3 0 .9.4 2 1.1.8.5 1.4 1 1.7 1.4.3.5.7 1.2 1 2.2.8 2.2 3.1 10.5 7 24.9.6 2.3.8 4.3.4 5.9-.3 1.6-1.1 2.5-2.3 2.6-1 .1-2.1-.2-3.4-.9-1.3-.7-2.1-1.5-2.5-2.3-.5-1.1-1.5-4.8-2.9-11-1.6-6.5-2.8-11.4-3.7-14.9-.7-2.5-1-4-1.1-4.7 0-.6.1-1.3.4-1.9.5-.8 1.1-1.5 1.8-1.9.8-.3 1.4-.5 1.6-.5zM227 28.6c1.7 0 3.5.1 5.2.4 1.3.2 2.3.6 3.1 1 .8.4 2 1.1 3.4 2.2l3.4 2.5.7 3.9c.2 1.2.3 2.1.3 2.8 0 .7 0 1.3-.1 1.8-.1.6-.3 1.2-.6 2-.7 2-1.9 4.1-3.6 6.4-1.7 2.2-3.3 3.9-4.9 5-1.8 1.3-2.9 2.1-3.3 2.6-.4.4-.5 1.1-.3 2.2s.6 2.2 1.3 3.5c.6 1.1.9 2 .9 2.7 0 1.1-.8 1.9-2.4 2.5-1.6.6-2.8.6-3.6-.1-1.6-1.3-3.2-3.9-4.8-7.8-1.5-3.9-2.7-8.2-3.5-13.1-.7-3.6-1.1-5.5-1.3-5.7-.3-.1-.9 0-1.8.6-.8.5-1.5.7-2.1.6-.6-.1-1.5-.6-2.7-1.5l-1.5-1.2.5-2.1c.5-1.9.9-3.2 1.2-3.8.4-.6 1.1-1.3 2.3-2.2 3.2-2.3 6-3.6 8.5-3.9 1.3-.2 2-.4 2.3-.7.6-.4 1.7-.6 3.4-.6zm3 7.8c-2.1.1-3.5.4-4.3.8-.5.3-.8.6-.8 1.1 0 .5.3 2 .8 4.6.8 3.5 1.2 5.3 1.5 5.5.3.2 1.4-.8 3.2-3.2 1.5-1.9 2.5-3.8 3.1-5.4.6-1.7.7-2.7.1-3.1-.3-.3-1.5-.4-3.6-.3z"/></g></g></svg>