<svg width="96" height="42" viewBox="0 0 96 42" xmlns="http://www.w3.org/2000/svg"><g fill="none" fill-rule="evenodd"><path stroke="#191A1B" stroke-width="1.5" fill="#191A1B" d="M3 14.059L91.336 3.212l3.29 26.8L6.29 40.857z"/><path stroke="#191A1B" stroke-width="1.5" fill="#FFDCED" d="M1 12.059L89.337 1.212l3.29 26.799L4.29 38.857z"/><path d="M20.89 28.105l-.493-4.013 3.573-.438.493 4.012 2.174-.267-1.188-9.677-2.174.267.467 3.804-3.573.438-.467-3.804-2.174.267 1.188 9.678 2.174-.267zm12.75-1.422c3.12-.383 4.58-2.648 4.22-5.573-.36-2.926-2.323-4.77-5.443-4.387-3.119.383-4.586 2.648-4.227 5.574.36 2.925 2.331 4.769 5.45 4.386zm-.224-1.831c-1.705.209-2.751-.925-2.985-2.83-.234-1.906.507-3.259 2.211-3.468 1.698-.209 2.743.925 2.977 2.83.234 1.906-.506 3.26-2.203 3.468zm10.685.403l-.96-7.816 2.464-.303-.229-1.861-7.101.872.228 1.861 2.464-.303.96 7.817 2.174-.267zm11.791-1.448l-.96-7.816 2.464-.303-.228-1.86-7.102.871.229 1.861 2.464-.302.96 7.816 2.173-.267zm6.659-.818l-1.188-9.677-2.174.267 1.188 9.677 2.174-.267zm4.917-.603l-.413-3.358 1.6-.196c2.204-.27 3.262-1.564 3.007-3.641-.249-2.025-1.565-2.959-3.76-2.69l-3.79.466 1.19 9.685 2.166-.266zm.81-5.155l-1.422.175-.364-2.963 1.43-.176c.938-.115 1.485.279 1.604 1.254.122.99-.25 1.588-1.248 1.71zm7.509 1.058l-.586-6.676-2.129.261 1.047 6.62 1.668-.205zm-.445 3.273a1.308 1.308 0 001.13-1.445 1.306 1.306 0 00-1.445-1.123 1.306 1.306 0 00-1.13 1.439 1.308 1.308 0 001.445 1.13z" fill="#191A1B" fill-rule="nonzero"/></g></svg>