<svg width="140" height="48" viewBox="0 0 140 48" xmlns="http://www.w3.org/2000/svg"><g fill="none" fill-rule="evenodd"><path stroke="#191A1B" stroke-width="1.5" fill="#191A1B" d="M4 19.42L135.016 3.333l3.29 26.8L7.292 46.218z"/><path stroke="#191A1B" stroke-width="1.5" fill="#FAF77D" d="M1 17.42L132.016 1.333l3.29 26.799L4.29 44.219z"/><path d="M19.028 33.476c1.943-.239 3.128-1.42 2.922-3.102-.152-1.236-.98-2.064-2.53-2.145 1.051-.417 1.532-1.178 1.385-2.377-.191-1.556-1.26-2.263-3.352-2.006l-4.28.525 1.188 9.678 4.667-.573zm-1.48-5.66l-1.72.211-.27-2.196 1.727-.212c.812-.1 1.32.095 1.42.914.099.804-.346 1.184-1.157 1.283zm.94 3.973l-2.166.266-.308-2.509 1.995-.245c1.095-.134 1.624.179 1.738 1.102.098.804-.313 1.27-1.258 1.386zm12.5.218l-.23-1.86-4.376.537-.276-2.249 3.647-.447-.21-1.705-3.647.448-.246-2.003 4.229-.519-.229-1.86-6.402.785 1.188 9.678 6.551-.805zm5.908-.59c2.166-.265 3.48-1.56 3.256-3.391-.21-1.712-1.495-2.205-3.38-2.472-1.76-.245-2.32-.433-2.402-1.103-.07-.573.325-1.045 1.248-1.158 1.147-.14 1.824.388 2.11 1.554l1.883-.488c-.44-2.228-1.89-3.138-4.227-2.85-1.98.242-3.412 1.438-3.176 3.359.22 1.801 1.525 2.329 3.626 2.577 1.457.176 2.058.337 2.14 1.007.081.655-.36 1.057-1.306 1.173-1.295.159-2.02-.334-2.24-1.569l-2.02.475c.396 2.422 2.284 3.157 4.488 2.887zm9.411-1.29l-.96-7.817 2.464-.303-.228-1.86-7.102.871.229 1.861 2.464-.302.96 7.816 2.173-.267zm10.05-1.235l-.413-3.357 1.601-.197c2.203-.27 3.261-1.564 3.006-3.64-.248-2.025-1.565-2.96-3.76-2.69l-3.79.465 1.19 9.685 2.166-.266zm.81-5.154l-1.422.174-.364-2.963 1.43-.175c.938-.115 1.485.278 1.604 1.254.122.99-.25 1.587-1.248 1.71zm8.365 4.028l-.446-3.633 1.027-.126 2.657 3.361 2.583-.317-2.92-3.54c1.222-.566 1.829-1.653 1.66-3.03-.253-2.063-1.655-2.895-3.762-2.637l-4.161.511 1.188 9.678 2.174-.267zm1.148-5.476l-1.794.22-.329-2.68 1.81-.222c.937-.115 1.425.226 1.534 1.119.116.938-.26 1.445-1.22 1.563zm8.272 4.319l.366-2.063 3.685-.452.855 1.913 2.397-.295-4.397-9.283-3.283.403-2.012 10.07 2.39-.293zm3.374-4.034l-2.717.334.815-4.619 1.902 4.285zm9.808 2.559c2.539-.312 3.963-1.817 3.881-4.27l-2.134-.025c-.034 1.75-.846 2.34-2.014 2.484-1.675.206-2.624-.94-2.86-2.86-.236-1.92.408-3.262 2.083-3.467 1.168-.144 2.113.284 2.556 1.922l2.064-.54c-.484-2.404-2.26-3.516-4.799-3.204-3.03.372-4.508 2.609-4.145 5.564.363 2.955 2.339 4.768 5.368 4.396zm10.386-1.419l-.96-7.816 2.464-.303-.228-1.86-7.102.871.229 1.861 2.464-.302.96 7.816 2.173-.267zm6.659-.817l-1.188-9.678-2.174.267 1.188 9.678 2.174-.267zm6.922-.707c2.538-.311 3.963-1.816 3.88-4.27l-2.133-.025c-.035 1.75-.846 2.34-2.015 2.484-1.675.206-2.624-.94-2.86-2.86-.236-1.92.408-3.261 2.083-3.467 1.169-.144 2.113.285 2.556 1.923l2.064-.54c-.484-2.405-2.26-3.517-4.798-3.205-3.03.372-4.509 2.609-4.146 5.564.363 2.956 2.339 4.768 5.369 4.396zm13.028-1.743l-.229-1.861-4.377.537-.276-2.248 3.648-.448-.21-1.704-3.647.448-.246-2.003 4.228-.519-.228-1.861-6.402.786 1.188 9.677 6.551-.804z" fill="#191A1B" fill-rule="nonzero"/></g></svg>