<svg width="96" height="42" viewBox="0 0 96 42" xmlns="http://www.w3.org/2000/svg"><g fill="none" fill-rule="evenodd"><path stroke="#191A1B" stroke-width="1.5" fill="#191A1B" d="M3 14.059L91.336 3.212l3.29 26.8L6.29 40.857z"/><path stroke="#191A1B" stroke-width="1.5" fill="#B8FFF3" d="M1 12.059L89.337 1.212l3.29 26.799L4.29 38.857z"/><path d="M17.296 28.546l.41-5.529c.039-.54.063-1.02.08-1.498.132.46.273.934.44 1.427l1.735 5.273 3.075-.378 1.037-9.95-2.3.282-.388 5.889a34.155 34.155 0 00-.088 2.36 40.518 40.518 0 00-.7-2.263l-1.943-5.603-2.427.298-.514 5.904a36.984 36.984 0 00-.14 2.375c-.19-.755-.4-1.477-.65-2.278l-1.8-5.62-2.285.28 3.399 9.407 3.06-.376zm10.865-1.334l.366-2.062 3.685-.453.855 1.913 2.397-.295-4.397-9.283-3.283.403-2.013 10.07 2.39-.293zm3.373-4.034l-2.717.334.816-4.619 1.901 4.285zm7.998 2.638l-.446-3.633 1.027-.126 2.657 3.361 2.583-.317-2.92-3.54c1.222-.566 1.829-1.653 1.66-3.03-.253-2.062-1.655-2.895-3.762-2.637l-4.161.511 1.188 9.678 2.174-.267zm1.149-5.476l-1.795.22-.329-2.68 1.81-.222c.937-.115 1.425.226 1.535 1.12.115.937-.261 1.444-1.221 1.562zm8.844 4.249l-.568-4.63a27.05 27.05 0 00-.263-1.714c.373.582.713 1.069 1.049 1.526l3.251 4.392 2.36-.29-1.188-9.677-2.114.26.568 4.63c.07.565.163 1.136.264 1.713a23.39 23.39 0 00-1.042-1.527l-3.26-4.39-2.359.289 1.188 9.677 2.114-.26zm10.753-1.32L59.09 13.59l-2.173.267 1.188 9.677 2.173-.267zm4.865-.598l-.568-4.63a27.05 27.05 0 00-.264-1.713c.374.581.713 1.068 1.05 1.526l3.251 4.391 2.36-.29-1.188-9.677-2.114.26.568 4.63c.07.566.162 1.136.263 1.713a23.39 23.39 0 00-1.041-1.527l-3.26-4.39-2.36.29 1.19 9.677 2.113-.26zm12.393-1.378c1.519-.186 2.522-.944 2.837-2.192l.258 1.669 1.593-.196-.634-5.159-4.481.55.196 1.593 2.419-.297c-.04 1.335-.833 2.022-1.986 2.164-1.705.209-2.752-.932-2.991-2.882-.247-2.01.54-3.225 2.119-3.42 1.183-.144 2.025.311 2.432 1.72l2.108-.622c-.656-2.322-2.338-3.226-4.698-2.937-2.985.367-4.553 2.554-4.183 5.57.364 2.962 2.346 4.766 5.011 4.44z" fill="#191A1B" fill-rule="nonzero"/></g></svg>