<svg xmlns="http://www.w3.org/2000/svg" viewBox="0 0 16 16" height="40" width="40"><g transform="matrix(0.6666666666666666,0,0,0.6666666666666666,0,0)"><path d="M23.32 10.23a2 2 0 0 0-3.74 1.39c-.82-2.59-3.3-4.43-6.77-5.4-.16-.05-.51-.13-.51-.14a1.842 1.842 0 0 1-.67-.45 2 2 0 0 1-.48-.79 2.025 2.025 0 0 1 .56-2.08.971.971 0 0 1 .88-.24 19.167 19.167 0 0 1 2.08.53c4.34 1.32 7.51 3.77 8.65 7.18z" style="stroke:#191919;stroke-linecap:round;stroke-linejoin:round;fill:#ffbc44"></path><path d="m22.09 12.93-5.59 1.76v-2.1l3.08-.97a2 2 0 0 1 3.74-1.39 2.163 2.163 0 0 1-1.23 2.7zm-8.59.61v2.09l-3 .95v-2.1l3-.94zm-6 3.98-6.4 2.02-.6-1.91 6.99-2.2.01 2.09z" style="stroke:#191919;stroke-linecap:round;stroke-linejoin:round;fill:#ffdda1"></path><path d="m19.58 11.62-3.08.97v7.91a1.5 1.5 0 0 1-3 0v-6.96l-3 .94V18a1.5 1.5 0 0 1-3 0v-.48l-.01-2.09-6.99 2.2 5.92-6.38a4.084 4.084 0 0 0 2.54 0c1.79-.57 2.89-2.12 2.47-3.47a2.079 2.079 0 0 0-.8-1.07l1-1.08a1.842 1.842 0 0 0 .67.45c0 .01.35.09.51.14 3.47.97 5.95 2.81 6.77 5.4z" style="fill:#ff808c;stroke:#191919;stroke-linecap:round;stroke-linejoin:round"></path><path d="M8.96 11.25a4.084 4.084 0 0 1-2.54 0l4.21-4.54a2.079 2.079 0 0 1 .8 1.07c.42 1.35-.68 2.9-2.47 3.47z" style="fill:#ffef5e;stroke:#191919;stroke-linecap:round;stroke-linejoin:round"></path></g></svg>
