<svg xmlns="http://www.w3.org/2000/svg" fill="none" viewBox="0 0 24 24" height="40" width="40"><path fill="#ffef5e" d="M21.5 5.5H2.5C1.39543 5.5 0.5 6.39543 0.5 7.5V21.5C0.5 22.6046 1.39543 23.5 2.5 23.5H21.5C22.6046 23.5 23.5 22.6046 23.5 21.5V7.5C23.5 6.39543 22.6046 5.5 21.5 5.5Z"></path><path fill="#fff9bf" d="M23.5 8.5V7.5C23.5 6.96957 23.2893 6.46086 22.9142 6.08579C22.5391 5.71071 22.0304 5.5 21.5 5.5H2.5C1.96957 5.5 1.46086 5.71071 1.08579 6.08579C0.710714 6.46086 0.5 6.96957 0.5 7.5V8.5H23.5Z"></path><path stroke="#191919" stroke-linecap="round" stroke-linejoin="round" d="M21.5 5.5H2.5C1.39543 5.5 0.5 6.39543 0.5 7.5V21.5C0.5 22.6046 1.39543 23.5 2.5 23.5H21.5C22.6046 23.5 23.5 22.6046 23.5 21.5V7.5C23.5 6.39543 22.6046 5.5 21.5 5.5Z"></path><path stroke="#191919" stroke-linecap="round" stroke-linejoin="round" d="M4.501 0.5L9.501 5.5"></path><path stroke="#191919" stroke-linecap="round" stroke-linejoin="round" d="M15.5 0.5L10.501 5.5"></path><path fill="#66e1ff" d="M13.5 7.5H6.5C4.29086 7.5 2.5 9.29086 2.5 11.5V17.5C2.5 19.7091 4.29086 21.5 6.5 21.5H13.5C15.7091 21.5 17.5 19.7091 17.5 17.5V11.5C17.5 9.29086 15.7091 7.5 13.5 7.5Z"></path><path fill="#c2f3ff" d="M15.784 8.216C15.114 7.74892 14.3167 7.49898 13.5 7.5H6.5C5.43913 7.5 4.42172 7.92143 3.67157 8.67158C2.92143 9.42172 2.5 10.4391 2.5 11.5V17.5C2.49946 18.0253 2.60271 18.5456 2.80384 19.0309C3.00497 19.5163 3.30001 19.957 3.672 20.328L15.784 8.216Z"></path><path stroke="#191919" stroke-linecap="round" stroke-linejoin="round" d="M13.5 7.5H6.5C4.29086 7.5 2.5 9.29086 2.5 11.5V17.5C2.5 19.7091 4.29086 21.5 6.5 21.5H13.5C15.7091 21.5 17.5 19.7091 17.5 17.5V11.5C17.5 9.29086 15.7091 7.5 13.5 7.5Z"></path><path fill="#e3e3e3" stroke="#191919" stroke-linecap="round" stroke-linejoin="round" d="M21 8.5H20C19.7239 8.5 19.5 8.72386 19.5 9V16C19.5 16.2761 19.7239 16.5 20 16.5H21C21.2761 16.5 21.5 16.2761 21.5 16V9C21.5 8.72386 21.2761 8.5 21 8.5Z"></path><path fill="#e3e3e3" stroke="#191919" stroke-linecap="round" stroke-linejoin="round" d="M20.498 20.995C21.0503 20.995 21.498 20.5473 21.498 19.995C21.498 19.4427 21.0503 18.995 20.498 18.995C19.9457 18.995 19.498 19.4427 19.498 19.995C19.498 20.5473 19.9457 20.995 20.498 20.995Z"></path></svg>