<svg height="32" width="32" xmlns="http://www.w3.org/2000/svg" viewBox="0 0 416.5 416.5"><path d="M208.3 0C93.2 0 0 93.2 0 208.3c0 40.9 12 79 32.4 111.1 10 1.6 21 3.9 30.3 6.2 18.7-27.3 67-84 104.5-127-32.6-13.7-94.6-39.8-128.5-54.6-4.3-1.8 8.7-14.2 13.4-16.3 24.3-10.6 114.6 10.8 157.9 22.1 3.8-4.3 6-6.7 6-6.7 8.4-8.8 65.5-66.1 87.6-44.2 22.2 21.9-28.4 85.7-36.9 94.5 0 0-1.8 1.7-4.9 4.7 11.9 41.8 37.4 138.4 27.3 164.3-1.9 4.9-13.7 18.4-15.6 14.1-16.1-35.7-45.3-102.4-59-133.7-41.7 38.9-97.4 89.8-124.3 109.6 2.5 9.7 5.3 21.3 7.1 31.7 32.2 20.3 70.2 32.3 111 32.3 115 0 208.3-93.2 208.3-208.3S323.3 0 208.3 0z"/></svg>
