<svg clip-rule="evenodd" fill-rule="evenodd" stroke-linejoin="round" stroke-miterlimit="2" viewBox="0 0 23 23" xmlns="http://www.w3.org/2000/svg"><g transform="matrix(1.01086 0 0 1.03661 -1.45173 -.841974)"><path d="m1.436.812h22.753v22.188h-22.753z" fill="none"/><path d="m12.477 6.475c-1.335 0-2.615.53-3.558 1.473-.944.943-1.474 2.224-1.474 3.558s.53 2.614 1.474 3.558c.943.943 2.223 1.473 3.558 1.473 1.334 0 2.614-.53 3.557-1.473.944-.943 1.474-2.224 1.474-3.558-.002-1.334-.532-2.613-1.475-3.556-.944-.943-2.222-1.473-3.556-1.475zm0 8.625c-.954 0-1.867-.379-2.541-1.053-.675-.674-1.053-1.588-1.053-2.541s.378-1.867 1.053-2.541c.674-.675 1.587-1.053 2.541-1.053.953 0 1.866.378 2.54 1.053.675.674 1.053 1.588 1.053 2.541-.001.952-.38 1.866-1.054 2.54-.673.674-1.587 1.053-2.539 1.054zm.718 3.594v2.156c0 .397-.321.719-.718.719-.398 0-.719-.322-.719-.719v-2.156c0-.398.321-.719.719-.719.397 0 .718.321.718.719zm-1.437-14.376v-2.156c0-.397.321-.719.719-.719.397 0 .718.322.718.719v2.156c0 .398-.321.719-.718.719-.398 0-.719-.321-.719-.719zm-6.469 7.907h-2.156c-.397 0-.719-.322-.719-.719s.322-.719.719-.719h2.156c.397 0 .719.322.719.719s-.322.719-.719.719zm17.25-.719c0 .191-.075.374-.21.509-.135.134-.318.21-.509.21h-2.156c-.397 0-.719-.322-.719-.719s.322-.719.719-.719h2.156c.191 0 .374.076.509.211.135.134.21.318.21.508zm-2.947 6.099c.281.281.281.736 0 1.017s-.736.281-1.017 0l-1.524-1.525c-.139-.134-.218-.318-.22-.51-.001-.193.075-.378.211-.515s.321-.212.514-.21c.193.001.377.08.511.219zm-14.231-12.197c-.281-.282-.281-.736 0-1.018.281-.281.736-.281 1.017 0l1.525 1.526c.138.134.217.318.219.51.002.194-.075.379-.21.515-.137.136-.322.212-.515.21-.192-.001-.377-.08-.51-.219zm2.542 10.672c.28.281.28.736 0 1.016l-1.525 1.526c-.281.281-.736.281-1.017 0s-.281-.736 0-1.017l1.525-1.525c.135-.135.317-.21.508-.21s.374.075.509.21zm9.148-9.148c-.281-.281-.281-.736 0-1.016l1.524-1.525c.281-.282.736-.282 1.017 0 .281.281.281.735 0 1.017l-1.525 1.524c-.281.281-.735.281-1.016 0z" fill-rule="nonzero" transform="matrix(.989261 0 0 .964685 .446879 .81224)"/></g></svg>