<svg xmlns="http://www.w3.org/2000/svg" viewBox="0 0 24 24" height="24" width="24"><g transform="matrix(1,0,0,1,0,0)"><defs><style>.b{fill:none;stroke:#191919;stroke-linecap:round;stroke-linejoin:round}</style></defs><path d="m21.5 21.5-1.707 1.707a1 1 0 0 1-.707.293H4.914a1 1 0 0 1-.707-.293L2.5 21.5" style="fill:gray"></path><path class="b" d="m21.5 21.5-1.707 1.707a1 1 0 0 1-.707.293H4.914a1 1 0 0 1-.707-.293L2.5 21.5"></path><rect x=".5" y="5.5" width="23" height="16" rx="1" style="fill:#e3e3e3"></rect><path d="M22.5 5.5h-21a1 1 0 0 0-1 1v3.158a1 1 0 0 1 1-1h21a1 1 0 0 1 1 1V6.5a1 1 0 0 0-1-1z" style="fill:#ffffff"></path><rect class="b" x=".5" y="5.5" width="23" height="16" rx="1"></rect><path class="b" d="M20.5 9.25a.25.25 0 1 1-.25.25.25.25 0 0 1 .25-.25m-1 6.25h2m-2 2h2"></path><rect x="2.5" y="7.5" width="15" height="12" rx="1" style="fill:#66e1ff"></rect><path class="b" d="m12.5 5.5-5-5m5 5 5-5"></path><path d="M3.5 7.5a1 1 0 0 0-1 1v10a.977.977 0 0 0 .193.559L14.251 7.5z" style="fill:#c2f3ff"></path><rect class="b" x="2.5" y="7.5" width="15" height="12" rx="1"></rect></g></svg>
