<svg width="285" height="285" viewBox="0 0 285 285" fill="none" xmlns="http://www.w3.org/2000/svg">
<path d="M284.331 142.595C284.331 220.874 220.881 284.33 142.602 284.33C64.323 284.33 0.866943 220.874 0.866943 142.595C0.866943 64.321 64.324 0.867004 142.602 0.867004C220.881 0.867004 284.331 64.32 284.331 142.595Z" fill="#E95420"/>
<path d="M69.043 142.595C69.043 152.659 60.884 160.82 50.813 160.82C40.754 160.82 32.595 152.66 32.595 142.595C32.595 132.535 40.754 124.376 50.813 124.376C60.884 124.376 69.043 132.535 69.043 142.595ZM172.717 231.201C177.75 239.91 188.89 242.897 197.606 237.871C206.321 232.838 209.307 221.692 204.275 212.976C199.243 204.261 188.102 201.281 179.387 206.313C170.671 211.346 167.685 222.486 172.717 231.201ZM204.274 72.219C209.306 63.502 206.326 52.359 197.605 47.332C188.895 42.3 177.75 45.286 172.716 53.999C167.684 62.714 170.67 73.856 179.386 78.888C188.102 83.92 199.248 80.934 204.274 72.219ZM142.602 90.632C169.755 90.632 192.036 111.446 194.363 137.996L220.735 137.58C219.483 117.853 210.926 100.111 197.74 87.029C190.76 89.722 182.661 89.356 175.674 85.319C168.682 81.282 164.315 74.448 163.16 67.044C156.606 65.264 149.712 64.311 142.602 64.311C130.131 64.311 118.343 67.227 107.875 72.414L120.707 95.457C127.357 92.367 134.784 90.632 142.602 90.632ZM90.633 142.595C90.633 125.018 99.367 109.474 112.73 100.075L99.19 77.441C83.506 87.915 71.823 103.892 66.894 122.624C72.727 127.321 76.464 134.521 76.464 142.596C76.464 150.676 72.726 157.876 66.894 162.574C71.823 181.305 83.506 197.282 99.19 207.762L112.73 185.128C99.367 175.722 90.633 160.184 90.633 142.595ZM142.602 194.568C134.785 194.568 127.358 192.834 120.707 189.738L107.875 212.781C118.343 217.972 130.13 220.885 142.602 220.885C149.711 220.885 156.606 219.939 163.16 218.156C164.314 210.747 168.681 203.913 175.674 199.883C182.661 195.846 190.76 195.479 197.74 198.172C210.927 185.084 219.483 167.342 220.735 147.615L194.363 147.206C192.035 173.749 169.755 194.568 142.602 194.568Z" fill="white"/>
</svg>
