<svg xmlns="http://www.w3.org/2000/svg" viewBox="0 0 149.98 4.15"><polygon points="0 2 5 0 10 2 15 0 20 2 25 0 30 2 35 0 40 2 45 0 50 2 55 0 60 2 65 0 69.99 2 74.98 0 79.98 2 84.98 0 89.98 2 94.98 0 99.98 2 104.98 0 109.98 2 114.98 0 119.98 2 124.98 0 129.98 2 134.98 0 139.98 2 144.98 0 149.98 2 149.98 4.15 144.98 2.15 139.98 4.15 134.98 2.15 129.98 4.15 124.98 2.15 119.98 4.15 114.98 2.15 109.98 4.15 104.98 2.15 99.98 4.15 94.98 2.15 89.98 4.15 84.98 2.15 79.98 4.15 74.99 2.16 70 4.15 65 2.15 60 4.15 55 2.15 50 4.15 45 2.15 40 4.15 35 2.15 30 4.15 25 2.15 20 4.15 15 2.15 10 4.15 5 2.15 0 4.15 0 2" fill="#ff269e"/></svg>