<svg xmlns="http://www.w3.org/2000/svg" viewBox="0 0 165.72 4.15"><polyline points="0.37 3.08 5.37 1.08 10.37 3.08 15.37 1.08 20.37 3.08 25.37 1.08 30.37 3.08 35.37 1.08 40.37 3.08 45.37 1.08 50.37 3.08 55.37 1.08 60.37 3.08 65.37 1.08 70.37 3.08 75.37 1.08 80.37 3.08 85.37 1.08 80.35 3.08 85.35 1.08 90.35 3.08 95.35 1.08 100.35 3.08 105.35 1.08 110.35 3.08 115.35 1.08 120.35 3.08 125.35 1.08 130.35 3.08 135.35 1.08 140.35 3.08 145.35 1.08 150.35 3.08 155.35 1.08 160.35 3.08 165.35 1.08" fill="none" stroke="#ff269e" stroke-width="2"/></svg>