<svg xmlns="http://www.w3.org/2000/svg" viewBox="0 0 24 24" height="24" width="24"><g fill="none" stroke="currentColor" stroke-linecap="round" stroke-linejoin="round" stroke-width="1.5"><path d="M16.053 10.5a6.025 6.025 0 00-8.106 0M8.635 4.395l-.009.636a4.835 4.835 0 01-.7 2.677M15.364 4.395l.009.636a4.826 4.826 0 00.7 2.677M8.635 4.395A4.24 4.24 0 0012 3.166a4.238 4.238 0 003.364 1.229"/><circle cx="12" cy="4.125" r="3.375"/><path d="M10.249 23.25a6.026 6.026 0 00-9.5 0M2.135 16.4l-.009.636a4.835 4.835 0 01-.7 2.677M8.864 16.4l.009.636a4.826 4.826 0 00.7 2.677M2.135 16.4A4.24 4.24 0 005.5 15.166 4.238 4.238 0 008.864 16.4"/><circle cx="5.5" cy="16.125" r="3.375"/><path d="M23.25 23.25a6.026 6.026 0 00-9.5 0M15.136 16.4l-.009.636a4.826 4.826 0 01-.7 2.677M21.865 16.4l.009.636a4.835 4.835 0 00.7 2.677"/><path d="M15.136 16.4a4.237 4.237 0 003.364-1.234 4.24 4.24 0 003.365 1.234"/><circle cx="18.5" cy="16.125" r="3.375"/></g></svg>
