<svg xmlns="http://www.w3.org/2000/svg" viewBox="0 0 24 24" height="24" width="24"><g fill="none" stroke="currentColor" stroke-linecap="round" stroke-linejoin="round" stroke-width="1.5"><path d="M3.375 19A2.625 2.625 0 10.75 16.376 2.625 2.625 0 003.375 19zM6.669 21.184A4.5 4.5 0 00.75 20.6M20.625 19A2.625 2.625 0 1018 16.376 2.625 2.625 0 0020.625 19zM17.331 21.184a4.5 4.5 0 015.919-.584M18 23.249a6.054 6.054 0 00-12 0"/><circle cx="12" cy="13.001" r="3.5"/><path d="M16.5 6.5a14.7 14.7 0 01-9 0V.751l2.5 3 2-3 2 3 2.5-3z"/></g></svg>