<svg xmlns="http://www.w3.org/2000/svg" viewBox="0 0 64 64" height="64" width="64"><g transform="matrix(2.6666666666666665,0,0,2.6666666666666665,0,0)"><defs><style>.a{fill-rule:evenodd}</style></defs><path class="a" d="M23.8 2.171a1.74 1.74 0 0 0-.678-.882 3.026 3.026 0 0 0-1.29-.434A18.088 18.088 0 0 0 19.2.9l-3.16.225c-1.047.054-2.224-.025-3.34.064a7.319 7.319 0 0 0-1.477.251.323.323 0 0 0-.233.355.316.316 0 0 0-.162.306c.069.7.1 1.4.1 2.1a64.844 64.844 0 0 1-.077 3.187 9.686 9.686 0 0 0-.051 1.817 1.951 1.951 0 0 0 .455.966 2.933 2.933 0 0 0 1.5.8 7.872 7.872 0 0 0 2.2.105l2.791-.205c.781-.045 1.562-.074 2.344-.131a21.698 21.698 0 0 0 1.58-.166.38.38 0 1 0-.086-.755 19.53 19.53 0 0 1-1.529.057c-.781 0-1.554-.028-2.335-.04l-2.842.008a6.831 6.831 0 0 1-1.829-.121 1.682 1.682 0 0 1-.859-.42.818.818 0 0 1-.18-.516c-.051-.479 0-1.009-.017-1.405a74.744 74.744 0 0 0-.187-2.816c1.5.095 2.989.2 4.5.2 1.082 0 2.157-.084 3.248-.119.928-.069 1.849-.206 2.786-.255.172-.01.343 0 .514 0 .012.3.02.61.02.915 0 1.655-.137 3.3-.086 4.952a.382.382 0 0 0 .764 0c.043-1.642.284-3.271.395-4.912q.039-.631.052-1.263a5.6 5.6 0 0 0-.199-1.913zm-1.465 1.345c-.935-.046-1.872-.013-2.808-.043-1.09.008-2.172-.017-3.255.035-1.522.073-3.018.24-4.537.342a21.427 21.427 0 0 0-.24-1.772 6.613 6.613 0 0 1 1.235-.117c1.108 0 2.267.178 3.315.208l3.168-.013c.584-.005 1.391-.1 2.138-.059a2.318 2.318 0 0 1 1.09.256.914.914 0 0 1 .3.624 5.16 5.16 0 0 1 .076.584c-.161-.013-.317-.037-.482-.045z"></path><path class="a" d="M20.173 8.619a2.247 2.247 0 0 0 .388-.053 7.757 7.757 0 0 0 .888-.28.364.364 0 0 0 .272-.4c-.013-.21-.149-.368-.311-.353-.292-.046-.577-.123-.881-.163a2.7 2.7 0 0 0-.369-.028 2.023 2.023 0 0 0-.376.037c-.311.063-.583.185-.881.273-.143 0-.253.146-.259.331s.116.337.252.338a6.833 6.833 0 0 0 .894.279 1.789 1.789 0 0 0 .383.019zM8.617 13.511a.334.334 0 1 0-.4-.534l-2.56 1.438c-.031.018-.433.264-.588.372a.745.745 0 0 0-.317.765.854.854 0 0 0 .27.392 3.39 3.39 0 0 0 .642.327c.379.168.781.4 1.184.576a3.03 3.03 0 0 0 .611.211.379.379 0 0 0 .224-.725 2.344 2.344 0 0 1-.418-.244c-.294-.2-.564-.442-.835-.655.217-.166.441-.327.65-.5.54-.453 1.035-.934 1.537-1.423zm.689 3.907a.379.379 0 1 0 .715.25c.342-.723.72-1.4 1.047-2.123.136-.3.246-.62.377-.928l.66-2.229a.337.337 0 0 0-.126-.457.331.331 0 0 0-.453.123 9.092 9.092 0 0 0-.554.827c-.246.409-.458.832-.694 1.249-.167.427-.348.849-.484 1.287-.201.657-.332 1.323-.488 2.001zM14.7 15.66c-.611.252-1.229.45-1.825.733a.38.38 0 0 0 .263.713c.627-.171 1.261-.248 1.9-.39a7.577 7.577 0 0 0 .866-.253 3.2 3.2 0 0 0 .951-.558 1.393 1.393 0 0 0 .379-.579.678.678 0 0 0-.263-.756 6.774 6.774 0 0 0-.671-.37c-.163-.074-.317-.144-.48-.205-.61-.223-1.229-.359-1.832-.59a.336.336 0 1 0-.31.6l1.934 1.177-.232.147a7.121 7.121 0 0 1-.68.331z"></path><path d="M19.9 18.493c.114-.46.231-.918.327-1.385.07-.361.128-.726.186-1.091s.082-.736.105-1.106c.07-.871.082-1.737.093-2.611a.374.374 0 0 0-.337-.415.367.367 0 0 0-.408.34c-.163.872-.384 1.724-.547 2.6a14.9 14.9 0 0 0-.268 1.753c-.061.652-.068 1.3-.068 1.957-.001.358.728.443.917-.042zm-16.7-.94a17.228 17.228 0 0 1-.1-1.888l.009-3.83a11.494 11.494 0 0 1 .017-1.213 1.834 1.834 0 0 1 .146-.617 1.3 1.3 0 0 1 .841-.688A7.287 7.287 0 0 1 5.6 9.063c.78-.091 1.45-.141 2.008-.163a14.136 14.136 0 0 1 1.992.033.386.386 0 0 0 .438-.317.381.381 0 0 0-.318-.434 15.294 15.294 0 0 0-2.112-.188c-.584-.02-1.28-.023-2.087.009a6.592 6.592 0 0 0-2.12.306A2.341 2.341 0 0 0 2.13 9.455a2.969 2.969 0 0 0-.275 1.035 12.128 12.128 0 0 0-.026 1.355c.017.518.026 1.036.052 1.553.043.777.12 1.55.2 2.323a18.866 18.866 0 0 0 .3 1.965c.065.31.162.606.247.906.112.4.777.319.729-.084a11.245 11.245 0 0 1-.157-.955z" style="fill:#00D7B0"></path><path d="M21.739 19.26c-.667-.018-1.335-.051-2-.078.015-.064-4.013-.169-5.645-.219-1.7-.052-3.41-.09-5.115-.06-1.828.032-7.739.5-8.525.591a.328.328 0 0 0-.3.327c-.007.016-.025.022-.029.039a2.006 2.006 0 0 0 .707 2.407 7.042 7.042 0 0 0 3.474.819c1.289.065 2.577.106 3.867.1 1.494-.005 2.987-.05 4.481-.088s2.965-.087 4.452-.058h1.011a6.834 6.834 0 0 0 3.165-.4 1.586 1.586 0 0 0 .8-1.428c-.122-1.602.218-1.952-.343-1.952zm-1.205 2.72a8.326 8.326 0 0 1-2.4.008l-.985-.052a62.567 62.567 0 0 0-3.872-.116c-1.5 0-2.994.048-4.49.1s-2.969.134-4.458.141a6.075 6.075 0 0 1-3.047-.458 1.308 1.308 0 0 1-.5-1.448c2.451-.088 4.9-.034 7.355-.005q2.546.032 5.093.031c2.67 0 5.335-.072 8-.154l.027 1.153a.844.844 0 0 1-.723.8z"></path></g></svg>