<svg xmlns="http://www.w3.org/2000/svg" viewBox="0 0 64 64" height="64" width="64"><g transform="matrix(2.6666666666666665,0,0,2.6666666666666665,0,0)"><defs><style>.a{fill-rule:evenodd}</style></defs><path class="a" d="M11.668 2.2a.352.352 0 0 0-.328-.371 8.657 8.657 0 0 0-1.711-.377 1.816 1.816 0 0 0-.993.24.978.978 0 0 0-.369.424 2.159 2.159 0 0 0-.123.61 3.23 3.23 0 0 0 .01.556c.017.222.054.438.087.656a2.672 2.672 0 0 0-.641-.1 1.954 1.954 0 0 0-.506.1 2.389 2.389 0 0 0-.468.209 3.7 3.7 0 0 0-.81.66 6.765 6.765 0 0 0-.426-.593 1.88 1.88 0 0 0-.625-.5.9.9 0 0 0-.531-.027 2.128 2.128 0 0 0-.57.24 5.9 5.9 0 0 0-.777.569 6.17 6.17 0 0 0-.665.7 4.21 4.21 0 0 0-.363.468.916.916 0 0 0-.133.351 1.239 1.239 0 0 0 .392.959 5.752 5.752 0 0 0 .937.7 2.14 2.14 0 0 0-.377.3 1.287 1.287 0 0 0-.216.388 1.661 1.661 0 0 0-.1.422 3.224 3.224 0 0 0 .026.684 7.15 7.15 0 0 0-.8-.134 1.893 1.893 0 0 0-.795.089.89.89 0 0 0-.394.357 2.087 2.087 0 0 0-.234.572 5.992 5.992 0 0 0-.147.952 6.081 6.081 0 0 0 .027.967 4.245 4.245 0 0 0 .073.587.913.913 0 0 0 .155.342 1.234 1.234 0 0 0 .955.4 4.513 4.513 0 0 0 .826-.1 4.888 4.888 0 0 0 .038.8 2.7 2.7 0 0 0 .149.534 3.1 3.1 0 0 0 .26.506 4.075 4.075 0 0 0 .8.869 7.169 7.169 0 0 0-.639.457 1.9 1.9 0 0 0-.5.625.9.9 0 0 0-.027.532 2.128 2.128 0 0 0 .24.57 5.968 5.968 0 0 0 .569.777 6.1 6.1 0 0 0 .7.665 4.311 4.311 0 0 0 .456.365.912.912 0 0 0 .351.132 1.233 1.233 0 0 0 .959-.391 4.66 4.66 0 0 0 .558-.723 3.732 3.732 0 0 0 .709.474 2.1 2.1 0 0 0 .483.152 1.91 1.91 0 0 0 .491.038 3.12 3.12 0 0 0 .462-.1l-.208.863a2.86 2.86 0 0 0-.065.522.645.645 0 0 0 .312.531 2.136 2.136 0 0 0 1.045.334 7.284 7.284 0 0 0 1.991-.374.394.394 0 0 0-.086-.783c-.4-.009-.862-.021-1.313-.052a2.689 2.689 0 0 1-.636-.1l-.127-1.285a.322.322 0 0 0 .06-.157.333.333 0 0 0-.113-.247.342.342 0 0 0-.3-.318.327.327 0 0 0-.27.114 7.607 7.607 0 0 0-.748-.245 5.824 5.824 0 0 0-.61-.095c-.243-.034-.479-.059-.718-.1a.369.369 0 0 0-.081-.173.4.4 0 0 0-.559.023c-.164.153-.856.426-1.064.738-.061-.044-.118-.082-.139-.1l-1.055-1.2c-.019-.023-.1-.072-.139-.114a.859.859 0 0 0-.044.118.531.531 0 0 1 .039-.123c-.025-.027-.034-.049 0-.058s.024 0 .019.012a1.989 1.989 0 0 1 .189-.283c.264-.316.582-.624.773-.836a.351.351 0 0 0 .021-.494.33.33 0 0 0-.286-.1 6.124 6.124 0 0 1-.378-1.026c-.082-.238-.157-.482-.261-.713a7.948 7.948 0 0 0-.439-.809.39.39 0 0 0 .113-.287.4.4 0 0 0-.412-.38 5.257 5.257 0 0 0-1.275-.23 1.7 1.7 0 0 1-.024-.171l.1-1.591c0-.03-.017-.119-.017-.179a.753.753 0 0 0-.115.052.54.54 0 0 1 .115-.059c0-.037.01-.06.038-.045s.018.015 0 .022a1.994 1.994 0 0 1 .334-.066c.41-.038.852-.03 1.138-.045a.35.35 0 0 0 .363-.335.333.333 0 0 0-.059-.166c.126-.315.33-.6.48-.921a1.915 1.915 0 0 0 .1-.292 3.435 3.435 0 0 1 .194-.743A.345.345 0 0 0 4 7.324a.335.335 0 0 0-.181-.08c-.153-.164-.425-.856-.738-1.063a1.515 1.515 0 0 1 .1-.138L4.38 4.987c.024-.019.073-.1.114-.138a.755.755 0 0 0-.117-.049.563.563 0 0 1 .123.039c.027-.026.049-.035.058 0s0 .022-.012.018a1.989 1.989 0 0 1 .283.189c.316.263.624.582.836.773a.351.351 0 0 0 .494.021.328.328 0 0 0 .087-.317A6.206 6.206 0 0 1 7.08 5.3c.133-.031.267-.057.4-.095s.26-.084.387-.133c.265-.1.486-.217.707-.291.042.016.074.051.122.051a.373.373 0 0 0 .314-.188.344.344 0 0 0 .143-.238c0-.044-.025-.078-.036-.119.034-.268.069-.534.112-.8a3.4 3.4 0 0 1 .143-.555c.01-.027.01-.089.021-.144a1.521 1.521 0 0 1 .317-.064c.205-.035.41-.092.636-.117.379-.043.727-.063.942-.086a.359.359 0 0 0 .38-.321z"></path><path class="a" d="M4.539 4.862h.007a.055.055 0 0 1-.025 0zm-.045-.013h.027L4.5 4.843zm-3.055 5.543v-.008c0 .008-.013.01-.02.015zm-.039.022a.17.17 0 0 0 .02-.014l-.022.008zm1.887 7.148a.132.132 0 0 0 0-.026l-.01.021zm.013-.045v-.006a.055.055 0 0 1 0 .025z"></path><path d="M8.363 8.766a2.538 2.538 0 0 1 2.451-.573.348.348 0 1 0 .231-.656 3.505 3.505 0 0 0-4 .941 4.863 4.863 0 0 0-1.123 1.836A4.683 4.683 0 0 0 5.7 12.5a3.653 3.653 0 0 0 1.551 2.274 5.64 5.64 0 0 0 3.645 1.048.395.395 0 1 0-.062-.787 4.549 4.549 0 0 1-2.471-.835 2.747 2.747 0 0 1-1.355-1.877 4 4 0 0 1 .428-2.272 4.02 4.02 0 0 1 .927-1.285z" style="fill:#00D7B0;fill-rule:evenodd"></path><path class="a" d="M12.489 6.519a.4.4 0 0 0 .4.4.389.389 0 0 0 .395-.389 18.193 18.193 0 0 0 .208-2.09c.009-.4 0-.8-.03-1.2a13.418 13.418 0 0 1-.089-1.775.349.349 0 0 0-.257-.418.357.357 0 0 0-.425.26 7.4 7.4 0 0 0-.524 2.122 6.782 6.782 0 0 0 .049 1.265c.065.621.204 1.217.273 1.825zm7.521-2.235c0-4.268-4.438-3.213-4.786-.046A2.5 2.5 0 0 0 17.5 7.2a2.2 2.2 0 0 0 1.978-1.012 3.494 3.494 0 0 0 .532-1.904zm-1.128-.056a2.387 2.387 0 0 1-.454 1.216.974.974 0 0 1-.861.424c-.9-.016-1.255-.795-1.246-1.561.027-2.407 2.863-2.938 2.561-.079zm2.907 2.595a.4.4 0 0 0 .792 0c.079-.648.148-1.278.167-1.926a7.336 7.336 0 0 0 .01-.812 7.155 7.155 0 0 0-.069-.8c-.069-.624-.207-1.219-.257-1.853a.347.347 0 0 0-.326-.37.342.342 0 0 0-.366.322 12.065 12.065 0 0 0-.326 2.216 9.5 9.5 0 0 0 .079 1.306c.079.645.217 1.268.296 1.917zm-9.053 2.615a.355.355 0 0 0-.316.382c-.02.7-.109 1.39-.1 2.1.01.412.069.822.118 1.23.089.621.218 1.219.287 1.839a.4.4 0 0 0 .4.4.393.393 0 0 0 .395-.392 16.883 16.883 0 0 0 .178-1.865 7.065 7.065 0 0 0-.01-.8 6.672 6.672 0 0 0-.1-.786c-.118-.617-.306-1.194-.474-1.8a.343.343 0 0 0-.378-.308zm4.229.662a.35.35 0 0 0-.347-.348.342.342 0 0 0-.346.347 13.358 13.358 0 0 0-.237 1.976 9.045 9.045 0 0 0 .089 1.151c.069.576.2 1.125.247 1.7a.4.4 0 0 0 .791.036 14.656 14.656 0 0 0 .218-1.741q.015-.367 0-.737a6.056 6.056 0 0 0-.069-.723c-.099-.568-.257-1.097-.346-1.661zm2.428 1.989a3.265 3.265 0 0 0 .2 1.932 2.162 2.162 0 0 0 1.72 1.282A2.052 2.052 0 0 0 23 14.788a3.286 3.286 0 0 0 .969-2.061c.423-3.72-3.877-4.127-4.576-.638zm3.481.46a2.6 2.6 0 0 1-.554 1.111.9.9 0 0 1-.821.325 1.04 1.04 0 0 1-.85-.744 2.583 2.583 0 0 1-.148-1c.179-2.617 2.899-2.241 2.373.308zm-11.216 8.812c.248 1.057 1.157 1.842 2.828 1.535a2.615 2.615 0 0 0 1.77-3c-.551-4.338-5.32-1.596-4.598 1.465zm2.561.235c-1 .236-1.463-.334-1.483-1.034-.023-1.959 2.313-3.279 2.423-.584.019.713-.228 1.5-.94 1.622zm4.644-3.423a.349.349 0 0 0-.337-.364.352.352 0 0 0-.365.33 14.882 14.882 0 0 0-.337 1.5 4.858 4.858 0 0 0-.039.65 4.925 4.925 0 0 0 .049.654 11.093 11.093 0 0 0 .307 1.514.392.392 0 1 0 .781-.073c.04-.49.109-.966.158-1.466q.03-.311.03-.625a4.376 4.376 0 0 0-.02-.627c-.049-.519-.158-.994-.227-1.493zm3.784-.19a.342.342 0 0 0-.335-.36.352.352 0 0 0-.359.335c-.116.5-.262.956-.341 1.459a5.267 5.267 0 0 0-.055.629 5.548 5.548 0 0 0 .018.631c.031.5.11.981.171 1.481a.393.393 0 1 0 .786.029c.1-.493.213-.964.286-1.46a4.318 4.318 0 0 0 .067-.629 4.444 4.444 0 0 0-.006-.632c-.043-.508-.152-.979-.232-1.483z"></path></g></svg>