<svg xmlns="http://www.w3.org/2000/svg" viewBox="0 0 64 64" height="64" width="64"><g transform="matrix(2.6666666666666665,0,0,2.6666666666666665,0,0)"><path d="M23.735 3.73a1.668 1.668 0 0 0-.137-.719.732.732 0 0 0-.586-.415 1.341 1.341 0 0 0-.768.221 2.458 2.458 0 0 1-1.515.477 1.1 1.1 0 0 1-.5-.156 2.9 2.9 0 0 1-.715-.84 1.292 1.292 0 0 0-.769-.479.9.9 0 0 0-.717.181 4.545 4.545 0 0 1-.921.784 1.584 1.584 0 0 1-.791.142 3.766 3.766 0 0 1-1.963-.858c-.449-.23-.738-.112-.928.223a3.569 3.569 0 0 0-.343 1.047 10.551 10.551 0 0 0-.114 1.462c-.015.393-.107 1.95-.091 3.484a17.731 17.731 0 0 0 .137 2.359l.007.046a3.823 3.823 0 0 0 1.233 1.8 7.361 7.361 0 0 0 2.77 1.454.283.283 0 0 0 .35-.189.291.291 0 0 0-.19-.35 6.885 6.885 0 0 1-2.123-1.1 3.466 3.466 0 0 1-1.324-1.775 19.187 19.187 0 0 1-.037-2.235c.046-1.516.191-3.052.221-3.44a9.988 9.988 0 0 1 .145-1.337 2.756 2.756 0 0 1 .15-.517 4.492 4.492 0 0 0 2.047.984 2.573 2.573 0 0 0 1.316-.247 2.867 2.867 0 0 0 .792-.592c.075-.072.144-.2.205-.264.145.045.2.216.3.363a2.749 2.749 0 0 0 .791.8 2.153 2.153 0 0 0 .982.306 2.847 2.847 0 0 0 1.285-.2 4.7 4.7 0 0 0 .708-.36 3.9 3.9 0 0 1 .1.683c-.007.519-.038 1.039-.053 1.2s-.221 1.856-.464 3.437c-.13.857-.274 1.683-.4 2.212a3.927 3.927 0 0 1-1.7 1.483 6.011 6.011 0 0 1-2.321.625.319.319 0 1 0 .023.637 6.725 6.725 0 0 0 2.61-.627 4.651 4.651 0 0 0 2.092-1.786.368.368 0 0 0 .031-.086c.159-.542.334-1.411.5-2.317.3-1.6.555-3.309.571-3.481a18.381 18.381 0 0 0 .104-2.04zM.793 4.222A1.647 1.647 0 0 0 .4 6.044a.276.276 0 0 0 .365.149.279.279 0 0 0 .152-.367.911.911 0 0 1 .167-.872 1.458 1.458 0 0 1 .416-.426c.3-.472.309-.822-.277-.754a2.059 2.059 0 0 0-.43.448zm18.351 13.684c.047.386-.154.537-.294.933a2.218 2.218 0 0 1-.936 1 10.038 10.038 0 0 1-2.154.941l-3.667 1.246a12.215 12.215 0 0 1-3.31.893 4.13 4.13 0 0 1-2.07-.382.617.617 0 0 1-.2-.229c-.106-.172-.182-.363-.266-.515-.228-.444-.441-.895-.647-1.352s-.4-.917-.586-1.38c-.913-2.29-1.986-4.807-2.8-7.346a27.223 27.223 0 0 1-1.185-5.056.283.283 0 0 0-.563.057 28.483 28.483 0 0 0 1.019 5.218c.739 2.586 1.72 5.158 2.557 7.5a26.313 26.313 0 0 0 1.256 2.851 4.309 4.309 0 0 0 .487.854 1.37 1.37 0 0 0 .472.376 5.1 5.1 0 0 0 2.594.473 13.037 13.037 0 0 0 3.592-1.028l3.607-1.35a10.868 10.868 0 0 0 2.3-1.1 3.522 3.522 0 0 0 1.2-1.421 1.717 1.717 0 0 0 .152-1.29c-.057-.278-.459-.199-.558.107z"></path><path d="M18.644 15.229a.324.324 0 0 0-.448-.086.319.319 0 0 0-.084.443 3.593 3.593 0 0 1 .506 1.211 6 6 0 0 1-1.792.985c-.883.331-1.773.625-2.671.935-.791.31-1.59.609-2.374.92s-1.552.629-2.351.867a13.638 13.638 0 0 1-1.693.385 49.843 49.843 0 0 1-1.853-4.73 95.584 95.584 0 0 1-1.2-3.873c-.387-1.309-.791-2.609-1.133-3.9-.29-1.038-.654-2.073-.929-3.123-.119-.434-.222-.87-.3-1.31.283-.165.585-.328.923-.488.133-.063.28-.122.421-.182l.7.943c.084.109.168.278.259.413a1.184 1.184 0 0 0 .221.241.838.838 0 0 0 .479.141 6.239 6.239 0 0 0 .982-.124 6.845 6.845 0 0 0 .943-.19c.67-.183 1.317-.452 1.994-.617a6.62 6.62 0 0 0 .883-.243.836.836 0 0 0 .4-.314 1.272 1.272 0 0 0 .152-.466c.031-.256.023-.561.053-.744.046-.305.107-.612.183-.916.039-.158.1-.309.145-.464.369-.077.725-.143 1.065-.2a1.082 1.082 0 0 1 .548.027.581.581 0 0 1 .357.438c-.038.019.122.136.3.107a.315.315 0 0 0 .259-.367l-.023-.1a1.155 1.155 0 0 0-.433-.6 1.618 1.618 0 0 0-1.1-.233A27.56 27.56 0 0 0 7.17.882 21.186 21.186 0 0 0 4.058 2c-1.039.472-2.392.9-2.254 2.284.05.375.1.75.176 1.123.206 1.07.48 2.13.693 3.19.19.888.373 1.782.608 2.673a48.87 48.87 0 0 0 1.21 3.935 45.666 45.666 0 0 0 2.723 6.16.353.353 0 0 0 .3.162 20.3 20.3 0 0 0 3.559-.572c.48-.132.952-.28 1.423-.448.685-.248 1.362-.54 2.04-.812.875-.389 1.75-.761 2.609-1.17.579-.274 1.3-.845 1.865-1.164.752-.481.051-1.534-.366-2.132zM4.956 2.757a46.544 46.544 0 0 1 5.289-1.632c-.008.02-.237.7-.321 1.022l-.159.736C9 3.07 5.424 4.172 5.424 4.172c-.152.037-1.148-1.15-1.148-1.15.224-.088.446-.177.68-.265z" style="fill:#00D7B0"></path><path d="M17.96 11.483a1.555 1.555 0 0 0 .639-.466 8.609 8.609 0 0 0 .73-1.088c.518-.887.929-1.841 1.507-2.686a5.677 5.677 0 0 1 .8-.964.319.319 0 0 0-.411-.488 6.744 6.744 0 0 0-1.309 1.338c-.532.708-.974 1.5-1.483 2.221-.115.179-.282.469-.465.742-.061.1-.122.205-.182.29-.069-.1-1.812-1.9-1.812-1.9a.28.28 0 1 0-.411.381l1.4 1.9c.022.034.3.42.418.56a.542.542 0 0 0 .579.16z"></path></g></svg>